{
  "header": {
    "PPQ": 960,
    "timeSignature": [
      4,
      4
    ],
    "bpm": 110.00011000011,
    "name": ""
  },
  "tempo": [
    {
      "absoluteTime": 0,
      "seconds": 0,
      "bpm": 110.00011000011
    },
    {
      "absoluteTime": 303360,
      "seconds": 172.363464,
      "bpm": 60
    }
  ],
  "timeSignature": [
    {
      "absoluteTime": 0,
      "seconds": 0,
      "numerator": 4,
      "denominator": 2,
      "click": 24,
      "notesQ": 8
    }
  ],
  "startTime": 0,
  "duration": 176.72709600000147,
  "tracks": [
    {
      "startTime": 0,
      "duration": 0,
      "length": 0,
      "notes": [],
      "controlChanges": {
        "6": [
          {
            "number": 6,
            "time": 0,
            "value": 0.09448818897637795
          },
          {
            "number": 6,
            "time": 0,
            "value": 0.09448818897637795
          },
          {
            "number": 6,
            "time": 0,
            "value": 0.09448818897637795
          },
          {
            "number": 6,
            "time": 0,
            "value": 0.09448818897637795
          },
          {
            "number": 6,
            "time": 0,
            "value": 0.09448818897637795
          },
          {
            "number": 6,
            "time": 0,
            "value": 0.09448818897637795
          },
          {
            "number": 6,
            "time": 0,
            "value": 0.09448818897637795
          },
          {
            "number": 6,
            "time": 0,
            "value": 0.09448818897637795
          },
          {
            "number": 6,
            "time": 0,
            "value": 0.09448818897637795
          },
          {
            "number": 6,
            "time": 0,
            "value": 0.09448818897637795
          },
          {
            "number": 6,
            "time": 0,
            "value": 0.09448818897637795
          },
          {
            "number": 6,
            "time": 0,
            "value": 0.09448818897637795
          },
          {
            "number": 6,
            "time": 0,
            "value": 0.09448818897637795
          },
          {
            "number": 6,
            "time": 0,
            "value": 0.09448818897637795
          },
          {
            "number": 6,
            "time": 0,
            "value": 0.09448818897637795
          },
          {
            "number": 6,
            "time": 0,
            "value": 0.09448818897637795
          }
        ],
        "38": [
          {
            "number": 38,
            "time": 0,
            "value": 0
          },
          {
            "number": 38,
            "time": 0,
            "value": 0
          },
          {
            "number": 38,
            "time": 0,
            "value": 0
          },
          {
            "number": 38,
            "time": 0,
            "value": 0
          },
          {
            "number": 38,
            "time": 0,
            "value": 0
          },
          {
            "number": 38,
            "time": 0,
            "value": 0
          },
          {
            "number": 38,
            "time": 0,
            "value": 0
          },
          {
            "number": 38,
            "time": 0,
            "value": 0
          },
          {
            "number": 38,
            "time": 0,
            "value": 0
          },
          {
            "number": 38,
            "time": 0,
            "value": 0
          },
          {
            "number": 38,
            "time": 0,
            "value": 0
          },
          {
            "number": 38,
            "time": 0,
            "value": 0
          },
          {
            "number": 38,
            "time": 0,
            "value": 0
          },
          {
            "number": 38,
            "time": 0,
            "value": 0
          },
          {
            "number": 38,
            "time": 0,
            "value": 0
          },
          {
            "number": 38,
            "time": 0,
            "value": 0
          }
        ],
        "100": [
          {
            "number": 100,
            "time": 0,
            "value": 0
          },
          {
            "number": 100,
            "time": 0,
            "value": 0
          },
          {
            "number": 100,
            "time": 0,
            "value": 0
          },
          {
            "number": 100,
            "time": 0,
            "value": 0
          },
          {
            "number": 100,
            "time": 0,
            "value": 0
          },
          {
            "number": 100,
            "time": 0,
            "value": 0
          },
          {
            "number": 100,
            "time": 0,
            "value": 0
          },
          {
            "number": 100,
            "time": 0,
            "value": 0
          },
          {
            "number": 100,
            "time": 0,
            "value": 0
          },
          {
            "number": 100,
            "time": 0,
            "value": 0
          },
          {
            "number": 100,
            "time": 0,
            "value": 0
          },
          {
            "number": 100,
            "time": 0,
            "value": 0
          },
          {
            "number": 100,
            "time": 0,
            "value": 0
          },
          {
            "number": 100,
            "time": 0,
            "value": 0
          },
          {
            "number": 100,
            "time": 0,
            "value": 0
          },
          {
            "number": 100,
            "time": 0,
            "value": 0
          }
        ],
        "101": [
          {
            "number": 101,
            "time": 0,
            "value": 0
          },
          {
            "number": 101,
            "time": 0,
            "value": 0
          },
          {
            "number": 101,
            "time": 0,
            "value": 0
          },
          {
            "number": 101,
            "time": 0,
            "value": 0
          },
          {
            "number": 101,
            "time": 0,
            "value": 0
          },
          {
            "number": 101,
            "time": 0,
            "value": 0
          },
          {
            "number": 101,
            "time": 0,
            "value": 0
          },
          {
            "number": 101,
            "time": 0,
            "value": 0
          },
          {
            "number": 101,
            "time": 0,
            "value": 0
          },
          {
            "number": 101,
            "time": 0,
            "value": 0
          },
          {
            "number": 101,
            "time": 0,
            "value": 0
          },
          {
            "number": 101,
            "time": 0,
            "value": 0
          },
          {
            "number": 101,
            "time": 0,
            "value": 0
          },
          {
            "number": 101,
            "time": 0,
            "value": 0
          },
          {
            "number": 101,
            "time": 0,
            "value": 0
          },
          {
            "number": 101,
            "time": 0,
            "value": 0
          }
        ]
      },
      "id": 0
    },
    {
      "startTime": 1.363635,
      "duration": 176.72709600000118,
      "length": 774,
      "notes": [
        {
          "name": "A5",
          "midi": 81,
          "time": 1.363635,
          "velocity": 0.7480314960629921,
          "duration": 0.27272699999999994
        },
        {
          "name": "C6",
          "midi": 84,
          "time": 1.6363619999999999,
          "velocity": 0.7480314960629921,
          "duration": 0.27272699999999994
        },
        {
          "name": "A5",
          "midi": 81,
          "time": 1.9090889999999998,
          "velocity": 0.7480314960629921,
          "duration": 0.27272700000000016
        },
        {
          "name": "D6",
          "midi": 86,
          "time": 2.181816,
          "velocity": 0.7480314960629921,
          "duration": 0.818181
        },
        {
          "name": "F6",
          "midi": 89,
          "time": 2.999997,
          "velocity": 0.7480314960629921,
          "duration": 0.818181
        },
        {
          "name": "E6",
          "midi": 88,
          "time": 3.818178,
          "velocity": 0.7480314960629921,
          "duration": 1.0909080000000002
        },
        {
          "name": "A5",
          "midi": 81,
          "time": 5.727267,
          "velocity": 0.7480314960629921,
          "duration": 0.2727269999999997
        },
        {
          "name": "C6",
          "midi": 84,
          "time": 5.999994,
          "velocity": 0.7480314960629921,
          "duration": 0.2727269999999997
        },
        {
          "name": "A5",
          "midi": 81,
          "time": 6.272721,
          "velocity": 0.7480314960629921,
          "duration": 0.2727269999999997
        },
        {
          "name": "F6",
          "midi": 89,
          "time": 6.5454479999999995,
          "velocity": 0.7480314960629921,
          "duration": 0.818181
        },
        {
          "name": "E6",
          "midi": 88,
          "time": 7.3636289999999995,
          "velocity": 0.7480314960629921,
          "duration": 0.8181809999999992
        },
        {
          "name": "C6",
          "midi": 84,
          "time": 8.181809999999999,
          "velocity": 0.7480314960629921,
          "duration": 1.0909080000000007
        },
        {
          "name": "A5",
          "midi": 81,
          "time": 10.090899,
          "velocity": 0.7480314960629921,
          "duration": 0.2727269999999997
        },
        {
          "name": "A4",
          "midi": 69,
          "time": 10.090899,
          "velocity": 0.7480314960629921,
          "duration": 0.2727269999999997
        },
        {
          "name": "C6",
          "midi": 84,
          "time": 10.363626,
          "velocity": 0.7480314960629921,
          "duration": 0.2727269999999997
        },
        {
          "name": "C5",
          "midi": 72,
          "time": 10.363626,
          "velocity": 0.7480314960629921,
          "duration": 0.2727269999999997
        },
        {
          "name": "A5",
          "midi": 81,
          "time": 10.636353,
          "velocity": 0.7480314960629921,
          "duration": 0.2727269999999997
        },
        {
          "name": "A4",
          "midi": 69,
          "time": 10.636353,
          "velocity": 0.7480314960629921,
          "duration": 0.2727269999999997
        },
        {
          "name": "D6",
          "midi": 86,
          "time": 10.90908,
          "velocity": 0.7480314960629921,
          "duration": 0.8181809999999992
        },
        {
          "name": "D5",
          "midi": 74,
          "time": 10.90908,
          "velocity": 0.7480314960629921,
          "duration": 0.8181809999999992
        },
        {
          "name": "F6",
          "midi": 89,
          "time": 11.727260999999999,
          "velocity": 0.7480314960629921,
          "duration": 0.8181809999999992
        },
        {
          "name": "F5",
          "midi": 77,
          "time": 11.727260999999999,
          "velocity": 0.7480314960629921,
          "duration": 0.8181809999999992
        },
        {
          "name": "E6",
          "midi": 88,
          "time": 12.545441999999998,
          "velocity": 0.7480314960629921,
          "duration": 0.5454539999999994
        },
        {
          "name": "E5",
          "midi": 76,
          "time": 12.545441999999998,
          "velocity": 0.7480314960629921,
          "duration": 1.0909079999999989
        },
        {
          "name": "A5",
          "midi": 81,
          "time": 14.454530999999996,
          "velocity": 0.7480314960629921,
          "duration": 0.2727269999999997
        },
        {
          "name": "A4",
          "midi": 69,
          "time": 14.454530999999996,
          "velocity": 0.7480314960629921,
          "duration": 0.2727269999999997
        },
        {
          "name": "C6",
          "midi": 84,
          "time": 14.727257999999996,
          "velocity": 0.7480314960629921,
          "duration": 0.2727269999999997
        },
        {
          "name": "C5",
          "midi": 72,
          "time": 14.727257999999996,
          "velocity": 0.7480314960629921,
          "duration": 0.2727269999999997
        },
        {
          "name": "A5",
          "midi": 81,
          "time": 14.999984999999995,
          "velocity": 0.7480314960629921,
          "duration": 0.2727269999999997
        },
        {
          "name": "A4",
          "midi": 69,
          "time": 14.999984999999995,
          "velocity": 0.7480314960629921,
          "duration": 0.2727269999999997
        },
        {
          "name": "F6",
          "midi": 89,
          "time": 15.272711999999995,
          "velocity": 0.7480314960629921,
          "duration": 0.8181809999999992
        },
        {
          "name": "F5",
          "midi": 77,
          "time": 15.272711999999995,
          "velocity": 0.7480314960629921,
          "duration": 0.8181809999999992
        },
        {
          "name": "E6",
          "midi": 88,
          "time": 16.090892999999994,
          "velocity": 0.7480314960629921,
          "duration": 0.8181809999999992
        },
        {
          "name": "E5",
          "midi": 76,
          "time": 16.090892999999994,
          "velocity": 0.7480314960629921,
          "duration": 0.8181809999999992
        },
        {
          "name": "C6",
          "midi": 84,
          "time": 16.909073999999993,
          "velocity": 0.7480314960629921,
          "duration": 1.0909079999999989
        },
        {
          "name": "C5",
          "midi": 72,
          "time": 16.909073999999993,
          "velocity": 0.7480314960629921,
          "duration": 0.5454539999999994
        },
        {
          "name": "A5",
          "midi": 81,
          "time": 18.81816299999999,
          "velocity": 0.7480314960629921,
          "duration": 0.2727269999999997
        },
        {
          "name": "A4",
          "midi": 69,
          "time": 18.81816299999999,
          "velocity": 0.7480314960629921,
          "duration": 0.2727269999999997
        },
        {
          "name": "C6",
          "midi": 84,
          "time": 19.09088999999999,
          "velocity": 0.7480314960629921,
          "duration": 0.2727269999999997
        },
        {
          "name": "C5",
          "midi": 72,
          "time": 19.09088999999999,
          "velocity": 0.7480314960629921,
          "duration": 0.2727269999999997
        },
        {
          "name": "A5",
          "midi": 81,
          "time": 19.36361699999999,
          "velocity": 0.7480314960629921,
          "duration": 0.2727269999999997
        },
        {
          "name": "A4",
          "midi": 69,
          "time": 19.36361699999999,
          "velocity": 0.7480314960629921,
          "duration": 0.2727269999999997
        },
        {
          "name": "D6",
          "midi": 86,
          "time": 19.63634399999999,
          "velocity": 0.7480314960629921,
          "duration": 0.5454539999999994
        },
        {
          "name": "D5",
          "midi": 74,
          "time": 19.63634399999999,
          "velocity": 0.7480314960629921,
          "duration": 0.5454539999999994
        },
        {
          "name": "A5",
          "midi": 81,
          "time": 20.18179799999999,
          "velocity": 0.7480314960629921,
          "duration": 0.2727269999999997
        },
        {
          "name": "A5",
          "midi": 81,
          "time": 20.45452499999999,
          "velocity": 0.7480314960629921,
          "duration": 0.2727269999999997
        },
        {
          "name": "A5",
          "midi": 81,
          "time": 20.72725199999999,
          "velocity": 0.7480314960629921,
          "duration": 0.2727269999999997
        },
        {
          "name": "A5",
          "midi": 81,
          "time": 20.99997899999999,
          "velocity": 0.7480314960629921,
          "duration": 0.2727269999999997
        },
        {
          "name": "A#5",
          "midi": 82,
          "time": 21.27270599999999,
          "velocity": 0.7480314960629921,
          "duration": 0.2727269999999997
        },
        {
          "name": "A5",
          "midi": 81,
          "time": 21.54543299999999,
          "velocity": 0.7480314960629921,
          "duration": 0.5454539999999994
        },
        {
          "name": "A5",
          "midi": 81,
          "time": 22.090886999999988,
          "velocity": 0.7480314960629921,
          "duration": 0.2727269999999997
        },
        {
          "name": "G5",
          "midi": 79,
          "time": 22.363613999999988,
          "velocity": 0.7480314960629921,
          "duration": 0.2727269999999997
        },
        {
          "name": "F5",
          "midi": 77,
          "time": 22.636340999999987,
          "velocity": 0.7480314960629921,
          "duration": 0.5454539999999994
        },
        {
          "name": "C5",
          "midi": 72,
          "time": 23.727248999999986,
          "velocity": 0.7480314960629921,
          "duration": 0.2727269999999997
        },
        {
          "name": "A5",
          "midi": 81,
          "time": 23.999975999999986,
          "velocity": 0.7480314960629921,
          "duration": 0.2727269999999997
        },
        {
          "name": "A5",
          "midi": 81,
          "time": 24.272702999999986,
          "velocity": 0.7480314960629921,
          "duration": 0.2727269999999997
        },
        {
          "name": "G5",
          "midi": 79,
          "time": 24.545429999999985,
          "velocity": 0.7480314960629921,
          "duration": 0.2727269999999997
        },
        {
          "name": "F5",
          "midi": 77,
          "time": 24.818156999999985,
          "velocity": 0.7480314960629921,
          "duration": 0.5454539999999994
        },
        {
          "name": "G5",
          "midi": 79,
          "time": 25.363610999999985,
          "velocity": 0.7480314960629921,
          "duration": 0.5454539999999994
        },
        {
          "name": "C5",
          "midi": 72,
          "time": 25.909064999999984,
          "velocity": 0.7480314960629921,
          "duration": 0.2727269999999997
        },
        {
          "name": "A5",
          "midi": 81,
          "time": 26.181791999999984,
          "velocity": 0.7480314960629921,
          "duration": 0.2727269999999997
        },
        {
          "name": "A5",
          "midi": 81,
          "time": 26.454518999999983,
          "velocity": 0.7480314960629921,
          "duration": 0.2727269999999997
        },
        {
          "name": "G5",
          "midi": 79,
          "time": 26.727245999999983,
          "velocity": 0.7480314960629921,
          "duration": 0.2727269999999997
        },
        {
          "name": "F5",
          "midi": 77,
          "time": 26.999972999999983,
          "velocity": 0.7480314960629921,
          "duration": 0.5454539999999994
        },
        {
          "name": "G5",
          "midi": 79,
          "time": 27.545426999999982,
          "velocity": 0.7480314960629921,
          "duration": 0.8181809999999992
        },
        {
          "name": "A5",
          "midi": 81,
          "time": 28.90906199999998,
          "velocity": 0.7480314960629921,
          "duration": 0.2727269999999997
        },
        {
          "name": "A5",
          "midi": 81,
          "time": 29.18178899999998,
          "velocity": 0.7480314960629921,
          "duration": 0.2727269999999997
        },
        {
          "name": "A5",
          "midi": 81,
          "time": 29.45451599999998,
          "velocity": 0.7480314960629921,
          "duration": 0.2727269999999997
        },
        {
          "name": "A5",
          "midi": 81,
          "time": 29.72724299999998,
          "velocity": 0.7480314960629921,
          "duration": 0.2727269999999997
        },
        {
          "name": "A#5",
          "midi": 82,
          "time": 29.99996999999998,
          "velocity": 0.7480314960629921,
          "duration": 0.2727269999999997
        },
        {
          "name": "A5",
          "midi": 81,
          "time": 30.27269699999998,
          "velocity": 0.7480314960629921,
          "duration": 0.5454539999999994
        },
        {
          "name": "A5",
          "midi": 81,
          "time": 30.81815099999998,
          "velocity": 0.7480314960629921,
          "duration": 0.2727269999999997
        },
        {
          "name": "G5",
          "midi": 79,
          "time": 31.09087799999998,
          "velocity": 0.7480314960629921,
          "duration": 0.2727269999999997
        },
        {
          "name": "F5",
          "midi": 77,
          "time": 31.36360499999998,
          "velocity": 0.7480314960629921,
          "duration": 0.5454539999999994
        },
        {
          "name": "C5",
          "midi": 72,
          "time": 32.45451299999998,
          "velocity": 0.7480314960629921,
          "duration": 0.2727270000000033
        },
        {
          "name": "A5",
          "midi": 81,
          "time": 32.72723999999998,
          "velocity": 0.7480314960629921,
          "duration": 0.2727270000000033
        },
        {
          "name": "A5",
          "midi": 81,
          "time": 32.999966999999984,
          "velocity": 0.7480314960629921,
          "duration": 0.2727270000000033
        },
        {
          "name": "G5",
          "midi": 79,
          "time": 33.27269399999999,
          "velocity": 0.7480314960629921,
          "duration": 0.2727270000000033
        },
        {
          "name": "F5",
          "midi": 77,
          "time": 33.54542099999999,
          "velocity": 0.7480314960629921,
          "duration": 0.5454539999999994
        },
        {
          "name": "G5",
          "midi": 79,
          "time": 34.09087499999999,
          "velocity": 0.7480314960629921,
          "duration": 0.5454539999999994
        },
        {
          "name": "C5",
          "midi": 72,
          "time": 34.63632899999999,
          "velocity": 0.7480314960629921,
          "duration": 0.2727270000000033
        },
        {
          "name": "A5",
          "midi": 81,
          "time": 34.90905599999999,
          "velocity": 0.7480314960629921,
          "duration": 0.2727270000000033
        },
        {
          "name": "G5",
          "midi": 79,
          "time": 35.181782999999996,
          "velocity": 0.7480314960629921,
          "duration": 0.5454539999999994
        },
        {
          "name": "F5",
          "midi": 77,
          "time": 35.727236999999995,
          "velocity": 0.7480314960629921,
          "duration": 0.5454539999999994
        },
        {
          "name": "G5",
          "midi": 79,
          "time": 36.272690999999995,
          "velocity": 0.7480314960629921,
          "duration": 0.5454539999999994
        },
        {
          "name": "A5",
          "midi": 81,
          "time": 36.818144999999994,
          "velocity": 0.7480314960629921,
          "duration": 0.8181810000000027
        },
        {
          "name": "D5",
          "midi": 74,
          "time": 37.636326,
          "velocity": 0.7480314960629921,
          "duration": 0.2727270000000033
        },
        {
          "name": "D5",
          "midi": 74,
          "time": 37.909053,
          "velocity": 0.7480314960629921,
          "duration": 0.13636350000000164
        },
        {
          "name": "D5",
          "midi": 74,
          "time": 38.0454165,
          "velocity": 0.7480314960629921,
          "duration": 0.13636350000000164
        },
        {
          "name": "D5",
          "midi": 74,
          "time": 38.18178,
          "velocity": 0.7480314960629921,
          "duration": 0.2727270000000033
        },
        {
          "name": "D5",
          "midi": 74,
          "time": 38.45450700000001,
          "velocity": 0.7480314960629921,
          "duration": 0.13636350000000164
        },
        {
          "name": "D5",
          "midi": 74,
          "time": 38.59087050000001,
          "velocity": 0.7480314960629921,
          "duration": 0.2727270000000033
        },
        {
          "name": "D5",
          "midi": 74,
          "time": 38.86359750000001,
          "velocity": 0.7480314960629921,
          "duration": 0.2727270000000033
        },
        {
          "name": "D5",
          "midi": 74,
          "time": 39.136324500000015,
          "velocity": 0.7480314960629921,
          "duration": 0.13636350000000164
        },
        {
          "name": "D5",
          "midi": 74,
          "time": 39.27268800000002,
          "velocity": 0.7480314960629921,
          "duration": 0.2727270000000033
        },
        {
          "name": "D5",
          "midi": 74,
          "time": 39.54541500000002,
          "velocity": 0.7480314960629921,
          "duration": 0.13636350000000164
        },
        {
          "name": "D5",
          "midi": 74,
          "time": 39.68177850000002,
          "velocity": 0.7480314960629921,
          "duration": 0.13636350000000164
        },
        {
          "name": "D5",
          "midi": 74,
          "time": 39.81814200000002,
          "velocity": 0.7480314960629921,
          "duration": 0.2727270000000033
        },
        {
          "name": "D5",
          "midi": 74,
          "time": 40.090869000000026,
          "velocity": 0.7480314960629921,
          "duration": 0.8181810000000027
        },
        {
          "name": "A5",
          "midi": 81,
          "time": 40.90905000000003,
          "velocity": 0.7480314960629921,
          "duration": 0.2727270000000033
        },
        {
          "name": "A5",
          "midi": 81,
          "time": 41.18177700000003,
          "velocity": 0.7480314960629921,
          "duration": 0.2727270000000033
        },
        {
          "name": "D6",
          "midi": 86,
          "time": 41.454504000000036,
          "velocity": 0.7480314960629921,
          "duration": 0.2727270000000033
        },
        {
          "name": "D6",
          "midi": 86,
          "time": 41.72723100000004,
          "velocity": 0.7480314960629921,
          "duration": 0.2727270000000033
        },
        {
          "name": "C6",
          "midi": 84,
          "time": 41.99995800000004,
          "velocity": 0.7480314960629921,
          "duration": 0.2727270000000033
        },
        {
          "name": "A5",
          "midi": 81,
          "time": 42.272685000000045,
          "velocity": 0.7480314960629921,
          "duration": 0.5454539999999994
        },
        {
          "name": "A5",
          "midi": 81,
          "time": 42.818139000000045,
          "velocity": 0.7480314960629921,
          "duration": 0.2727270000000033
        },
        {
          "name": "A5",
          "midi": 81,
          "time": 43.09086600000005,
          "velocity": 0.7480314960629921,
          "duration": 0.2727270000000033
        },
        {
          "name": "A5",
          "midi": 81,
          "time": 43.36359300000005,
          "velocity": 0.7480314960629921,
          "duration": 0.2727270000000033
        },
        {
          "name": "D6",
          "midi": 86,
          "time": 43.636320000000055,
          "velocity": 0.7480314960629921,
          "duration": 0.2727270000000033
        },
        {
          "name": "D6",
          "midi": 86,
          "time": 43.90904700000006,
          "velocity": 0.7480314960629921,
          "duration": 0.2727270000000033
        },
        {
          "name": "C6",
          "midi": 84,
          "time": 44.18177400000006,
          "velocity": 0.7480314960629921,
          "duration": 0.2727270000000033
        },
        {
          "name": "A5",
          "midi": 81,
          "time": 44.454501000000064,
          "velocity": 0.7480314960629921,
          "duration": 0.5454539999999994
        },
        {
          "name": "A#5",
          "midi": 82,
          "time": 44.999955000000064,
          "velocity": 0.7480314960629921,
          "duration": 0.5454539999999994
        },
        {
          "name": "C6",
          "midi": 84,
          "time": 45.54540900000006,
          "velocity": 0.7480314960629921,
          "duration": 0.8181810000000027
        },
        {
          "name": "D5",
          "midi": 74,
          "time": 46.363590000000066,
          "velocity": 0.7480314960629921,
          "duration": 0.2727270000000033
        },
        {
          "name": "D5",
          "midi": 74,
          "time": 46.63631700000007,
          "velocity": 0.7480314960629921,
          "duration": 0.13636350000000164
        },
        {
          "name": "D5",
          "midi": 74,
          "time": 46.77268050000007,
          "velocity": 0.7480314960629921,
          "duration": 0.13636350000000164
        },
        {
          "name": "D5",
          "midi": 74,
          "time": 46.90904400000007,
          "velocity": 0.7480314960629921,
          "duration": 0.2727270000000033
        },
        {
          "name": "D5",
          "midi": 74,
          "time": 47.181771000000076,
          "velocity": 0.7480314960629921,
          "duration": 0.13636350000000164
        },
        {
          "name": "D5",
          "midi": 74,
          "time": 47.31813450000008,
          "velocity": 0.7480314960629921,
          "duration": 0.2727270000000033
        },
        {
          "name": "D5",
          "midi": 74,
          "time": 47.59086150000008,
          "velocity": 0.7480314960629921,
          "duration": 0.2727270000000033
        },
        {
          "name": "D5",
          "midi": 74,
          "time": 47.863588500000084,
          "velocity": 0.7480314960629921,
          "duration": 0.13636350000000164
        },
        {
          "name": "D5",
          "midi": 74,
          "time": 47.999952000000086,
          "velocity": 0.7480314960629921,
          "duration": 0.2727270000000033
        },
        {
          "name": "D5",
          "midi": 74,
          "time": 48.27267900000009,
          "velocity": 0.7480314960629921,
          "duration": 0.13636350000000164
        },
        {
          "name": "D5",
          "midi": 74,
          "time": 48.40904250000009,
          "velocity": 0.7480314960629921,
          "duration": 0.13636350000000164
        },
        {
          "name": "D5",
          "midi": 74,
          "time": 48.54540600000009,
          "velocity": 0.7480314960629921,
          "duration": 0.2727270000000033
        },
        {
          "name": "D5",
          "midi": 74,
          "time": 48.818133000000095,
          "velocity": 0.7480314960629921,
          "duration": 1.3636350000000022
        },
        {
          "name": "D6",
          "midi": 86,
          "time": 50.1817680000001,
          "velocity": 0.7480314960629921,
          "duration": 0.8181810000000027
        },
        {
          "name": "D5",
          "midi": 74,
          "time": 50.1817680000001,
          "velocity": 0.7480314960629921,
          "duration": 0.8181810000000027
        },
        {
          "name": "D4",
          "midi": 62,
          "time": 50.1817680000001,
          "velocity": 0.7480314960629921,
          "duration": 0.8181810000000027
        },
        {
          "name": "D6",
          "midi": 86,
          "time": 50.9999490000001,
          "velocity": 0.7480314960629921,
          "duration": 0.2727270000000033
        },
        {
          "name": "D5",
          "midi": 74,
          "time": 50.9999490000001,
          "velocity": 0.7480314960629921,
          "duration": 0.2727270000000033
        },
        {
          "name": "D4",
          "midi": 62,
          "time": 50.9999490000001,
          "velocity": 0.7480314960629921,
          "duration": 0.2727270000000033
        },
        {
          "name": "D6",
          "midi": 86,
          "time": 51.272676000000104,
          "velocity": 0.7480314960629921,
          "duration": 0.5454539999999994
        },
        {
          "name": "D5",
          "midi": 74,
          "time": 51.272676000000104,
          "velocity": 0.7480314960629921,
          "duration": 0.5454539999999994
        },
        {
          "name": "D4",
          "midi": 62,
          "time": 51.272676000000104,
          "velocity": 0.7480314960629921,
          "duration": 0.5454539999999994
        },
        {
          "name": "C6",
          "midi": 84,
          "time": 51.8181300000001,
          "velocity": 0.7480314960629921,
          "duration": 0.5454539999999994
        },
        {
          "name": "C5",
          "midi": 72,
          "time": 51.8181300000001,
          "velocity": 0.7480314960629921,
          "duration": 0.5454539999999994
        },
        {
          "name": "C4",
          "midi": 60,
          "time": 51.8181300000001,
          "velocity": 0.7480314960629921,
          "duration": 0.5454539999999994
        },
        {
          "name": "D6",
          "midi": 86,
          "time": 52.3635840000001,
          "velocity": 0.7480314960629921,
          "duration": 0.5454539999999994
        },
        {
          "name": "D5",
          "midi": 74,
          "time": 52.3635840000001,
          "velocity": 0.7480314960629921,
          "duration": 0.5454539999999994
        },
        {
          "name": "D4",
          "midi": 62,
          "time": 52.3635840000001,
          "velocity": 0.7480314960629921,
          "duration": 0.5454539999999994
        },
        {
          "name": "D6",
          "midi": 86,
          "time": 52.9090380000001,
          "velocity": 0.7480314960629921,
          "duration": 0.2727270000000033
        },
        {
          "name": "D5",
          "midi": 74,
          "time": 52.9090380000001,
          "velocity": 0.7480314960629921,
          "duration": 0.2727270000000033
        },
        {
          "name": "D4",
          "midi": 62,
          "time": 52.9090380000001,
          "velocity": 0.7480314960629921,
          "duration": 0.2727270000000033
        },
        {
          "name": "D6",
          "midi": 86,
          "time": 53.181765000000105,
          "velocity": 0.7480314960629921,
          "duration": 0.2727270000000033
        },
        {
          "name": "D5",
          "midi": 74,
          "time": 53.181765000000105,
          "velocity": 0.7480314960629921,
          "duration": 0.2727270000000033
        },
        {
          "name": "D4",
          "midi": 62,
          "time": 53.181765000000105,
          "velocity": 0.7480314960629921,
          "duration": 0.2727270000000033
        },
        {
          "name": "D6",
          "midi": 86,
          "time": 53.45449200000011,
          "velocity": 0.7480314960629921,
          "duration": 0.5454539999999994
        },
        {
          "name": "D5",
          "midi": 74,
          "time": 53.45449200000011,
          "velocity": 0.7480314960629921,
          "duration": 0.5454539999999994
        },
        {
          "name": "D4",
          "midi": 62,
          "time": 53.45449200000011,
          "velocity": 0.7480314960629921,
          "duration": 0.5454539999999994
        },
        {
          "name": "E6",
          "midi": 88,
          "time": 53.99994600000011,
          "velocity": 0.7480314960629921,
          "duration": 0.5454539999999994
        },
        {
          "name": "E5",
          "midi": 76,
          "time": 53.99994600000011,
          "velocity": 0.7480314960629921,
          "duration": 0.5454539999999994
        },
        {
          "name": "E4",
          "midi": 64,
          "time": 53.99994600000011,
          "velocity": 0.7480314960629921,
          "duration": 0.5454539999999994
        },
        {
          "name": "C6",
          "midi": 84,
          "time": 54.54540000000011,
          "velocity": 0.7480314960629921,
          "duration": 0.5454539999999994
        },
        {
          "name": "C5",
          "midi": 72,
          "time": 54.54540000000011,
          "velocity": 0.7480314960629921,
          "duration": 0.5454539999999994
        },
        {
          "name": "C4",
          "midi": 60,
          "time": 54.54540000000011,
          "velocity": 0.7480314960629921,
          "duration": 0.5454539999999994
        },
        {
          "name": "D6",
          "midi": 86,
          "time": 55.09085400000011,
          "velocity": 0.7480314960629921,
          "duration": 0.2727270000000033
        },
        {
          "name": "D5",
          "midi": 74,
          "time": 55.09085400000011,
          "velocity": 0.7480314960629921,
          "duration": 0.2727270000000033
        },
        {
          "name": "D4",
          "midi": 62,
          "time": 55.09085400000011,
          "velocity": 0.7480314960629921,
          "duration": 0.2727270000000033
        },
        {
          "name": "D6",
          "midi": 86,
          "time": 55.36358100000011,
          "velocity": 0.7480314960629921,
          "duration": 0.2727270000000033
        },
        {
          "name": "D5",
          "midi": 74,
          "time": 55.36358100000011,
          "velocity": 0.7480314960629921,
          "duration": 0.2727270000000033
        },
        {
          "name": "D4",
          "midi": 62,
          "time": 55.36358100000011,
          "velocity": 0.7480314960629921,
          "duration": 0.2727270000000033
        },
        {
          "name": "D6",
          "midi": 86,
          "time": 55.63630800000011,
          "velocity": 0.7480314960629921,
          "duration": 0.5454539999999994
        },
        {
          "name": "D5",
          "midi": 74,
          "time": 55.63630800000011,
          "velocity": 0.7480314960629921,
          "duration": 0.5454539999999994
        },
        {
          "name": "D4",
          "midi": 62,
          "time": 55.63630800000011,
          "velocity": 0.7480314960629921,
          "duration": 0.5454539999999994
        },
        {
          "name": "C6",
          "midi": 84,
          "time": 56.18176200000011,
          "velocity": 0.7480314960629921,
          "duration": 0.5454539999999994
        },
        {
          "name": "C5",
          "midi": 72,
          "time": 56.18176200000011,
          "velocity": 0.7480314960629921,
          "duration": 0.5454539999999994
        },
        {
          "name": "C4",
          "midi": 60,
          "time": 56.18176200000011,
          "velocity": 0.7480314960629921,
          "duration": 0.5454539999999994
        },
        {
          "name": "D6",
          "midi": 86,
          "time": 56.72721600000011,
          "velocity": 0.7480314960629921,
          "duration": 0.5454539999999994
        },
        {
          "name": "D5",
          "midi": 74,
          "time": 56.72721600000011,
          "velocity": 0.7480314960629921,
          "duration": 0.5454539999999994
        },
        {
          "name": "D4",
          "midi": 62,
          "time": 56.72721600000011,
          "velocity": 0.7480314960629921,
          "duration": 0.5454539999999994
        },
        {
          "name": "D6",
          "midi": 86,
          "time": 57.27267000000011,
          "velocity": 0.7480314960629921,
          "duration": 0.2727270000000033
        },
        {
          "name": "D5",
          "midi": 74,
          "time": 57.27267000000011,
          "velocity": 0.7480314960629921,
          "duration": 0.2727270000000033
        },
        {
          "name": "D4",
          "midi": 62,
          "time": 57.27267000000011,
          "velocity": 0.7480314960629921,
          "duration": 0.2727270000000033
        },
        {
          "name": "D6",
          "midi": 86,
          "time": 57.545397000000115,
          "velocity": 0.7480314960629921,
          "duration": 0.2727270000000033
        },
        {
          "name": "D5",
          "midi": 74,
          "time": 57.545397000000115,
          "velocity": 0.7480314960629921,
          "duration": 0.2727270000000033
        },
        {
          "name": "D4",
          "midi": 62,
          "time": 57.545397000000115,
          "velocity": 0.7480314960629921,
          "duration": 0.2727270000000033
        },
        {
          "name": "D6",
          "midi": 86,
          "time": 57.81812400000012,
          "velocity": 0.7480314960629921,
          "duration": 0.5454539999999994
        },
        {
          "name": "D5",
          "midi": 74,
          "time": 57.81812400000012,
          "velocity": 0.7480314960629921,
          "duration": 0.5454539999999994
        },
        {
          "name": "D4",
          "midi": 62,
          "time": 57.81812400000012,
          "velocity": 0.7480314960629921,
          "duration": 0.5454539999999994
        },
        {
          "name": "C6",
          "midi": 84,
          "time": 58.36357800000012,
          "velocity": 0.7480314960629921,
          "duration": 0.5454539999999994
        },
        {
          "name": "C5",
          "midi": 72,
          "time": 58.36357800000012,
          "velocity": 0.7480314960629921,
          "duration": 0.5454539999999994
        },
        {
          "name": "C4",
          "midi": 60,
          "time": 58.36357800000012,
          "velocity": 0.7480314960629921,
          "duration": 0.5454539999999994
        },
        {
          "name": "D6",
          "midi": 86,
          "time": 58.90903200000012,
          "velocity": 0.7480314960629921,
          "duration": 0.5454539999999994
        },
        {
          "name": "D5",
          "midi": 74,
          "time": 58.90903200000012,
          "velocity": 0.7480314960629921,
          "duration": 0.5454539999999994
        },
        {
          "name": "D4",
          "midi": 62,
          "time": 58.90903200000012,
          "velocity": 0.7480314960629921,
          "duration": 0.5454539999999994
        },
        {
          "name": "D6",
          "midi": 86,
          "time": 59.45448600000012,
          "velocity": 0.7480314960629921,
          "duration": 0.2727270000000033
        },
        {
          "name": "D5",
          "midi": 74,
          "time": 59.45448600000012,
          "velocity": 0.7480314960629921,
          "duration": 0.2727270000000033
        },
        {
          "name": "D4",
          "midi": 62,
          "time": 59.45448600000012,
          "velocity": 0.7480314960629921,
          "duration": 0.2727270000000033
        },
        {
          "name": "D6",
          "midi": 86,
          "time": 59.72721300000012,
          "velocity": 0.7480314960629921,
          "duration": 0.2727270000000033
        },
        {
          "name": "D5",
          "midi": 74,
          "time": 59.72721300000012,
          "velocity": 0.7480314960629921,
          "duration": 0.2727270000000033
        },
        {
          "name": "D4",
          "midi": 62,
          "time": 59.72721300000012,
          "velocity": 0.7480314960629921,
          "duration": 0.2727270000000033
        },
        {
          "name": "D6",
          "midi": 86,
          "time": 59.99994000000012,
          "velocity": 0.7480314960629921,
          "duration": 0.5454539999999994
        },
        {
          "name": "D5",
          "midi": 74,
          "time": 59.99994000000012,
          "velocity": 0.7480314960629921,
          "duration": 0.5454539999999994
        },
        {
          "name": "D4",
          "midi": 62,
          "time": 59.99994000000012,
          "velocity": 0.7480314960629921,
          "duration": 0.5454539999999994
        },
        {
          "name": "C6",
          "midi": 84,
          "time": 60.54539400000012,
          "velocity": 0.7480314960629921,
          "duration": 0.5454539999999994
        },
        {
          "name": "C5",
          "midi": 72,
          "time": 60.54539400000012,
          "velocity": 0.7480314960629921,
          "duration": 0.5454539999999994
        },
        {
          "name": "C4",
          "midi": 60,
          "time": 60.54539400000012,
          "velocity": 0.7480314960629921,
          "duration": 0.5454539999999994
        },
        {
          "name": "D6",
          "midi": 86,
          "time": 61.09084800000012,
          "velocity": 0.7480314960629921,
          "duration": 0.5454539999999994
        },
        {
          "name": "D5",
          "midi": 74,
          "time": 61.09084800000012,
          "velocity": 0.7480314960629921,
          "duration": 0.5454539999999994
        },
        {
          "name": "D4",
          "midi": 62,
          "time": 61.09084800000012,
          "velocity": 0.7480314960629921,
          "duration": 0.5454539999999994
        },
        {
          "name": "D6",
          "midi": 86,
          "time": 61.63630200000012,
          "velocity": 0.7480314960629921,
          "duration": 0.2727270000000033
        },
        {
          "name": "D5",
          "midi": 74,
          "time": 61.63630200000012,
          "velocity": 0.7480314960629921,
          "duration": 0.2727270000000033
        },
        {
          "name": "D4",
          "midi": 62,
          "time": 61.63630200000012,
          "velocity": 0.7480314960629921,
          "duration": 0.2727270000000033
        },
        {
          "name": "D6",
          "midi": 86,
          "time": 61.909029000000125,
          "velocity": 0.7480314960629921,
          "duration": 0.2727270000000033
        },
        {
          "name": "D5",
          "midi": 74,
          "time": 61.909029000000125,
          "velocity": 0.7480314960629921,
          "duration": 0.2727270000000033
        },
        {
          "name": "D4",
          "midi": 62,
          "time": 61.909029000000125,
          "velocity": 0.7480314960629921,
          "duration": 0.2727270000000033
        },
        {
          "name": "D6",
          "midi": 86,
          "time": 62.18175600000013,
          "velocity": 0.7480314960629921,
          "duration": 0.5454539999999994
        },
        {
          "name": "D5",
          "midi": 74,
          "time": 62.18175600000013,
          "velocity": 0.7480314960629921,
          "duration": 0.5454539999999994
        },
        {
          "name": "D4",
          "midi": 62,
          "time": 62.18175600000013,
          "velocity": 0.7480314960629921,
          "duration": 0.5454539999999994
        },
        {
          "name": "E6",
          "midi": 88,
          "time": 62.72721000000013,
          "velocity": 0.7480314960629921,
          "duration": 0.5454539999999994
        },
        {
          "name": "E5",
          "midi": 76,
          "time": 62.72721000000013,
          "velocity": 0.7480314960629921,
          "duration": 0.5454539999999994
        },
        {
          "name": "E4",
          "midi": 64,
          "time": 62.72721000000013,
          "velocity": 0.7480314960629921,
          "duration": 0.5454539999999994
        },
        {
          "name": "C6",
          "midi": 84,
          "time": 63.27266400000013,
          "velocity": 0.7480314960629921,
          "duration": 0.5454539999999994
        },
        {
          "name": "C5",
          "midi": 72,
          "time": 63.27266400000013,
          "velocity": 0.7480314960629921,
          "duration": 0.5454539999999994
        },
        {
          "name": "C4",
          "midi": 60,
          "time": 63.27266400000013,
          "velocity": 0.7480314960629921,
          "duration": 0.5454539999999994
        },
        {
          "name": "D6",
          "midi": 86,
          "time": 63.818118000000126,
          "velocity": 0.7480314960629921,
          "duration": 0.2727270000000033
        },
        {
          "name": "D5",
          "midi": 74,
          "time": 63.818118000000126,
          "velocity": 0.7480314960629921,
          "duration": 0.2727270000000033
        },
        {
          "name": "D4",
          "midi": 62,
          "time": 63.818118000000126,
          "velocity": 0.7480314960629921,
          "duration": 0.2727270000000033
        },
        {
          "name": "D6",
          "midi": 86,
          "time": 64.09084500000013,
          "velocity": 0.7480314960629921,
          "duration": 0.2727270000000033
        },
        {
          "name": "D5",
          "midi": 74,
          "time": 64.09084500000013,
          "velocity": 0.7480314960629921,
          "duration": 0.2727270000000033
        },
        {
          "name": "D4",
          "midi": 62,
          "time": 64.09084500000013,
          "velocity": 0.7480314960629921,
          "duration": 0.2727270000000033
        },
        {
          "name": "D6",
          "midi": 86,
          "time": 64.36357200000013,
          "velocity": 0.7480314960629921,
          "duration": 0.5454540000000065
        },
        {
          "name": "D5",
          "midi": 74,
          "time": 64.36357200000013,
          "velocity": 0.7480314960629921,
          "duration": 0.5454540000000065
        },
        {
          "name": "D4",
          "midi": 62,
          "time": 64.36357200000013,
          "velocity": 0.7480314960629921,
          "duration": 0.5454540000000065
        },
        {
          "name": "C6",
          "midi": 84,
          "time": 64.90902600000014,
          "velocity": 0.7480314960629921,
          "duration": 0.5454540000000065
        },
        {
          "name": "C5",
          "midi": 72,
          "time": 64.90902600000014,
          "velocity": 0.7480314960629921,
          "duration": 0.5454540000000065
        },
        {
          "name": "C4",
          "midi": 60,
          "time": 64.90902600000014,
          "velocity": 0.7480314960629921,
          "duration": 0.5454540000000065
        },
        {
          "name": "D6",
          "midi": 86,
          "time": 65.45448000000015,
          "velocity": 0.7480314960629921,
          "duration": 0.5454540000000065
        },
        {
          "name": "D5",
          "midi": 74,
          "time": 65.45448000000015,
          "velocity": 0.7480314960629921,
          "duration": 0.5454540000000065
        },
        {
          "name": "D4",
          "midi": 62,
          "time": 65.45448000000015,
          "velocity": 0.7480314960629921,
          "duration": 0.5454540000000065
        },
        {
          "name": "D6",
          "midi": 86,
          "time": 65.99993400000015,
          "velocity": 0.7480314960629921,
          "duration": 0.2727270000000033
        },
        {
          "name": "D5",
          "midi": 74,
          "time": 65.99993400000015,
          "velocity": 0.7480314960629921,
          "duration": 0.2727270000000033
        },
        {
          "name": "D4",
          "midi": 62,
          "time": 65.99993400000015,
          "velocity": 0.7480314960629921,
          "duration": 0.2727270000000033
        },
        {
          "name": "D6",
          "midi": 86,
          "time": 66.27266100000016,
          "velocity": 0.7480314960629921,
          "duration": 0.2727270000000033
        },
        {
          "name": "D5",
          "midi": 74,
          "time": 66.27266100000016,
          "velocity": 0.7480314960629921,
          "duration": 0.2727270000000033
        },
        {
          "name": "D4",
          "midi": 62,
          "time": 66.27266100000016,
          "velocity": 0.7480314960629921,
          "duration": 0.2727270000000033
        },
        {
          "name": "D6",
          "midi": 86,
          "time": 66.54538800000016,
          "velocity": 0.7480314960629921,
          "duration": 0.5454540000000065
        },
        {
          "name": "D5",
          "midi": 74,
          "time": 66.54538800000016,
          "velocity": 0.7480314960629921,
          "duration": 0.5454540000000065
        },
        {
          "name": "D4",
          "midi": 62,
          "time": 66.54538800000016,
          "velocity": 0.7480314960629921,
          "duration": 0.5454540000000065
        },
        {
          "name": "C6",
          "midi": 84,
          "time": 67.09084200000017,
          "velocity": 0.7480314960629921,
          "duration": 0.5454540000000065
        },
        {
          "name": "C5",
          "midi": 72,
          "time": 67.09084200000017,
          "velocity": 0.7480314960629921,
          "duration": 0.5454540000000065
        },
        {
          "name": "C4",
          "midi": 60,
          "time": 67.09084200000017,
          "velocity": 0.7480314960629921,
          "duration": 0.5454540000000065
        },
        {
          "name": "D6",
          "midi": 86,
          "time": 67.63629600000017,
          "velocity": 0.7480314960629921,
          "duration": 0.5454540000000065
        },
        {
          "name": "D5",
          "midi": 74,
          "time": 67.63629600000017,
          "velocity": 0.7480314960629921,
          "duration": 0.5454540000000065
        },
        {
          "name": "D4",
          "midi": 62,
          "time": 67.63629600000017,
          "velocity": 0.7480314960629921,
          "duration": 0.5454540000000065
        },
        {
          "name": "D6",
          "midi": 86,
          "time": 68.18175000000018,
          "velocity": 0.7480314960629921,
          "duration": 0.2727270000000033
        },
        {
          "name": "D6",
          "midi": 86,
          "time": 68.45447700000018,
          "velocity": 0.7480314960629921,
          "duration": 0.2727270000000033
        },
        {
          "name": "D6",
          "midi": 86,
          "time": 68.72720400000019,
          "velocity": 0.7480314960629921,
          "duration": 0.2727270000000033
        },
        {
          "name": "D6",
          "midi": 86,
          "time": 68.99993100000019,
          "velocity": 0.7480314960629921,
          "duration": 0.2727270000000033
        },
        {
          "name": "C6",
          "midi": 84,
          "time": 69.27265800000019,
          "velocity": 0.7480314960629921,
          "duration": 0.2727270000000033
        },
        {
          "name": "D6",
          "midi": 86,
          "time": 69.5453850000002,
          "velocity": 0.7480314960629921,
          "duration": 0.5454540000000065
        },
        {
          "name": "C6",
          "midi": 84,
          "time": 70.0908390000002,
          "velocity": 0.7480314960629921,
          "duration": 0.2727270000000033
        },
        {
          "name": "C6",
          "midi": 84,
          "time": 70.3635660000002,
          "velocity": 0.7480314960629921,
          "duration": 0.2727270000000033
        },
        {
          "name": "C6",
          "midi": 84,
          "time": 70.63629300000021,
          "velocity": 0.7480314960629921,
          "duration": 1.3636350000000022
        },
        {
          "name": "D6",
          "midi": 86,
          "time": 71.99992800000021,
          "velocity": 0.7480314960629921,
          "duration": 0.2727270000000033
        },
        {
          "name": "C6",
          "midi": 84,
          "time": 72.27265500000021,
          "velocity": 0.7480314960629921,
          "duration": 0.2727270000000033
        },
        {
          "name": "C6",
          "midi": 84,
          "time": 72.54538200000022,
          "velocity": 0.7480314960629921,
          "duration": 0.2727270000000033
        },
        {
          "name": "C6",
          "midi": 84,
          "time": 72.81810900000022,
          "velocity": 0.7480314960629921,
          "duration": 0.5454540000000065
        },
        {
          "name": "A5",
          "midi": 81,
          "time": 73.36356300000023,
          "velocity": 0.7480314960629921,
          "duration": 0.5454540000000065
        },
        {
          "name": "A5",
          "midi": 81,
          "time": 73.90901700000023,
          "velocity": 0.7480314960629921,
          "duration": 0.2727270000000033
        },
        {
          "name": "A#5",
          "midi": 82,
          "time": 74.18174400000024,
          "velocity": 0.7480314960629921,
          "duration": 0.2727270000000033
        },
        {
          "name": "A5",
          "midi": 81,
          "time": 74.45447100000024,
          "velocity": 0.7480314960629921,
          "duration": 0.5454540000000065
        },
        {
          "name": "G5",
          "midi": 79,
          "time": 74.99992500000025,
          "velocity": 0.7480314960629921,
          "duration": 0.5454540000000065
        },
        {
          "name": "A5",
          "midi": 81,
          "time": 75.54537900000025,
          "velocity": 0.7480314960629921,
          "duration": 0.5454540000000065
        },
        {
          "name": "A5",
          "midi": 81,
          "time": 76.09083300000026,
          "velocity": 0.7480314960629921,
          "duration": 0.5454540000000065
        },
        {
          "name": "F5",
          "midi": 77,
          "time": 76.63628700000027,
          "velocity": 0.7480314960629921,
          "duration": 0.2727270000000033
        },
        {
          "name": "A5",
          "midi": 81,
          "time": 76.90901400000027,
          "velocity": 0.7480314960629921,
          "duration": 0.2727270000000033
        },
        {
          "name": "A5",
          "midi": 81,
          "time": 77.18174100000027,
          "velocity": 0.7480314960629921,
          "duration": 0.2727270000000033
        },
        {
          "name": "A5",
          "midi": 81,
          "time": 77.45446800000028,
          "velocity": 0.7480314960629921,
          "duration": 0.2727270000000033
        },
        {
          "name": "A5",
          "midi": 81,
          "time": 77.72719500000028,
          "velocity": 0.7480314960629921,
          "duration": 0.2727270000000033
        },
        {
          "name": "A#5",
          "midi": 82,
          "time": 77.99992200000028,
          "velocity": 0.7480314960629921,
          "duration": 0.2727270000000033
        },
        {
          "name": "A5",
          "midi": 81,
          "time": 78.27264900000029,
          "velocity": 0.7480314960629921,
          "duration": 0.5454540000000065
        },
        {
          "name": "A5",
          "midi": 81,
          "time": 78.81810300000029,
          "velocity": 0.7480314960629921,
          "duration": 0.2727270000000033
        },
        {
          "name": "G5",
          "midi": 79,
          "time": 79.0908300000003,
          "velocity": 0.7480314960629921,
          "duration": 0.2727270000000033
        },
        {
          "name": "F5",
          "midi": 77,
          "time": 79.3635570000003,
          "velocity": 0.7480314960629921,
          "duration": 0.5454540000000065
        },
        {
          "name": "C5",
          "midi": 72,
          "time": 80.45446500000031,
          "velocity": 0.7480314960629921,
          "duration": 0.2727270000000033
        },
        {
          "name": "A5",
          "midi": 81,
          "time": 80.72719200000031,
          "velocity": 0.7480314960629921,
          "duration": 0.2727270000000033
        },
        {
          "name": "A5",
          "midi": 81,
          "time": 80.99991900000032,
          "velocity": 0.7480314960629921,
          "duration": 0.2727270000000033
        },
        {
          "name": "G5",
          "midi": 79,
          "time": 81.27264600000032,
          "velocity": 0.7480314960629921,
          "duration": 0.2727270000000033
        },
        {
          "name": "F5",
          "midi": 77,
          "time": 81.54537300000032,
          "velocity": 0.7480314960629921,
          "duration": 1.3636350000000022
        },
        {
          "name": "A5",
          "midi": 81,
          "time": 82.90900800000033,
          "velocity": 0.7480314960629921,
          "duration": 0.2727270000000033
        },
        {
          "name": "G5",
          "midi": 79,
          "time": 83.18173500000033,
          "velocity": 0.7480314960629921,
          "duration": 0.5454540000000065
        },
        {
          "name": "F5",
          "midi": 77,
          "time": 83.72718900000034,
          "velocity": 0.7480314960629921,
          "duration": 0.5454540000000065
        },
        {
          "name": "G5",
          "midi": 79,
          "time": 84.27264300000034,
          "velocity": 0.7480314960629921,
          "duration": 0.5454540000000065
        },
        {
          "name": "A5",
          "midi": 81,
          "time": 84.81809700000035,
          "velocity": 0.7480314960629921,
          "duration": 0.8181809999999956
        },
        {
          "name": "D5",
          "midi": 74,
          "time": 85.63627800000035,
          "velocity": 0.7480314960629921,
          "duration": 0.2727270000000033
        },
        {
          "name": "D5",
          "midi": 74,
          "time": 85.90900500000035,
          "velocity": 0.7480314960629921,
          "duration": 0.13636350000000164
        },
        {
          "name": "D5",
          "midi": 74,
          "time": 86.04536850000035,
          "velocity": 0.7480314960629921,
          "duration": 0.13636350000000164
        },
        {
          "name": "D5",
          "midi": 74,
          "time": 86.18173200000035,
          "velocity": 0.7480314960629921,
          "duration": 0.2727270000000033
        },
        {
          "name": "D5",
          "midi": 74,
          "time": 86.45445900000036,
          "velocity": 0.7480314960629921,
          "duration": 0.13636350000000164
        },
        {
          "name": "D5",
          "midi": 74,
          "time": 86.59082250000036,
          "velocity": 0.7480314960629921,
          "duration": 0.2727270000000033
        },
        {
          "name": "D5",
          "midi": 74,
          "time": 86.86354950000036,
          "velocity": 0.7480314960629921,
          "duration": 0.2727270000000033
        },
        {
          "name": "D5",
          "midi": 74,
          "time": 87.13627650000036,
          "velocity": 0.7480314960629921,
          "duration": 0.13636350000000164
        },
        {
          "name": "D5",
          "midi": 74,
          "time": 87.27264000000037,
          "velocity": 0.7480314960629921,
          "duration": 0.2727270000000033
        },
        {
          "name": "D5",
          "midi": 74,
          "time": 87.54536700000037,
          "velocity": 0.7480314960629921,
          "duration": 0.13636350000000164
        },
        {
          "name": "D5",
          "midi": 74,
          "time": 87.68173050000037,
          "velocity": 0.7480314960629921,
          "duration": 0.13636350000000164
        },
        {
          "name": "D5",
          "midi": 74,
          "time": 87.81809400000037,
          "velocity": 0.7480314960629921,
          "duration": 0.2727270000000033
        },
        {
          "name": "D5",
          "midi": 74,
          "time": 88.09082100000037,
          "velocity": 0.7480314960629921,
          "duration": 0.8181809999999956
        },
        {
          "name": "A5",
          "midi": 81,
          "time": 88.90900200000037,
          "velocity": 0.7480314960629921,
          "duration": 0.2727270000000033
        },
        {
          "name": "A5",
          "midi": 81,
          "time": 89.18172900000037,
          "velocity": 0.7480314960629921,
          "duration": 0.2727270000000033
        },
        {
          "name": "D6",
          "midi": 86,
          "time": 89.45445600000038,
          "velocity": 0.7480314960629921,
          "duration": 0.2727270000000033
        },
        {
          "name": "D6",
          "midi": 86,
          "time": 89.72718300000038,
          "velocity": 0.7480314960629921,
          "duration": 0.2727270000000033
        },
        {
          "name": "C6",
          "midi": 84,
          "time": 89.99991000000038,
          "velocity": 0.7480314960629921,
          "duration": 0.2727270000000033
        },
        {
          "name": "A5",
          "midi": 81,
          "time": 90.27263700000039,
          "velocity": 0.7480314960629921,
          "duration": 0.5454540000000065
        },
        {
          "name": "A5",
          "midi": 81,
          "time": 90.8180910000004,
          "velocity": 0.7480314960629921,
          "duration": 0.2727270000000033
        },
        {
          "name": "A5",
          "midi": 81,
          "time": 91.0908180000004,
          "velocity": 0.7480314960629921,
          "duration": 0.2727270000000033
        },
        {
          "name": "A5",
          "midi": 81,
          "time": 91.3635450000004,
          "velocity": 0.7480314960629921,
          "duration": 0.2727270000000033
        },
        {
          "name": "D6",
          "midi": 86,
          "time": 91.6362720000004,
          "velocity": 0.7480314960629921,
          "duration": 0.2727270000000033
        },
        {
          "name": "D6",
          "midi": 86,
          "time": 91.9089990000004,
          "velocity": 0.7480314960629921,
          "duration": 0.2727270000000033
        },
        {
          "name": "C6",
          "midi": 84,
          "time": 92.18172600000041,
          "velocity": 0.7480314960629921,
          "duration": 0.2727270000000033
        },
        {
          "name": "A5",
          "midi": 81,
          "time": 92.45445300000041,
          "velocity": 0.7480314960629921,
          "duration": 0.5454540000000065
        },
        {
          "name": "A#5",
          "midi": 82,
          "time": 92.99990700000042,
          "velocity": 0.7480314960629921,
          "duration": 0.5454540000000065
        },
        {
          "name": "C6",
          "midi": 84,
          "time": 93.54536100000043,
          "velocity": 0.7480314960629921,
          "duration": 0.8181809999999956
        },
        {
          "name": "D5",
          "midi": 74,
          "time": 94.36354200000042,
          "velocity": 0.7480314960629921,
          "duration": 0.2727270000000033
        },
        {
          "name": "D5",
          "midi": 74,
          "time": 94.63626900000042,
          "velocity": 0.7480314960629921,
          "duration": 0.13636350000000164
        },
        {
          "name": "D5",
          "midi": 74,
          "time": 94.77263250000043,
          "velocity": 0.7480314960629921,
          "duration": 0.13636350000000164
        },
        {
          "name": "D5",
          "midi": 74,
          "time": 94.90899600000043,
          "velocity": 0.7480314960629921,
          "duration": 0.2727270000000033
        },
        {
          "name": "D5",
          "midi": 74,
          "time": 95.18172300000043,
          "velocity": 0.7480314960629921,
          "duration": 0.13636350000000164
        },
        {
          "name": "D5",
          "midi": 74,
          "time": 95.31808650000043,
          "velocity": 0.7480314960629921,
          "duration": 0.2727270000000033
        },
        {
          "name": "D5",
          "midi": 74,
          "time": 95.59081350000044,
          "velocity": 0.7480314960629921,
          "duration": 0.2727270000000033
        },
        {
          "name": "D5",
          "midi": 74,
          "time": 95.86354050000044,
          "velocity": 0.7480314960629921,
          "duration": 0.13636350000000164
        },
        {
          "name": "D5",
          "midi": 74,
          "time": 95.99990400000044,
          "velocity": 0.7480314960629921,
          "duration": 0.2727270000000033
        },
        {
          "name": "D5",
          "midi": 74,
          "time": 96.27263100000044,
          "velocity": 0.7480314960629921,
          "duration": 0.13636350000000164
        },
        {
          "name": "D5",
          "midi": 74,
          "time": 96.40899450000045,
          "velocity": 0.7480314960629921,
          "duration": 0.13636350000000164
        },
        {
          "name": "D5",
          "midi": 74,
          "time": 96.54535800000045,
          "velocity": 0.7480314960629921,
          "duration": 0.2727270000000033
        },
        {
          "name": "D5",
          "midi": 74,
          "time": 96.81808500000045,
          "velocity": 0.7480314960629921,
          "duration": 0.5454540000000065
        },
        {
          "name": "A5",
          "midi": 81,
          "time": 97.36353900000046,
          "velocity": 0.7480314960629921,
          "duration": 0.2727270000000033
        },
        {
          "name": "A5",
          "midi": 81,
          "time": 97.63626600000046,
          "velocity": 0.7480314960629921,
          "duration": 0.2727270000000033
        },
        {
          "name": "A5",
          "midi": 81,
          "time": 97.90899300000046,
          "velocity": 0.7480314960629921,
          "duration": 0.2727270000000033
        },
        {
          "name": "D6",
          "midi": 86,
          "time": 98.18172000000047,
          "velocity": 0.7480314960629921,
          "duration": 0.2727270000000033
        },
        {
          "name": "D6",
          "midi": 86,
          "time": 98.45444700000047,
          "velocity": 0.7480314960629921,
          "duration": 0.2727270000000033
        },
        {
          "name": "C6",
          "midi": 84,
          "time": 98.72717400000047,
          "velocity": 0.7480314960629921,
          "duration": 0.2727270000000033
        },
        {
          "name": "A5",
          "midi": 81,
          "time": 98.99990100000048,
          "velocity": 0.7480314960629921,
          "duration": 0.5454540000000065
        },
        {
          "name": "A5",
          "midi": 81,
          "time": 99.54535500000048,
          "velocity": 0.7480314960629921,
          "duration": 0.2727270000000033
        },
        {
          "name": "A5",
          "midi": 81,
          "time": 99.81808200000049,
          "velocity": 0.7480314960629921,
          "duration": 0.2727270000000033
        },
        {
          "name": "A5",
          "midi": 81,
          "time": 100.09080900000049,
          "velocity": 0.7480314960629921,
          "duration": 0.2727270000000033
        },
        {
          "name": "F6",
          "midi": 89,
          "time": 100.3635360000005,
          "velocity": 0.7480314960629921,
          "duration": 0.4090905000000049
        },
        {
          "name": "F5",
          "midi": 77,
          "time": 100.3635360000005,
          "velocity": 0.7480314960629921,
          "duration": 0.4090905000000049
        },
        {
          "name": "F4",
          "midi": 65,
          "time": 100.3635360000005,
          "velocity": 0.7480314960629921,
          "duration": 0.4090905000000049
        },
        {
          "name": "E6",
          "midi": 88,
          "time": 100.7726265000005,
          "velocity": 0.7480314960629921,
          "duration": 0.4090905000000049
        },
        {
          "name": "E5",
          "midi": 76,
          "time": 100.7726265000005,
          "velocity": 0.7480314960629921,
          "duration": 0.4090905000000049
        },
        {
          "name": "E4",
          "midi": 64,
          "time": 100.7726265000005,
          "velocity": 0.7480314960629921,
          "duration": 0.4090905000000049
        },
        {
          "name": "F6",
          "midi": 89,
          "time": 101.1817170000005,
          "velocity": 0.7480314960629921,
          "duration": 0.8181809999999956
        },
        {
          "name": "F5",
          "midi": 77,
          "time": 101.1817170000005,
          "velocity": 0.7480314960629921,
          "duration": 0.8181809999999956
        },
        {
          "name": "F4",
          "midi": 65,
          "time": 101.1817170000005,
          "velocity": 0.7480314960629921,
          "duration": 0.8181809999999956
        },
        {
          "name": "E6",
          "midi": 88,
          "time": 101.9998980000005,
          "velocity": 0.7480314960629921,
          "duration": 0.5454540000000065
        },
        {
          "name": "E5",
          "midi": 76,
          "time": 101.9998980000005,
          "velocity": 0.7480314960629921,
          "duration": 0.5454540000000065
        },
        {
          "name": "E4",
          "midi": 64,
          "time": 101.9998980000005,
          "velocity": 0.7480314960629921,
          "duration": 0.5454540000000065
        },
        {
          "name": "D6",
          "midi": 86,
          "time": 102.5453520000005,
          "velocity": 0.7480314960629921,
          "duration": 0.8181809999999956
        },
        {
          "name": "D5",
          "midi": 74,
          "time": 102.5453520000005,
          "velocity": 0.7480314960629921,
          "duration": 0.8181809999999956
        },
        {
          "name": "D4",
          "midi": 62,
          "time": 102.5453520000005,
          "velocity": 0.7480314960629921,
          "duration": 0.8181809999999956
        },
        {
          "name": "D6",
          "midi": 86,
          "time": 103.3635330000005,
          "velocity": 0.7480314960629921,
          "duration": 0.2727270000000033
        },
        {
          "name": "D5",
          "midi": 74,
          "time": 103.3635330000005,
          "velocity": 0.7480314960629921,
          "duration": 0.2727270000000033
        },
        {
          "name": "D4",
          "midi": 62,
          "time": 103.3635330000005,
          "velocity": 0.7480314960629921,
          "duration": 0.2727270000000033
        },
        {
          "name": "D6",
          "midi": 86,
          "time": 103.6362600000005,
          "velocity": 0.7480314960629921,
          "duration": 0.5454540000000065
        },
        {
          "name": "D5",
          "midi": 74,
          "time": 103.6362600000005,
          "velocity": 0.7480314960629921,
          "duration": 0.5454540000000065
        },
        {
          "name": "D4",
          "midi": 62,
          "time": 103.6362600000005,
          "velocity": 0.7480314960629921,
          "duration": 0.5454540000000065
        },
        {
          "name": "C6",
          "midi": 84,
          "time": 104.18171400000051,
          "velocity": 0.7480314960629921,
          "duration": 0.5454540000000065
        },
        {
          "name": "C5",
          "midi": 72,
          "time": 104.18171400000051,
          "velocity": 0.7480314960629921,
          "duration": 0.5454540000000065
        },
        {
          "name": "C4",
          "midi": 60,
          "time": 104.18171400000051,
          "velocity": 0.7480314960629921,
          "duration": 0.5454540000000065
        },
        {
          "name": "D6",
          "midi": 86,
          "time": 104.72716800000052,
          "velocity": 0.7480314960629921,
          "duration": 0.5454540000000065
        },
        {
          "name": "D5",
          "midi": 74,
          "time": 104.72716800000052,
          "velocity": 0.7480314960629921,
          "duration": 0.5454540000000065
        },
        {
          "name": "D4",
          "midi": 62,
          "time": 104.72716800000052,
          "velocity": 0.7480314960629921,
          "duration": 0.5454540000000065
        },
        {
          "name": "D6",
          "midi": 86,
          "time": 105.27262200000052,
          "velocity": 0.7480314960629921,
          "duration": 0.2727270000000033
        },
        {
          "name": "D5",
          "midi": 74,
          "time": 105.27262200000052,
          "velocity": 0.7480314960629921,
          "duration": 0.2727270000000033
        },
        {
          "name": "D4",
          "midi": 62,
          "time": 105.27262200000052,
          "velocity": 0.7480314960629921,
          "duration": 0.2727270000000033
        },
        {
          "name": "D6",
          "midi": 86,
          "time": 105.54534900000053,
          "velocity": 0.7480314960629921,
          "duration": 0.2727270000000033
        },
        {
          "name": "D5",
          "midi": 74,
          "time": 105.54534900000053,
          "velocity": 0.7480314960629921,
          "duration": 0.2727270000000033
        },
        {
          "name": "D4",
          "midi": 62,
          "time": 105.54534900000053,
          "velocity": 0.7480314960629921,
          "duration": 0.2727270000000033
        },
        {
          "name": "D6",
          "midi": 86,
          "time": 105.81807600000053,
          "velocity": 0.7480314960629921,
          "duration": 0.5454540000000065
        },
        {
          "name": "D5",
          "midi": 74,
          "time": 105.81807600000053,
          "velocity": 0.7480314960629921,
          "duration": 0.5454540000000065
        },
        {
          "name": "D4",
          "midi": 62,
          "time": 105.81807600000053,
          "velocity": 0.7480314960629921,
          "duration": 0.5454540000000065
        },
        {
          "name": "E6",
          "midi": 88,
          "time": 106.36353000000054,
          "velocity": 0.7480314960629921,
          "duration": 0.5454540000000065
        },
        {
          "name": "E5",
          "midi": 76,
          "time": 106.36353000000054,
          "velocity": 0.7480314960629921,
          "duration": 0.5454540000000065
        },
        {
          "name": "E4",
          "midi": 64,
          "time": 106.36353000000054,
          "velocity": 0.7480314960629921,
          "duration": 0.5454540000000065
        },
        {
          "name": "C6",
          "midi": 84,
          "time": 106.90898400000054,
          "velocity": 0.7480314960629921,
          "duration": 0.5454540000000065
        },
        {
          "name": "C5",
          "midi": 72,
          "time": 106.90898400000054,
          "velocity": 0.7480314960629921,
          "duration": 0.5454540000000065
        },
        {
          "name": "C4",
          "midi": 60,
          "time": 106.90898400000054,
          "velocity": 0.7480314960629921,
          "duration": 0.5454540000000065
        },
        {
          "name": "D6",
          "midi": 86,
          "time": 107.45443800000055,
          "velocity": 0.7480314960629921,
          "duration": 0.2727270000000033
        },
        {
          "name": "D5",
          "midi": 74,
          "time": 107.45443800000055,
          "velocity": 0.7480314960629921,
          "duration": 0.2727270000000033
        },
        {
          "name": "D4",
          "midi": 62,
          "time": 107.45443800000055,
          "velocity": 0.7480314960629921,
          "duration": 0.2727270000000033
        },
        {
          "name": "D6",
          "midi": 86,
          "time": 107.72716500000055,
          "velocity": 0.7480314960629921,
          "duration": 0.2727270000000033
        },
        {
          "name": "D5",
          "midi": 74,
          "time": 107.72716500000055,
          "velocity": 0.7480314960629921,
          "duration": 0.2727270000000033
        },
        {
          "name": "D4",
          "midi": 62,
          "time": 107.72716500000055,
          "velocity": 0.7480314960629921,
          "duration": 0.2727270000000033
        },
        {
          "name": "D6",
          "midi": 86,
          "time": 107.99989200000056,
          "velocity": 0.7480314960629921,
          "duration": 0.5454540000000065
        },
        {
          "name": "D5",
          "midi": 74,
          "time": 107.99989200000056,
          "velocity": 0.7480314960629921,
          "duration": 0.5454540000000065
        },
        {
          "name": "D4",
          "midi": 62,
          "time": 107.99989200000056,
          "velocity": 0.7480314960629921,
          "duration": 0.5454540000000065
        },
        {
          "name": "C6",
          "midi": 84,
          "time": 108.54534600000056,
          "velocity": 0.7480314960629921,
          "duration": 0.5454540000000065
        },
        {
          "name": "C5",
          "midi": 72,
          "time": 108.54534600000056,
          "velocity": 0.7480314960629921,
          "duration": 0.5454540000000065
        },
        {
          "name": "C4",
          "midi": 60,
          "time": 108.54534600000056,
          "velocity": 0.7480314960629921,
          "duration": 0.5454540000000065
        },
        {
          "name": "D6",
          "midi": 86,
          "time": 109.09080000000057,
          "velocity": 0.7480314960629921,
          "duration": 0.5454540000000065
        },
        {
          "name": "D5",
          "midi": 74,
          "time": 109.09080000000057,
          "velocity": 0.7480314960629921,
          "duration": 0.5454540000000065
        },
        {
          "name": "D4",
          "midi": 62,
          "time": 109.09080000000057,
          "velocity": 0.7480314960629921,
          "duration": 0.5454540000000065
        },
        {
          "name": "D6",
          "midi": 86,
          "time": 109.63625400000058,
          "velocity": 0.7480314960629921,
          "duration": 0.2727270000000033
        },
        {
          "name": "D5",
          "midi": 74,
          "time": 109.63625400000058,
          "velocity": 0.7480314960629921,
          "duration": 0.2727270000000033
        },
        {
          "name": "D4",
          "midi": 62,
          "time": 109.63625400000058,
          "velocity": 0.7480314960629921,
          "duration": 0.2727270000000033
        },
        {
          "name": "D6",
          "midi": 86,
          "time": 109.90898100000058,
          "velocity": 0.7480314960629921,
          "duration": 0.2727270000000033
        },
        {
          "name": "D5",
          "midi": 74,
          "time": 109.90898100000058,
          "velocity": 0.7480314960629921,
          "duration": 0.2727270000000033
        },
        {
          "name": "D4",
          "midi": 62,
          "time": 109.90898100000058,
          "velocity": 0.7480314960629921,
          "duration": 0.2727270000000033
        },
        {
          "name": "D6",
          "midi": 86,
          "time": 110.18170800000058,
          "velocity": 0.7480314960629921,
          "duration": 0.5454540000000065
        },
        {
          "name": "D5",
          "midi": 74,
          "time": 110.18170800000058,
          "velocity": 0.7480314960629921,
          "duration": 0.5454540000000065
        },
        {
          "name": "D4",
          "midi": 62,
          "time": 110.18170800000058,
          "velocity": 0.7480314960629921,
          "duration": 0.5454540000000065
        },
        {
          "name": "C6",
          "midi": 84,
          "time": 110.72716200000059,
          "velocity": 0.7480314960629921,
          "duration": 0.5454540000000065
        },
        {
          "name": "C5",
          "midi": 72,
          "time": 110.72716200000059,
          "velocity": 0.7480314960629921,
          "duration": 0.5454540000000065
        },
        {
          "name": "C4",
          "midi": 60,
          "time": 110.72716200000059,
          "velocity": 0.7480314960629921,
          "duration": 0.5454540000000065
        },
        {
          "name": "D6",
          "midi": 86,
          "time": 111.2726160000006,
          "velocity": 0.7480314960629921,
          "duration": 0.5454540000000065
        },
        {
          "name": "D5",
          "midi": 74,
          "time": 111.2726160000006,
          "velocity": 0.7480314960629921,
          "duration": 0.5454540000000065
        },
        {
          "name": "D4",
          "midi": 62,
          "time": 111.2726160000006,
          "velocity": 0.7480314960629921,
          "duration": 0.5454540000000065
        },
        {
          "name": "D6",
          "midi": 86,
          "time": 111.8180700000006,
          "velocity": 0.7480314960629921,
          "duration": 0.2727270000000033
        },
        {
          "name": "D5",
          "midi": 74,
          "time": 111.8180700000006,
          "velocity": 0.7480314960629921,
          "duration": 0.2727270000000033
        },
        {
          "name": "D4",
          "midi": 62,
          "time": 111.8180700000006,
          "velocity": 0.7480314960629921,
          "duration": 0.2727270000000033
        },
        {
          "name": "D6",
          "midi": 86,
          "time": 112.0907970000006,
          "velocity": 0.7480314960629921,
          "duration": 0.2727270000000033
        },
        {
          "name": "D5",
          "midi": 74,
          "time": 112.0907970000006,
          "velocity": 0.7480314960629921,
          "duration": 0.2727270000000033
        },
        {
          "name": "D4",
          "midi": 62,
          "time": 112.0907970000006,
          "velocity": 0.7480314960629921,
          "duration": 0.2727270000000033
        },
        {
          "name": "D6",
          "midi": 86,
          "time": 112.36352400000061,
          "velocity": 0.7480314960629921,
          "duration": 0.5454540000000065
        },
        {
          "name": "D5",
          "midi": 74,
          "time": 112.36352400000061,
          "velocity": 0.7480314960629921,
          "duration": 0.5454540000000065
        },
        {
          "name": "D4",
          "midi": 62,
          "time": 112.36352400000061,
          "velocity": 0.7480314960629921,
          "duration": 0.5454540000000065
        },
        {
          "name": "C6",
          "midi": 84,
          "time": 112.90897800000062,
          "velocity": 0.7480314960629921,
          "duration": 0.5454540000000065
        },
        {
          "name": "C5",
          "midi": 72,
          "time": 112.90897800000062,
          "velocity": 0.7480314960629921,
          "duration": 0.5454540000000065
        },
        {
          "name": "C4",
          "midi": 60,
          "time": 112.90897800000062,
          "velocity": 0.7480314960629921,
          "duration": 0.5454540000000065
        },
        {
          "name": "D6",
          "midi": 86,
          "time": 113.45443200000062,
          "velocity": 0.7480314960629921,
          "duration": 0.5454540000000065
        },
        {
          "name": "D5",
          "midi": 74,
          "time": 113.45443200000062,
          "velocity": 0.7480314960629921,
          "duration": 0.5454540000000065
        },
        {
          "name": "D4",
          "midi": 62,
          "time": 113.45443200000062,
          "velocity": 0.7480314960629921,
          "duration": 0.5454540000000065
        },
        {
          "name": "D6",
          "midi": 86,
          "time": 113.99988600000063,
          "velocity": 0.7480314960629921,
          "duration": 0.2727270000000033
        },
        {
          "name": "D5",
          "midi": 74,
          "time": 113.99988600000063,
          "velocity": 0.7480314960629921,
          "duration": 0.2727270000000033
        },
        {
          "name": "D4",
          "midi": 62,
          "time": 113.99988600000063,
          "velocity": 0.7480314960629921,
          "duration": 0.2727270000000033
        },
        {
          "name": "D6",
          "midi": 86,
          "time": 114.27261300000063,
          "velocity": 0.7480314960629921,
          "duration": 0.2727270000000033
        },
        {
          "name": "D5",
          "midi": 74,
          "time": 114.27261300000063,
          "velocity": 0.7480314960629921,
          "duration": 0.2727270000000033
        },
        {
          "name": "D4",
          "midi": 62,
          "time": 114.27261300000063,
          "velocity": 0.7480314960629921,
          "duration": 0.2727270000000033
        },
        {
          "name": "D6",
          "midi": 86,
          "time": 114.54534000000064,
          "velocity": 0.7480314960629921,
          "duration": 0.5454540000000065
        },
        {
          "name": "D5",
          "midi": 74,
          "time": 114.54534000000064,
          "velocity": 0.7480314960629921,
          "duration": 0.5454540000000065
        },
        {
          "name": "D4",
          "midi": 62,
          "time": 114.54534000000064,
          "velocity": 0.7480314960629921,
          "duration": 0.5454540000000065
        },
        {
          "name": "E6",
          "midi": 88,
          "time": 115.09079400000064,
          "velocity": 0.7480314960629921,
          "duration": 0.5454540000000065
        },
        {
          "name": "E5",
          "midi": 76,
          "time": 115.09079400000064,
          "velocity": 0.7480314960629921,
          "duration": 0.5454540000000065
        },
        {
          "name": "E4",
          "midi": 64,
          "time": 115.09079400000064,
          "velocity": 0.7480314960629921,
          "duration": 0.5454540000000065
        },
        {
          "name": "C6",
          "midi": 84,
          "time": 115.63624800000065,
          "velocity": 0.7480314960629921,
          "duration": 0.5454540000000065
        },
        {
          "name": "C5",
          "midi": 72,
          "time": 115.63624800000065,
          "velocity": 0.7480314960629921,
          "duration": 0.5454540000000065
        },
        {
          "name": "C4",
          "midi": 60,
          "time": 115.63624800000065,
          "velocity": 0.7480314960629921,
          "duration": 0.5454540000000065
        },
        {
          "name": "D6",
          "midi": 86,
          "time": 116.18170200000066,
          "velocity": 0.7480314960629921,
          "duration": 0.2727270000000033
        },
        {
          "name": "D5",
          "midi": 74,
          "time": 116.18170200000066,
          "velocity": 0.7480314960629921,
          "duration": 0.2727270000000033
        },
        {
          "name": "D4",
          "midi": 62,
          "time": 116.18170200000066,
          "velocity": 0.7480314960629921,
          "duration": 0.2727270000000033
        },
        {
          "name": "D6",
          "midi": 86,
          "time": 116.45442900000066,
          "velocity": 0.7480314960629921,
          "duration": 0.2727270000000033
        },
        {
          "name": "D5",
          "midi": 74,
          "time": 116.45442900000066,
          "velocity": 0.7480314960629921,
          "duration": 0.2727270000000033
        },
        {
          "name": "D4",
          "midi": 62,
          "time": 116.45442900000066,
          "velocity": 0.7480314960629921,
          "duration": 0.2727270000000033
        },
        {
          "name": "D6",
          "midi": 86,
          "time": 116.72715600000066,
          "velocity": 0.7480314960629921,
          "duration": 0.5454540000000065
        },
        {
          "name": "D5",
          "midi": 74,
          "time": 116.72715600000066,
          "velocity": 0.7480314960629921,
          "duration": 0.5454540000000065
        },
        {
          "name": "D4",
          "midi": 62,
          "time": 116.72715600000066,
          "velocity": 0.7480314960629921,
          "duration": 0.5454540000000065
        },
        {
          "name": "C6",
          "midi": 84,
          "time": 117.27261000000067,
          "velocity": 0.7480314960629921,
          "duration": 0.5454540000000065
        },
        {
          "name": "C5",
          "midi": 72,
          "time": 117.27261000000067,
          "velocity": 0.7480314960629921,
          "duration": 0.5454540000000065
        },
        {
          "name": "C4",
          "midi": 60,
          "time": 117.27261000000067,
          "velocity": 0.7480314960629921,
          "duration": 0.5454540000000065
        },
        {
          "name": "D6",
          "midi": 86,
          "time": 117.81806400000067,
          "velocity": 0.7480314960629921,
          "duration": 0.5454540000000065
        },
        {
          "name": "D5",
          "midi": 74,
          "time": 117.81806400000067,
          "velocity": 0.7480314960629921,
          "duration": 0.5454540000000065
        },
        {
          "name": "D4",
          "midi": 62,
          "time": 117.81806400000067,
          "velocity": 0.7480314960629921,
          "duration": 0.5454540000000065
        },
        {
          "name": "D6",
          "midi": 86,
          "time": 118.36351800000068,
          "velocity": 0.7480314960629921,
          "duration": 0.2727270000000033
        },
        {
          "name": "D5",
          "midi": 74,
          "time": 118.36351800000068,
          "velocity": 0.7480314960629921,
          "duration": 0.2727270000000033
        },
        {
          "name": "D4",
          "midi": 62,
          "time": 118.36351800000068,
          "velocity": 0.7480314960629921,
          "duration": 0.2727270000000033
        },
        {
          "name": "D6",
          "midi": 86,
          "time": 118.63624500000068,
          "velocity": 0.7480314960629921,
          "duration": 0.2727270000000033
        },
        {
          "name": "D5",
          "midi": 74,
          "time": 118.63624500000068,
          "velocity": 0.7480314960629921,
          "duration": 0.2727270000000033
        },
        {
          "name": "D4",
          "midi": 62,
          "time": 118.63624500000068,
          "velocity": 0.7480314960629921,
          "duration": 0.2727270000000033
        },
        {
          "name": "D6",
          "midi": 86,
          "time": 118.90897200000069,
          "velocity": 0.7480314960629921,
          "duration": 0.5454540000000065
        },
        {
          "name": "D5",
          "midi": 74,
          "time": 118.90897200000069,
          "velocity": 0.7480314960629921,
          "duration": 0.5454540000000065
        },
        {
          "name": "D4",
          "midi": 62,
          "time": 118.90897200000069,
          "velocity": 0.7480314960629921,
          "duration": 0.5454540000000065
        },
        {
          "name": "C6",
          "midi": 84,
          "time": 119.4544260000007,
          "velocity": 0.7480314960629921,
          "duration": 0.5454540000000065
        },
        {
          "name": "C5",
          "midi": 72,
          "time": 119.4544260000007,
          "velocity": 0.7480314960629921,
          "duration": 0.5454540000000065
        },
        {
          "name": "C4",
          "midi": 60,
          "time": 119.4544260000007,
          "velocity": 0.7480314960629921,
          "duration": 0.5454540000000065
        },
        {
          "name": "D6",
          "midi": 86,
          "time": 119.9998800000007,
          "velocity": 0.7480314960629921,
          "duration": 1.3636350000000022
        },
        {
          "name": "D5",
          "midi": 74,
          "time": 119.9998800000007,
          "velocity": 0.7480314960629921,
          "duration": 1.3636350000000022
        },
        {
          "name": "D4",
          "midi": 62,
          "time": 119.9998800000007,
          "velocity": 0.7480314960629921,
          "duration": 1.3636350000000022
        },
        {
          "name": "D6",
          "midi": 86,
          "time": 121.3635150000007,
          "velocity": 0.7480314960629921,
          "duration": 0.2727270000000033
        },
        {
          "name": "D5",
          "midi": 74,
          "time": 121.3635150000007,
          "velocity": 0.7480314960629921,
          "duration": 0.2727270000000033
        },
        {
          "name": "D4",
          "midi": 62,
          "time": 121.3635150000007,
          "velocity": 0.7480314960629921,
          "duration": 0.2727270000000033
        },
        {
          "name": "F6",
          "midi": 89,
          "time": 121.6362420000007,
          "velocity": 0.7480314960629921,
          "duration": 0.2727270000000033
        },
        {
          "name": "F5",
          "midi": 77,
          "time": 121.6362420000007,
          "velocity": 0.7480314960629921,
          "duration": 0.2727270000000033
        },
        {
          "name": "F4",
          "midi": 65,
          "time": 121.6362420000007,
          "velocity": 0.7480314960629921,
          "duration": 0.2727270000000033
        },
        {
          "name": "E6",
          "midi": 88,
          "time": 121.90896900000071,
          "velocity": 0.7480314960629921,
          "duration": 1.6363620000000054
        },
        {
          "name": "E5",
          "midi": 76,
          "time": 121.90896900000071,
          "velocity": 0.7480314960629921,
          "duration": 1.6363620000000054
        },
        {
          "name": "E4",
          "midi": 64,
          "time": 121.90896900000071,
          "velocity": 0.7480314960629921,
          "duration": 1.6363620000000054
        },
        {
          "name": "D6",
          "midi": 86,
          "time": 123.54533100000071,
          "velocity": 0.7480314960629921,
          "duration": 0.2727270000000033
        },
        {
          "name": "D5",
          "midi": 74,
          "time": 123.54533100000071,
          "velocity": 0.7480314960629921,
          "duration": 0.2727270000000033
        },
        {
          "name": "D4",
          "midi": 62,
          "time": 123.54533100000071,
          "velocity": 0.7480314960629921,
          "duration": 0.2727270000000033
        },
        {
          "name": "E6",
          "midi": 88,
          "time": 123.81805800000072,
          "velocity": 0.7480314960629921,
          "duration": 0.5454540000000065
        },
        {
          "name": "E5",
          "midi": 76,
          "time": 123.81805800000072,
          "velocity": 0.7480314960629921,
          "duration": 0.5454540000000065
        },
        {
          "name": "E4",
          "midi": 64,
          "time": 123.81805800000072,
          "velocity": 0.7480314960629921,
          "duration": 0.5454540000000065
        },
        {
          "name": "F6",
          "midi": 89,
          "time": 124.36351200000072,
          "velocity": 0.7480314960629921,
          "duration": 1.0909079999999989
        },
        {
          "name": "F5",
          "midi": 77,
          "time": 124.36351200000072,
          "velocity": 0.7480314960629921,
          "duration": 1.0909079999999989
        },
        {
          "name": "F4",
          "midi": 65,
          "time": 124.36351200000072,
          "velocity": 0.7480314960629921,
          "duration": 1.0909079999999989
        },
        {
          "name": "E6",
          "midi": 88,
          "time": 125.45442000000072,
          "velocity": 0.7480314960629921,
          "duration": 1.0909079999999989
        },
        {
          "name": "E5",
          "midi": 76,
          "time": 125.45442000000072,
          "velocity": 0.7480314960629921,
          "duration": 1.0909079999999989
        },
        {
          "name": "E4",
          "midi": 64,
          "time": 125.45442000000072,
          "velocity": 0.7480314960629921,
          "duration": 1.0909079999999989
        },
        {
          "name": "F6",
          "midi": 89,
          "time": 126.54532800000072,
          "velocity": 0.7480314960629921,
          "duration": 1.0909079999999989
        },
        {
          "name": "F5",
          "midi": 77,
          "time": 126.54532800000072,
          "velocity": 0.7480314960629921,
          "duration": 1.0909079999999989
        },
        {
          "name": "F4",
          "midi": 65,
          "time": 126.54532800000072,
          "velocity": 0.7480314960629921,
          "duration": 1.0909079999999989
        },
        {
          "name": "E6",
          "midi": 88,
          "time": 127.63623600000072,
          "velocity": 0.7480314960629921,
          "duration": 1.0909079999999989
        },
        {
          "name": "E5",
          "midi": 76,
          "time": 127.63623600000072,
          "velocity": 0.7480314960629921,
          "duration": 1.0909079999999989
        },
        {
          "name": "E4",
          "midi": 64,
          "time": 127.63623600000072,
          "velocity": 0.7480314960629921,
          "duration": 1.0909079999999989
        },
        {
          "name": "D6",
          "midi": 86,
          "time": 128.72714400000072,
          "velocity": 0.7480314960629921,
          "duration": 1.363634999999988
        },
        {
          "name": "D5",
          "midi": 74,
          "time": 128.72714400000072,
          "velocity": 0.7480314960629921,
          "duration": 1.363634999999988
        },
        {
          "name": "D4",
          "midi": 62,
          "time": 128.72714400000072,
          "velocity": 0.7480314960629921,
          "duration": 1.363634999999988
        },
        {
          "name": "D6",
          "midi": 86,
          "time": 130.0907790000007,
          "velocity": 0.7480314960629921,
          "duration": 0.2727270000000033
        },
        {
          "name": "D5",
          "midi": 74,
          "time": 130.0907790000007,
          "velocity": 0.7480314960629921,
          "duration": 0.2727270000000033
        },
        {
          "name": "D4",
          "midi": 62,
          "time": 130.0907790000007,
          "velocity": 0.7480314960629921,
          "duration": 0.2727270000000033
        },
        {
          "name": "F6",
          "midi": 89,
          "time": 130.3635060000007,
          "velocity": 0.7480314960629921,
          "duration": 0.2727270000000033
        },
        {
          "name": "F5",
          "midi": 77,
          "time": 130.3635060000007,
          "velocity": 0.7480314960629921,
          "duration": 0.2727270000000033
        },
        {
          "name": "F4",
          "midi": 65,
          "time": 130.3635060000007,
          "velocity": 0.7480314960629921,
          "duration": 0.2727270000000033
        },
        {
          "name": "E6",
          "midi": 88,
          "time": 130.63623300000071,
          "velocity": 0.7480314960629921,
          "duration": 1.9090889999999945
        },
        {
          "name": "E5",
          "midi": 76,
          "time": 130.63623300000071,
          "velocity": 0.7480314960629921,
          "duration": 1.9090889999999945
        },
        {
          "name": "E4",
          "midi": 64,
          "time": 130.63623300000071,
          "velocity": 0.7480314960629921,
          "duration": 1.9090889999999945
        },
        {
          "name": "E6",
          "midi": 88,
          "time": 132.5453220000007,
          "velocity": 0.7480314960629921,
          "duration": 0.2727270000000033
        },
        {
          "name": "E5",
          "midi": 76,
          "time": 132.5453220000007,
          "velocity": 0.7480314960629921,
          "duration": 0.2727270000000033
        },
        {
          "name": "E4",
          "midi": 64,
          "time": 132.5453220000007,
          "velocity": 0.7480314960629921,
          "duration": 0.2727270000000033
        },
        {
          "name": "D6",
          "midi": 86,
          "time": 132.8180490000007,
          "velocity": 0.7480314960629921,
          "duration": 0.2727270000000033
        },
        {
          "name": "D5",
          "midi": 74,
          "time": 132.8180490000007,
          "velocity": 0.7480314960629921,
          "duration": 0.2727270000000033
        },
        {
          "name": "D4",
          "midi": 62,
          "time": 132.8180490000007,
          "velocity": 0.7480314960629921,
          "duration": 0.2727270000000033
        },
        {
          "name": "E6",
          "midi": 88,
          "time": 133.09077600000072,
          "velocity": 0.7480314960629921,
          "duration": 0.2727270000000033
        },
        {
          "name": "E5",
          "midi": 76,
          "time": 133.09077600000072,
          "velocity": 0.7480314960629921,
          "duration": 0.2727270000000033
        },
        {
          "name": "E4",
          "midi": 64,
          "time": 133.09077600000072,
          "velocity": 0.7480314960629921,
          "duration": 0.2727270000000033
        },
        {
          "name": "E6",
          "midi": 88,
          "time": 133.36350300000072,
          "velocity": 0.7480314960629921,
          "duration": 0.5454540000000065
        },
        {
          "name": "E5",
          "midi": 76,
          "time": 133.36350300000072,
          "velocity": 0.7480314960629921,
          "duration": 0.5454540000000065
        },
        {
          "name": "E4",
          "midi": 64,
          "time": 133.36350300000072,
          "velocity": 0.7480314960629921,
          "duration": 0.5454540000000065
        },
        {
          "name": "E6",
          "midi": 88,
          "time": 133.90895700000073,
          "velocity": 0.7480314960629921,
          "duration": 0.5454540000000065
        },
        {
          "name": "E5",
          "midi": 76,
          "time": 133.90895700000073,
          "velocity": 0.7480314960629921,
          "duration": 0.5454540000000065
        },
        {
          "name": "E4",
          "midi": 64,
          "time": 133.90895700000073,
          "velocity": 0.7480314960629921,
          "duration": 0.5454540000000065
        },
        {
          "name": "D6",
          "midi": 86,
          "time": 134.45441100000073,
          "velocity": 0.7480314960629921,
          "duration": 0.2727270000000033
        },
        {
          "name": "D5",
          "midi": 74,
          "time": 134.45441100000073,
          "velocity": 0.7480314960629921,
          "duration": 0.2727270000000033
        },
        {
          "name": "D4",
          "midi": 62,
          "time": 134.45441100000073,
          "velocity": 0.7480314960629921,
          "duration": 0.2727270000000033
        },
        {
          "name": "E6",
          "midi": 88,
          "time": 134.72713800000074,
          "velocity": 0.7480314960629921,
          "duration": 0.2727270000000033
        },
        {
          "name": "E5",
          "midi": 76,
          "time": 134.72713800000074,
          "velocity": 0.7480314960629921,
          "duration": 0.2727270000000033
        },
        {
          "name": "E4",
          "midi": 64,
          "time": 134.72713800000074,
          "velocity": 0.7480314960629921,
          "duration": 0.2727270000000033
        },
        {
          "name": "D6",
          "midi": 86,
          "time": 134.99986500000074,
          "velocity": 0.7480314960629921,
          "duration": 0.2727270000000033
        },
        {
          "name": "D5",
          "midi": 74,
          "time": 134.99986500000074,
          "velocity": 0.7480314960629921,
          "duration": 0.2727270000000033
        },
        {
          "name": "D4",
          "midi": 62,
          "time": 134.99986500000074,
          "velocity": 0.7480314960629921,
          "duration": 0.2727270000000033
        },
        {
          "name": "E6",
          "midi": 88,
          "time": 135.27259200000074,
          "velocity": 0.7480314960629921,
          "duration": 0.2727270000000033
        },
        {
          "name": "E5",
          "midi": 76,
          "time": 135.27259200000074,
          "velocity": 0.7480314960629921,
          "duration": 0.2727270000000033
        },
        {
          "name": "E4",
          "midi": 64,
          "time": 135.27259200000074,
          "velocity": 0.7480314960629921,
          "duration": 0.2727270000000033
        },
        {
          "name": "E6",
          "midi": 88,
          "time": 135.54531900000075,
          "velocity": 0.7480314960629921,
          "duration": 0.5454540000000065
        },
        {
          "name": "E5",
          "midi": 76,
          "time": 135.54531900000075,
          "velocity": 0.7480314960629921,
          "duration": 0.5454540000000065
        },
        {
          "name": "E4",
          "midi": 64,
          "time": 135.54531900000075,
          "velocity": 0.7480314960629921,
          "duration": 0.5454540000000065
        },
        {
          "name": "E6",
          "midi": 88,
          "time": 136.09077300000075,
          "velocity": 0.7480314960629921,
          "duration": 0.5454540000000065
        },
        {
          "name": "E5",
          "midi": 76,
          "time": 136.09077300000075,
          "velocity": 0.7480314960629921,
          "duration": 0.5454540000000065
        },
        {
          "name": "E4",
          "midi": 64,
          "time": 136.09077300000075,
          "velocity": 0.7480314960629921,
          "duration": 0.5454540000000065
        },
        {
          "name": "E6",
          "midi": 88,
          "time": 136.63622700000076,
          "velocity": 0.7480314960629921,
          "duration": 0.2727270000000033
        },
        {
          "name": "E5",
          "midi": 76,
          "time": 136.63622700000076,
          "velocity": 0.7480314960629921,
          "duration": 0.2727270000000033
        },
        {
          "name": "E4",
          "midi": 64,
          "time": 136.63622700000076,
          "velocity": 0.7480314960629921,
          "duration": 0.2727270000000033
        },
        {
          "name": "F6",
          "midi": 89,
          "time": 136.90895400000076,
          "velocity": 0.7480314960629921,
          "duration": 0.2727270000000033
        },
        {
          "name": "F5",
          "midi": 77,
          "time": 136.90895400000076,
          "velocity": 0.7480314960629921,
          "duration": 0.2727270000000033
        },
        {
          "name": "F4",
          "midi": 65,
          "time": 136.90895400000076,
          "velocity": 0.7480314960629921,
          "duration": 0.2727270000000033
        },
        {
          "name": "E6",
          "midi": 88,
          "time": 137.18168100000076,
          "velocity": 0.7480314960629921,
          "duration": 0.8181810000000098
        },
        {
          "name": "E5",
          "midi": 76,
          "time": 137.18168100000076,
          "velocity": 0.7480314960629921,
          "duration": 0.8181810000000098
        },
        {
          "name": "E4",
          "midi": 64,
          "time": 137.18168100000076,
          "velocity": 0.7480314960629921,
          "duration": 0.8181810000000098
        },
        {
          "name": "D6",
          "midi": 86,
          "time": 137.99986200000077,
          "velocity": 0.7480314960629921,
          "duration": 0.8181810000000098
        },
        {
          "name": "D5",
          "midi": 74,
          "time": 137.99986200000077,
          "velocity": 0.7480314960629921,
          "duration": 0.8181810000000098
        },
        {
          "name": "D4",
          "midi": 62,
          "time": 137.99986200000077,
          "velocity": 0.7480314960629921,
          "duration": 0.8181810000000098
        },
        {
          "name": "C6",
          "midi": 84,
          "time": 138.81804300000078,
          "velocity": 0.7480314960629921,
          "duration": 0.8181810000000098
        },
        {
          "name": "C5",
          "midi": 72,
          "time": 138.81804300000078,
          "velocity": 0.7480314960629921,
          "duration": 0.8181810000000098
        },
        {
          "name": "C4",
          "midi": 60,
          "time": 138.81804300000078,
          "velocity": 0.7480314960629921,
          "duration": 0.8181810000000098
        },
        {
          "name": "D6",
          "midi": 86,
          "time": 139.6362240000008,
          "velocity": 0.7480314960629921,
          "duration": 0.8181810000000098
        },
        {
          "name": "D5",
          "midi": 74,
          "time": 139.6362240000008,
          "velocity": 0.7480314960629921,
          "duration": 0.8181810000000098
        },
        {
          "name": "D4",
          "midi": 62,
          "time": 139.6362240000008,
          "velocity": 0.7480314960629921,
          "duration": 0.8181810000000098
        },
        {
          "name": "D6",
          "midi": 86,
          "time": 140.4544050000008,
          "velocity": 0.7480314960629921,
          "duration": 0.2727270000000033
        },
        {
          "name": "D5",
          "midi": 74,
          "time": 140.4544050000008,
          "velocity": 0.7480314960629921,
          "duration": 0.2727270000000033
        },
        {
          "name": "D4",
          "midi": 62,
          "time": 140.4544050000008,
          "velocity": 0.7480314960629921,
          "duration": 0.2727270000000033
        },
        {
          "name": "D6",
          "midi": 86,
          "time": 140.7271320000008,
          "velocity": 0.7480314960629921,
          "duration": 0.5454540000000065
        },
        {
          "name": "D5",
          "midi": 74,
          "time": 140.7271320000008,
          "velocity": 0.7480314960629921,
          "duration": 0.5454540000000065
        },
        {
          "name": "D4",
          "midi": 62,
          "time": 140.7271320000008,
          "velocity": 0.7480314960629921,
          "duration": 0.5454540000000065
        },
        {
          "name": "C6",
          "midi": 84,
          "time": 141.2725860000008,
          "velocity": 0.7480314960629921,
          "duration": 0.5454540000000065
        },
        {
          "name": "C5",
          "midi": 72,
          "time": 141.2725860000008,
          "velocity": 0.7480314960629921,
          "duration": 0.5454540000000065
        },
        {
          "name": "C4",
          "midi": 60,
          "time": 141.2725860000008,
          "velocity": 0.7480314960629921,
          "duration": 0.5454540000000065
        },
        {
          "name": "D6",
          "midi": 86,
          "time": 141.81804000000082,
          "velocity": 0.7480314960629921,
          "duration": 0.5454540000000065
        },
        {
          "name": "D5",
          "midi": 74,
          "time": 141.81804000000082,
          "velocity": 0.7480314960629921,
          "duration": 0.5454540000000065
        },
        {
          "name": "D4",
          "midi": 62,
          "time": 141.81804000000082,
          "velocity": 0.7480314960629921,
          "duration": 0.5454540000000065
        },
        {
          "name": "D6",
          "midi": 86,
          "time": 142.36349400000083,
          "velocity": 0.7480314960629921,
          "duration": 0.2727270000000033
        },
        {
          "name": "D5",
          "midi": 74,
          "time": 142.36349400000083,
          "velocity": 0.7480314960629921,
          "duration": 0.2727270000000033
        },
        {
          "name": "D4",
          "midi": 62,
          "time": 142.36349400000083,
          "velocity": 0.7480314960629921,
          "duration": 0.2727270000000033
        },
        {
          "name": "D6",
          "midi": 86,
          "time": 142.63622100000083,
          "velocity": 0.7480314960629921,
          "duration": 0.2727270000000033
        },
        {
          "name": "D5",
          "midi": 74,
          "time": 142.63622100000083,
          "velocity": 0.7480314960629921,
          "duration": 0.2727270000000033
        },
        {
          "name": "D4",
          "midi": 62,
          "time": 142.63622100000083,
          "velocity": 0.7480314960629921,
          "duration": 0.2727270000000033
        },
        {
          "name": "D6",
          "midi": 86,
          "time": 142.90894800000083,
          "velocity": 0.7480314960629921,
          "duration": 0.5454540000000065
        },
        {
          "name": "D5",
          "midi": 74,
          "time": 142.90894800000083,
          "velocity": 0.7480314960629921,
          "duration": 0.5454540000000065
        },
        {
          "name": "D4",
          "midi": 62,
          "time": 142.90894800000083,
          "velocity": 0.7480314960629921,
          "duration": 0.5454540000000065
        },
        {
          "name": "E6",
          "midi": 88,
          "time": 143.45440200000084,
          "velocity": 0.7480314960629921,
          "duration": 0.5454540000000065
        },
        {
          "name": "E5",
          "midi": 76,
          "time": 143.45440200000084,
          "velocity": 0.7480314960629921,
          "duration": 0.5454540000000065
        },
        {
          "name": "E4",
          "midi": 64,
          "time": 143.45440200000084,
          "velocity": 0.7480314960629921,
          "duration": 0.5454540000000065
        },
        {
          "name": "C6",
          "midi": 84,
          "time": 143.99985600000085,
          "velocity": 0.7480314960629921,
          "duration": 0.5454540000000065
        },
        {
          "name": "C5",
          "midi": 72,
          "time": 143.99985600000085,
          "velocity": 0.7480314960629921,
          "duration": 0.5454540000000065
        },
        {
          "name": "C4",
          "midi": 60,
          "time": 143.99985600000085,
          "velocity": 0.7480314960629921,
          "duration": 0.5454540000000065
        },
        {
          "name": "D6",
          "midi": 86,
          "time": 144.54531000000085,
          "velocity": 0.7480314960629921,
          "duration": 0.2727270000000033
        },
        {
          "name": "D5",
          "midi": 74,
          "time": 144.54531000000085,
          "velocity": 0.7480314960629921,
          "duration": 0.2727270000000033
        },
        {
          "name": "D4",
          "midi": 62,
          "time": 144.54531000000085,
          "velocity": 0.7480314960629921,
          "duration": 0.2727270000000033
        },
        {
          "name": "D6",
          "midi": 86,
          "time": 144.81803700000086,
          "velocity": 0.7480314960629921,
          "duration": 0.2727270000000033
        },
        {
          "name": "D5",
          "midi": 74,
          "time": 144.81803700000086,
          "velocity": 0.7480314960629921,
          "duration": 0.2727270000000033
        },
        {
          "name": "D4",
          "midi": 62,
          "time": 144.81803700000086,
          "velocity": 0.7480314960629921,
          "duration": 0.2727270000000033
        },
        {
          "name": "D6",
          "midi": 86,
          "time": 145.09076400000086,
          "velocity": 0.7480314960629921,
          "duration": 0.5454540000000065
        },
        {
          "name": "D5",
          "midi": 74,
          "time": 145.09076400000086,
          "velocity": 0.7480314960629921,
          "duration": 0.5454540000000065
        },
        {
          "name": "D4",
          "midi": 62,
          "time": 145.09076400000086,
          "velocity": 0.7480314960629921,
          "duration": 0.5454540000000065
        },
        {
          "name": "C6",
          "midi": 84,
          "time": 145.63621800000087,
          "velocity": 0.7480314960629921,
          "duration": 0.5454540000000065
        },
        {
          "name": "C5",
          "midi": 72,
          "time": 145.63621800000087,
          "velocity": 0.7480314960629921,
          "duration": 0.5454540000000065
        },
        {
          "name": "C4",
          "midi": 60,
          "time": 145.63621800000087,
          "velocity": 0.7480314960629921,
          "duration": 0.5454540000000065
        },
        {
          "name": "D6",
          "midi": 86,
          "time": 146.18167200000087,
          "velocity": 0.7480314960629921,
          "duration": 0.5454540000000065
        },
        {
          "name": "D5",
          "midi": 74,
          "time": 146.18167200000087,
          "velocity": 0.7480314960629921,
          "duration": 0.5454540000000065
        },
        {
          "name": "D4",
          "midi": 62,
          "time": 146.18167200000087,
          "velocity": 0.7480314960629921,
          "duration": 0.5454540000000065
        },
        {
          "name": "D6",
          "midi": 86,
          "time": 146.72712600000088,
          "velocity": 0.7480314960629921,
          "duration": 0.2727270000000033
        },
        {
          "name": "D5",
          "midi": 74,
          "time": 146.72712600000088,
          "velocity": 0.7480314960629921,
          "duration": 0.2727270000000033
        },
        {
          "name": "D4",
          "midi": 62,
          "time": 146.72712600000088,
          "velocity": 0.7480314960629921,
          "duration": 0.2727270000000033
        },
        {
          "name": "D6",
          "midi": 86,
          "time": 146.99985300000088,
          "velocity": 0.7480314960629921,
          "duration": 0.2727270000000033
        },
        {
          "name": "D5",
          "midi": 74,
          "time": 146.99985300000088,
          "velocity": 0.7480314960629921,
          "duration": 0.2727270000000033
        },
        {
          "name": "D4",
          "midi": 62,
          "time": 146.99985300000088,
          "velocity": 0.7480314960629921,
          "duration": 0.2727270000000033
        },
        {
          "name": "D6",
          "midi": 86,
          "time": 147.2725800000009,
          "velocity": 0.7480314960629921,
          "duration": 0.5454540000000065
        },
        {
          "name": "D5",
          "midi": 74,
          "time": 147.2725800000009,
          "velocity": 0.7480314960629921,
          "duration": 0.5454540000000065
        },
        {
          "name": "D4",
          "midi": 62,
          "time": 147.2725800000009,
          "velocity": 0.7480314960629921,
          "duration": 0.5454540000000065
        },
        {
          "name": "C6",
          "midi": 84,
          "time": 147.8180340000009,
          "velocity": 0.7480314960629921,
          "duration": 0.5454540000000065
        },
        {
          "name": "C5",
          "midi": 72,
          "time": 147.8180340000009,
          "velocity": 0.7480314960629921,
          "duration": 0.5454540000000065
        },
        {
          "name": "C4",
          "midi": 60,
          "time": 147.8180340000009,
          "velocity": 0.7480314960629921,
          "duration": 0.5454540000000065
        },
        {
          "name": "D6",
          "midi": 86,
          "time": 148.3634880000009,
          "velocity": 0.7480314960629921,
          "duration": 0.5454540000000065
        },
        {
          "name": "D5",
          "midi": 74,
          "time": 148.3634880000009,
          "velocity": 0.7480314960629921,
          "duration": 0.5454540000000065
        },
        {
          "name": "D4",
          "midi": 62,
          "time": 148.3634880000009,
          "velocity": 0.7480314960629921,
          "duration": 0.5454540000000065
        },
        {
          "name": "D6",
          "midi": 86,
          "time": 148.9089420000009,
          "velocity": 0.7480314960629921,
          "duration": 0.2727270000000033
        },
        {
          "name": "D5",
          "midi": 74,
          "time": 148.9089420000009,
          "velocity": 0.7480314960629921,
          "duration": 0.2727270000000033
        },
        {
          "name": "D4",
          "midi": 62,
          "time": 148.9089420000009,
          "velocity": 0.7480314960629921,
          "duration": 0.2727270000000033
        },
        {
          "name": "D6",
          "midi": 86,
          "time": 149.1816690000009,
          "velocity": 0.7480314960629921,
          "duration": 0.2727270000000033
        },
        {
          "name": "D5",
          "midi": 74,
          "time": 149.1816690000009,
          "velocity": 0.7480314960629921,
          "duration": 0.2727270000000033
        },
        {
          "name": "D4",
          "midi": 62,
          "time": 149.1816690000009,
          "velocity": 0.7480314960629921,
          "duration": 0.2727270000000033
        },
        {
          "name": "D6",
          "midi": 86,
          "time": 149.4543960000009,
          "velocity": 0.7480314960629921,
          "duration": 0.5454540000000065
        },
        {
          "name": "D5",
          "midi": 74,
          "time": 149.4543960000009,
          "velocity": 0.7480314960629921,
          "duration": 0.5454540000000065
        },
        {
          "name": "D4",
          "midi": 62,
          "time": 149.4543960000009,
          "velocity": 0.7480314960629921,
          "duration": 0.5454540000000065
        },
        {
          "name": "C6",
          "midi": 84,
          "time": 149.99985000000092,
          "velocity": 0.7480314960629921,
          "duration": 0.5454540000000065
        },
        {
          "name": "C5",
          "midi": 72,
          "time": 149.99985000000092,
          "velocity": 0.7480314960629921,
          "duration": 0.5454540000000065
        },
        {
          "name": "C4",
          "midi": 60,
          "time": 149.99985000000092,
          "velocity": 0.7480314960629921,
          "duration": 0.5454540000000065
        },
        {
          "name": "D6",
          "midi": 86,
          "time": 150.54530400000093,
          "velocity": 0.7480314960629921,
          "duration": 0.5454540000000065
        },
        {
          "name": "D5",
          "midi": 74,
          "time": 150.54530400000093,
          "velocity": 0.7480314960629921,
          "duration": 0.5454540000000065
        },
        {
          "name": "D4",
          "midi": 62,
          "time": 150.54530400000093,
          "velocity": 0.7480314960629921,
          "duration": 0.5454540000000065
        },
        {
          "name": "D6",
          "midi": 86,
          "time": 151.09075800000093,
          "velocity": 0.7480314960629921,
          "duration": 0.2727270000000033
        },
        {
          "name": "D5",
          "midi": 74,
          "time": 151.09075800000093,
          "velocity": 0.7480314960629921,
          "duration": 0.2727270000000033
        },
        {
          "name": "D4",
          "midi": 62,
          "time": 151.09075800000093,
          "velocity": 0.7480314960629921,
          "duration": 0.2727270000000033
        },
        {
          "name": "D6",
          "midi": 86,
          "time": 151.36348500000094,
          "velocity": 0.7480314960629921,
          "duration": 0.2727270000000033
        },
        {
          "name": "D5",
          "midi": 74,
          "time": 151.36348500000094,
          "velocity": 0.7480314960629921,
          "duration": 0.2727270000000033
        },
        {
          "name": "D4",
          "midi": 62,
          "time": 151.36348500000094,
          "velocity": 0.7480314960629921,
          "duration": 0.2727270000000033
        },
        {
          "name": "D6",
          "midi": 86,
          "time": 151.63621200000094,
          "velocity": 0.7480314960629921,
          "duration": 0.5454540000000065
        },
        {
          "name": "D5",
          "midi": 74,
          "time": 151.63621200000094,
          "velocity": 0.7480314960629921,
          "duration": 0.5454540000000065
        },
        {
          "name": "D4",
          "midi": 62,
          "time": 151.63621200000094,
          "velocity": 0.7480314960629921,
          "duration": 0.5454540000000065
        },
        {
          "name": "E6",
          "midi": 88,
          "time": 152.18166600000094,
          "velocity": 0.7480314960629921,
          "duration": 0.5454540000000065
        },
        {
          "name": "E5",
          "midi": 76,
          "time": 152.18166600000094,
          "velocity": 0.7480314960629921,
          "duration": 0.5454540000000065
        },
        {
          "name": "E4",
          "midi": 64,
          "time": 152.18166600000094,
          "velocity": 0.7480314960629921,
          "duration": 0.5454540000000065
        },
        {
          "name": "C6",
          "midi": 84,
          "time": 152.72712000000095,
          "velocity": 0.7480314960629921,
          "duration": 0.5454540000000065
        },
        {
          "name": "C5",
          "midi": 72,
          "time": 152.72712000000095,
          "velocity": 0.7480314960629921,
          "duration": 0.5454540000000065
        },
        {
          "name": "C4",
          "midi": 60,
          "time": 152.72712000000095,
          "velocity": 0.7480314960629921,
          "duration": 0.5454540000000065
        },
        {
          "name": "D6",
          "midi": 86,
          "time": 153.27257400000096,
          "velocity": 0.7480314960629921,
          "duration": 0.2727270000000033
        },
        {
          "name": "D5",
          "midi": 74,
          "time": 153.27257400000096,
          "velocity": 0.7480314960629921,
          "duration": 0.2727270000000033
        },
        {
          "name": "D4",
          "midi": 62,
          "time": 153.27257400000096,
          "velocity": 0.7480314960629921,
          "duration": 0.2727270000000033
        },
        {
          "name": "D6",
          "midi": 86,
          "time": 153.54530100000096,
          "velocity": 0.7480314960629921,
          "duration": 0.2727270000000033
        },
        {
          "name": "D5",
          "midi": 74,
          "time": 153.54530100000096,
          "velocity": 0.7480314960629921,
          "duration": 0.2727270000000033
        },
        {
          "name": "D4",
          "midi": 62,
          "time": 153.54530100000096,
          "velocity": 0.7480314960629921,
          "duration": 0.2727270000000033
        },
        {
          "name": "D6",
          "midi": 86,
          "time": 153.81802800000096,
          "velocity": 0.7480314960629921,
          "duration": 0.5454540000000065
        },
        {
          "name": "D5",
          "midi": 74,
          "time": 153.81802800000096,
          "velocity": 0.7480314960629921,
          "duration": 0.5454540000000065
        },
        {
          "name": "D4",
          "midi": 62,
          "time": 153.81802800000096,
          "velocity": 0.7480314960629921,
          "duration": 0.5454540000000065
        },
        {
          "name": "C6",
          "midi": 84,
          "time": 154.36348200000097,
          "velocity": 0.7480314960629921,
          "duration": 0.5454540000000065
        },
        {
          "name": "C5",
          "midi": 72,
          "time": 154.36348200000097,
          "velocity": 0.7480314960629921,
          "duration": 0.5454540000000065
        },
        {
          "name": "C4",
          "midi": 60,
          "time": 154.36348200000097,
          "velocity": 0.7480314960629921,
          "duration": 0.5454540000000065
        },
        {
          "name": "D6",
          "midi": 86,
          "time": 154.90893600000098,
          "velocity": 0.7480314960629921,
          "duration": 0.5454540000000065
        },
        {
          "name": "D5",
          "midi": 74,
          "time": 154.90893600000098,
          "velocity": 0.7480314960629921,
          "duration": 0.5454540000000065
        },
        {
          "name": "D4",
          "midi": 62,
          "time": 154.90893600000098,
          "velocity": 0.7480314960629921,
          "duration": 0.5454540000000065
        },
        {
          "name": "D6",
          "midi": 86,
          "time": 155.45439000000098,
          "velocity": 0.7480314960629921,
          "duration": 0.2727270000000033
        },
        {
          "name": "D5",
          "midi": 74,
          "time": 155.45439000000098,
          "velocity": 0.7480314960629921,
          "duration": 0.2727270000000033
        },
        {
          "name": "D4",
          "midi": 62,
          "time": 155.45439000000098,
          "velocity": 0.7480314960629921,
          "duration": 0.2727270000000033
        },
        {
          "name": "D6",
          "midi": 86,
          "time": 155.727117000001,
          "velocity": 0.7480314960629921,
          "duration": 0.2727270000000033
        },
        {
          "name": "D5",
          "midi": 74,
          "time": 155.727117000001,
          "velocity": 0.7480314960629921,
          "duration": 0.2727270000000033
        },
        {
          "name": "D4",
          "midi": 62,
          "time": 155.727117000001,
          "velocity": 0.7480314960629921,
          "duration": 0.2727270000000033
        },
        {
          "name": "D6",
          "midi": 86,
          "time": 155.999844000001,
          "velocity": 0.7480314960629921,
          "duration": 0.5454540000000065
        },
        {
          "name": "D5",
          "midi": 74,
          "time": 155.999844000001,
          "velocity": 0.7480314960629921,
          "duration": 0.5454540000000065
        },
        {
          "name": "D4",
          "midi": 62,
          "time": 155.999844000001,
          "velocity": 0.7480314960629921,
          "duration": 0.5454540000000065
        },
        {
          "name": "C6",
          "midi": 84,
          "time": 156.545298000001,
          "velocity": 0.7480314960629921,
          "duration": 0.5454540000000065
        },
        {
          "name": "C5",
          "midi": 72,
          "time": 156.545298000001,
          "velocity": 0.7480314960629921,
          "duration": 0.5454540000000065
        },
        {
          "name": "C4",
          "midi": 60,
          "time": 156.545298000001,
          "velocity": 0.7480314960629921,
          "duration": 0.5454540000000065
        },
        {
          "name": "D6",
          "midi": 86,
          "time": 157.090752000001,
          "velocity": 0.7480314960629921,
          "duration": 0.8181810000000098
        },
        {
          "name": "D5",
          "midi": 74,
          "time": 157.090752000001,
          "velocity": 0.7480314960629921,
          "duration": 0.8181810000000098
        },
        {
          "name": "D4",
          "midi": 62,
          "time": 157.090752000001,
          "velocity": 0.7480314960629921,
          "duration": 0.8181810000000098
        },
        {
          "name": "D6",
          "midi": 86,
          "time": 157.908933000001,
          "velocity": 0.7480314960629921,
          "duration": 0.2727270000000033
        },
        {
          "name": "D5",
          "midi": 74,
          "time": 157.908933000001,
          "velocity": 0.7480314960629921,
          "duration": 0.2727270000000033
        },
        {
          "name": "D4",
          "midi": 62,
          "time": 157.908933000001,
          "velocity": 0.7480314960629921,
          "duration": 0.2727270000000033
        },
        {
          "name": "D6",
          "midi": 86,
          "time": 158.18166000000102,
          "velocity": 0.7480314960629921,
          "duration": 0.5454540000000065
        },
        {
          "name": "D5",
          "midi": 74,
          "time": 158.18166000000102,
          "velocity": 0.7480314960629921,
          "duration": 0.5454540000000065
        },
        {
          "name": "D4",
          "midi": 62,
          "time": 158.18166000000102,
          "velocity": 0.7480314960629921,
          "duration": 0.5454540000000065
        },
        {
          "name": "C6",
          "midi": 84,
          "time": 158.72711400000102,
          "velocity": 0.7480314960629921,
          "duration": 0.5454540000000065
        },
        {
          "name": "C5",
          "midi": 72,
          "time": 158.72711400000102,
          "velocity": 0.7480314960629921,
          "duration": 0.5454540000000065
        },
        {
          "name": "C4",
          "midi": 60,
          "time": 158.72711400000102,
          "velocity": 0.7480314960629921,
          "duration": 0.5454540000000065
        },
        {
          "name": "D6",
          "midi": 86,
          "time": 159.27256800000103,
          "velocity": 0.7480314960629921,
          "duration": 0.5454540000000065
        },
        {
          "name": "D5",
          "midi": 74,
          "time": 159.27256800000103,
          "velocity": 0.7480314960629921,
          "duration": 0.5454540000000065
        },
        {
          "name": "D4",
          "midi": 62,
          "time": 159.27256800000103,
          "velocity": 0.7480314960629921,
          "duration": 0.5454540000000065
        },
        {
          "name": "D6",
          "midi": 86,
          "time": 159.81802200000104,
          "velocity": 0.7480314960629921,
          "duration": 0.2727270000000033
        },
        {
          "name": "D5",
          "midi": 74,
          "time": 159.81802200000104,
          "velocity": 0.7480314960629921,
          "duration": 0.2727270000000033
        },
        {
          "name": "D4",
          "midi": 62,
          "time": 159.81802200000104,
          "velocity": 0.7480314960629921,
          "duration": 0.2727270000000033
        },
        {
          "name": "D6",
          "midi": 86,
          "time": 160.09074900000104,
          "velocity": 0.7480314960629921,
          "duration": 0.2727270000000033
        },
        {
          "name": "D5",
          "midi": 74,
          "time": 160.09074900000104,
          "velocity": 0.7480314960629921,
          "duration": 0.2727270000000033
        },
        {
          "name": "D4",
          "midi": 62,
          "time": 160.09074900000104,
          "velocity": 0.7480314960629921,
          "duration": 0.2727270000000033
        },
        {
          "name": "D6",
          "midi": 86,
          "time": 160.36347600000104,
          "velocity": 0.7480314960629921,
          "duration": 0.5454540000000065
        },
        {
          "name": "D5",
          "midi": 74,
          "time": 160.36347600000104,
          "velocity": 0.7480314960629921,
          "duration": 0.5454540000000065
        },
        {
          "name": "D4",
          "midi": 62,
          "time": 160.36347600000104,
          "velocity": 0.7480314960629921,
          "duration": 0.5454540000000065
        },
        {
          "name": "E6",
          "midi": 88,
          "time": 160.90893000000105,
          "velocity": 0.7480314960629921,
          "duration": 0.5454540000000065
        },
        {
          "name": "E5",
          "midi": 76,
          "time": 160.90893000000105,
          "velocity": 0.7480314960629921,
          "duration": 0.5454540000000065
        },
        {
          "name": "E4",
          "midi": 64,
          "time": 160.90893000000105,
          "velocity": 0.7480314960629921,
          "duration": 0.5454540000000065
        },
        {
          "name": "C6",
          "midi": 84,
          "time": 161.45438400000106,
          "velocity": 0.7480314960629921,
          "duration": 0.5454540000000065
        },
        {
          "name": "C5",
          "midi": 72,
          "time": 161.45438400000106,
          "velocity": 0.7480314960629921,
          "duration": 0.5454540000000065
        },
        {
          "name": "C4",
          "midi": 60,
          "time": 161.45438400000106,
          "velocity": 0.7480314960629921,
          "duration": 0.5454540000000065
        },
        {
          "name": "A6",
          "midi": 93,
          "time": 161.99983800000106,
          "velocity": 0.7480314960629921,
          "duration": 0.2727270000000033
        },
        {
          "name": "A5",
          "midi": 81,
          "time": 161.99983800000106,
          "velocity": 0.7480314960629921,
          "duration": 0.2727270000000033
        },
        {
          "name": "A6",
          "midi": 93,
          "time": 162.27256500000107,
          "velocity": 0.7480314960629921,
          "duration": 0.2727270000000033
        },
        {
          "name": "A5",
          "midi": 81,
          "time": 162.27256500000107,
          "velocity": 0.7480314960629921,
          "duration": 0.2727270000000033
        },
        {
          "name": "A6",
          "midi": 93,
          "time": 162.54529200000107,
          "velocity": 0.7480314960629921,
          "duration": 0.2727270000000033
        },
        {
          "name": "A5",
          "midi": 81,
          "time": 162.54529200000107,
          "velocity": 0.7480314960629921,
          "duration": 0.2727270000000033
        },
        {
          "name": "A6",
          "midi": 93,
          "time": 162.81801900000107,
          "velocity": 0.7480314960629921,
          "duration": 0.2727270000000033
        },
        {
          "name": "A5",
          "midi": 81,
          "time": 162.81801900000107,
          "velocity": 0.7480314960629921,
          "duration": 0.2727270000000033
        },
        {
          "name": "A#6",
          "midi": 94,
          "time": 163.09074600000108,
          "velocity": 0.7480314960629921,
          "duration": 0.2727270000000033
        },
        {
          "name": "A#5",
          "midi": 82,
          "time": 163.09074600000108,
          "velocity": 0.7480314960629921,
          "duration": 0.2727270000000033
        },
        {
          "name": "A6",
          "midi": 93,
          "time": 163.36347300000108,
          "velocity": 0.7480314960629921,
          "duration": 0.2727270000000033
        },
        {
          "name": "A5",
          "midi": 81,
          "time": 163.36347300000108,
          "velocity": 0.7480314960629921,
          "duration": 0.5454540000000065
        },
        {
          "name": "A6",
          "midi": 93,
          "time": 163.90892700000109,
          "velocity": 0.7480314960629921,
          "duration": 0.2727270000000033
        },
        {
          "name": "A5",
          "midi": 81,
          "time": 163.90892700000109,
          "velocity": 0.7480314960629921,
          "duration": 0.2727270000000033
        },
        {
          "name": "G6",
          "midi": 91,
          "time": 164.1816540000011,
          "velocity": 0.7480314960629921,
          "duration": 0.2727270000000033
        },
        {
          "name": "G5",
          "midi": 79,
          "time": 164.1816540000011,
          "velocity": 0.7480314960629921,
          "duration": 0.2727270000000033
        },
        {
          "name": "F6",
          "midi": 89,
          "time": 164.4543810000011,
          "velocity": 0.7480314960629921,
          "duration": 1.363634999999988
        },
        {
          "name": "F5",
          "midi": 77,
          "time": 164.4543810000011,
          "velocity": 0.7480314960629921,
          "duration": 1.363634999999988
        },
        {
          "name": "D6",
          "midi": 86,
          "time": 165.81801600000108,
          "velocity": 0.7480314960629921,
          "duration": 0.8181810000000098
        },
        {
          "name": "D5",
          "midi": 74,
          "time": 165.81801600000108,
          "velocity": 0.7480314960629921,
          "duration": 0.8181810000000098
        },
        {
          "name": "D4",
          "midi": 62,
          "time": 165.81801600000108,
          "velocity": 0.7480314960629921,
          "duration": 0.8181810000000098
        },
        {
          "name": "D6",
          "midi": 86,
          "time": 166.6361970000011,
          "velocity": 0.7480314960629921,
          "duration": 0.2727270000000033
        },
        {
          "name": "D5",
          "midi": 74,
          "time": 166.6361970000011,
          "velocity": 0.7480314960629921,
          "duration": 0.2727270000000033
        },
        {
          "name": "D4",
          "midi": 62,
          "time": 166.6361970000011,
          "velocity": 0.7480314960629921,
          "duration": 0.2727270000000033
        },
        {
          "name": "D6",
          "midi": 86,
          "time": 166.9089240000011,
          "velocity": 0.7480314960629921,
          "duration": 0.5454540000000065
        },
        {
          "name": "D5",
          "midi": 74,
          "time": 166.9089240000011,
          "velocity": 0.7480314960629921,
          "duration": 0.5454540000000065
        },
        {
          "name": "D4",
          "midi": 62,
          "time": 166.9089240000011,
          "velocity": 0.7480314960629921,
          "duration": 0.5454540000000065
        },
        {
          "name": "C6",
          "midi": 84,
          "time": 167.4543780000011,
          "velocity": 0.7480314960629921,
          "duration": 0.5454540000000065
        },
        {
          "name": "C5",
          "midi": 72,
          "time": 167.4543780000011,
          "velocity": 0.7480314960629921,
          "duration": 0.5454540000000065
        },
        {
          "name": "C4",
          "midi": 60,
          "time": 167.4543780000011,
          "velocity": 0.7480314960629921,
          "duration": 0.5454540000000065
        },
        {
          "name": "D6",
          "midi": 86,
          "time": 167.9998320000011,
          "velocity": 0.7480314960629921,
          "duration": 0.5454540000000065
        },
        {
          "name": "D5",
          "midi": 74,
          "time": 167.9998320000011,
          "velocity": 0.7480314960629921,
          "duration": 0.5454540000000065
        },
        {
          "name": "D4",
          "midi": 62,
          "time": 167.9998320000011,
          "velocity": 0.7480314960629921,
          "duration": 0.5454540000000065
        },
        {
          "name": "D6",
          "midi": 86,
          "time": 168.5452860000011,
          "velocity": 0.7480314960629921,
          "duration": 0.2727270000000033
        },
        {
          "name": "D5",
          "midi": 74,
          "time": 168.5452860000011,
          "velocity": 0.7480314960629921,
          "duration": 0.2727270000000033
        },
        {
          "name": "D4",
          "midi": 62,
          "time": 168.5452860000011,
          "velocity": 0.7480314960629921,
          "duration": 0.2727270000000033
        },
        {
          "name": "D6",
          "midi": 86,
          "time": 168.81801300000112,
          "velocity": 0.7480314960629921,
          "duration": 0.2727270000000033
        },
        {
          "name": "D5",
          "midi": 74,
          "time": 168.81801300000112,
          "velocity": 0.7480314960629921,
          "duration": 0.2727270000000033
        },
        {
          "name": "D4",
          "midi": 62,
          "time": 168.81801300000112,
          "velocity": 0.7480314960629921,
          "duration": 0.2727270000000033
        },
        {
          "name": "D6",
          "midi": 86,
          "time": 169.09074000000112,
          "velocity": 0.7480314960629921,
          "duration": 0.5454540000000065
        },
        {
          "name": "D5",
          "midi": 74,
          "time": 169.09074000000112,
          "velocity": 0.7480314960629921,
          "duration": 0.5454540000000065
        },
        {
          "name": "D4",
          "midi": 62,
          "time": 169.09074000000112,
          "velocity": 0.7480314960629921,
          "duration": 0.5454540000000065
        },
        {
          "name": "E6",
          "midi": 88,
          "time": 169.63619400000113,
          "velocity": 0.7480314960629921,
          "duration": 0.5454540000000065
        },
        {
          "name": "E5",
          "midi": 76,
          "time": 169.63619400000113,
          "velocity": 0.7480314960629921,
          "duration": 0.5454540000000065
        },
        {
          "name": "E4",
          "midi": 64,
          "time": 169.63619400000113,
          "velocity": 0.7480314960629921,
          "duration": 0.5454540000000065
        },
        {
          "name": "C6",
          "midi": 84,
          "time": 170.18164800000113,
          "velocity": 0.7480314960629921,
          "duration": 0.5454540000000065
        },
        {
          "name": "C5",
          "midi": 72,
          "time": 170.18164800000113,
          "velocity": 0.7480314960629921,
          "duration": 0.5454540000000065
        },
        {
          "name": "C4",
          "midi": 60,
          "time": 170.18164800000113,
          "velocity": 0.7480314960629921,
          "duration": 0.5454540000000065
        },
        {
          "name": "A6",
          "midi": 93,
          "time": 170.72710200000114,
          "velocity": 0.7480314960629921,
          "duration": 0.2727270000000033
        },
        {
          "name": "A5",
          "midi": 81,
          "time": 170.72710200000114,
          "velocity": 0.7480314960629921,
          "duration": 0.2727270000000033
        },
        {
          "name": "A6",
          "midi": 93,
          "time": 170.99982900000114,
          "velocity": 0.7480314960629921,
          "duration": 0.2727270000000033
        },
        {
          "name": "A5",
          "midi": 81,
          "time": 170.99982900000114,
          "velocity": 0.7480314960629921,
          "duration": 0.2727270000000033
        },
        {
          "name": "A6",
          "midi": 93,
          "time": 171.27255600000115,
          "velocity": 0.7480314960629921,
          "duration": 0.2727270000000033
        },
        {
          "name": "A5",
          "midi": 81,
          "time": 171.27255600000115,
          "velocity": 0.7480314960629921,
          "duration": 0.2727270000000033
        },
        {
          "name": "A6",
          "midi": 93,
          "time": 171.54528300000115,
          "velocity": 0.7480314960629921,
          "duration": 0.2727270000000033
        },
        {
          "name": "A5",
          "midi": 81,
          "time": 171.54528300000115,
          "velocity": 0.7480314960629921,
          "duration": 0.2727270000000033
        },
        {
          "name": "A#6",
          "midi": 94,
          "time": 171.81801000000115,
          "velocity": 0.7480314960629921,
          "duration": 0.2727270000000033
        },
        {
          "name": "A#5",
          "midi": 82,
          "time": 171.81801000000115,
          "velocity": 0.7480314960629921,
          "duration": 0.2727270000000033
        },
        {
          "name": "A6",
          "midi": 93,
          "time": 172.09073700000116,
          "velocity": 0.7480314960629921,
          "duration": 0.2727270000000033
        },
        {
          "name": "A5",
          "midi": 81,
          "time": 172.09073700000116,
          "velocity": 0.7480314960629921,
          "duration": 0.5454540000000065
        },
        {
          "name": "A6",
          "midi": 93,
          "time": 172.63619100000116,
          "velocity": 0.7480314960629921,
          "duration": 0.2727270000000033
        },
        {
          "name": "A5",
          "midi": 81,
          "time": 172.63619100000116,
          "velocity": 0.7480314960629921,
          "duration": 0.2727270000000033
        },
        {
          "name": "G6",
          "midi": 91,
          "time": 172.90891800000117,
          "velocity": 0.7480314960629921,
          "duration": 0.2727270000000033
        },
        {
          "name": "G5",
          "midi": 79,
          "time": 172.90891800000117,
          "velocity": 0.7480314960629921,
          "duration": 0.2727270000000033
        },
        {
          "name": "F6",
          "midi": 89,
          "time": 173.18164500000117,
          "velocity": 0.7480314960629921,
          "duration": 0.8181810000000098
        },
        {
          "name": "F5",
          "midi": 77,
          "time": 173.18164500000117,
          "velocity": 0.7480314960629921,
          "duration": 0.8181810000000098
        },
        {
          "name": "E6",
          "midi": 88,
          "time": 173.99982600000118,
          "velocity": 0.7480314960629921,
          "duration": 0.5454540000000065
        },
        {
          "name": "E5",
          "midi": 76,
          "time": 173.99982600000118,
          "velocity": 0.7480314960629921,
          "duration": 0.5454540000000065
        },
        {
          "name": "D6",
          "midi": 86,
          "time": 174.54528000000118,
          "velocity": 0.7480314960629921,
          "duration": 2.1818159999999978
        },
        {
          "name": "D5",
          "midi": 74,
          "time": 174.54528000000118,
          "velocity": 0.7480314960629921,
          "duration": 2.1818159999999978
        }
      ],
      "controlChanges": {
        "7": [
          {
            "number": 7,
            "time": 0,
            "value": 0.7480314960629921
          },
          {
            "number": 7,
            "time": 0,
            "value": 0.7480314960629921
          }
        ],
        "10": [
          {
            "number": 10,
            "time": 0,
            "value": 0.7480314960629921
          },
          {
            "number": 10,
            "time": 0,
            "value": 0.7480314960629921
          }
        ],
        "11": [
          {
            "number": 11,
            "time": 0,
            "value": 1
          },
          {
            "number": 11,
            "time": 0,
            "value": 1
          }
        ],
        "91": [
          {
            "number": 91,
            "time": 0,
            "value": 0
          },
          {
            "number": 91,
            "time": 0,
            "value": 0
          }
        ],
        "92": [
          {
            "number": 92,
            "time": 0,
            "value": 0
          },
          {
            "number": 92,
            "time": 0,
            "value": 0
          }
        ],
        "93": [
          {
            "number": 93,
            "time": 0,
            "value": 0
          },
          {
            "number": 93,
            "time": 0,
            "value": 0
          }
        ],
        "95": [
          {
            "number": 95,
            "time": 0,
            "value": 0
          },
          {
            "number": 95,
            "time": 0,
            "value": 0
          }
        ]
      },
      "id": 1,
      "instrumentNumber": 1,
      "instrument": "bright acoustic piano",
      "instrumentFamily": "piano",
      "channelNumber": 1,
      "isPercussion": false
    },
    {
      "startTime": 2.181816,
      "duration": 176.72709600000147,
      "length": 702,
      "notes": [
        {
          "name": "D3",
          "midi": 50,
          "time": 2.181816,
          "velocity": 0.7480314960629921,
          "duration": 0.27272700000000016
        },
        {
          "name": "A3",
          "midi": 57,
          "time": 2.454543,
          "velocity": 0.7480314960629921,
          "duration": 0.27272700000000016
        },
        {
          "name": "D4",
          "midi": 62,
          "time": 2.7272700000000003,
          "velocity": 0.7480314960629921,
          "duration": 0.27272700000000016
        },
        {
          "name": "F4",
          "midi": 65,
          "time": 2.9999970000000005,
          "velocity": 0.7480314960629921,
          "duration": 0.5454539999999999
        },
        {
          "name": "D4",
          "midi": 62,
          "time": 3.5454510000000004,
          "velocity": 0.7480314960629921,
          "duration": 0.27272700000000016
        },
        {
          "name": "A3",
          "midi": 57,
          "time": 3.8181780000000005,
          "velocity": 0.7480314960629921,
          "duration": 0.5454540000000003
        },
        {
          "name": "A#2",
          "midi": 46,
          "time": 4.363632000000001,
          "velocity": 0.7480314960629921,
          "duration": 0.2727269999999997
        },
        {
          "name": "F3",
          "midi": 53,
          "time": 4.636359000000001,
          "velocity": 0.7480314960629921,
          "duration": 0.2727269999999997
        },
        {
          "name": "A#3",
          "midi": 58,
          "time": 4.909086,
          "velocity": 0.7480314960629921,
          "duration": 0.2727269999999997
        },
        {
          "name": "D4",
          "midi": 62,
          "time": 5.181813,
          "velocity": 0.7480314960629921,
          "duration": 0.5454540000000003
        },
        {
          "name": "A#3",
          "midi": 58,
          "time": 5.727267,
          "velocity": 0.7480314960629921,
          "duration": 0.2727269999999997
        },
        {
          "name": "F3",
          "midi": 53,
          "time": 5.999994,
          "velocity": 0.7480314960629921,
          "duration": 0.5454540000000003
        },
        {
          "name": "F2",
          "midi": 41,
          "time": 6.545448,
          "velocity": 0.7480314960629921,
          "duration": 0.2727269999999997
        },
        {
          "name": "C3",
          "midi": 48,
          "time": 6.818175,
          "velocity": 0.7480314960629921,
          "duration": 0.2727269999999997
        },
        {
          "name": "F3",
          "midi": 53,
          "time": 7.090902,
          "velocity": 0.7480314960629921,
          "duration": 0.2727269999999997
        },
        {
          "name": "A3",
          "midi": 57,
          "time": 7.3636289999999995,
          "velocity": 0.7480314960629921,
          "duration": 0.5454540000000003
        },
        {
          "name": "F3",
          "midi": 53,
          "time": 7.909083,
          "velocity": 0.7480314960629921,
          "duration": 0.2727270000000006
        },
        {
          "name": "C3",
          "midi": 48,
          "time": 8.18181,
          "velocity": 0.7480314960629921,
          "duration": 0.5454539999999994
        },
        {
          "name": "C3",
          "midi": 48,
          "time": 8.727264,
          "velocity": 0.7480314960629921,
          "duration": 0.2727269999999997
        },
        {
          "name": "G3",
          "midi": 55,
          "time": 8.999991,
          "velocity": 0.7480314960629921,
          "duration": 0.2727269999999997
        },
        {
          "name": "C4",
          "midi": 60,
          "time": 9.272718,
          "velocity": 0.7480314960629921,
          "duration": 0.2727269999999997
        },
        {
          "name": "E4",
          "midi": 64,
          "time": 9.545444999999999,
          "velocity": 0.7480314960629921,
          "duration": 0.5454539999999994
        },
        {
          "name": "C4",
          "midi": 60,
          "time": 10.090898999999999,
          "velocity": 0.7480314960629921,
          "duration": 0.2727269999999997
        },
        {
          "name": "G3",
          "midi": 55,
          "time": 10.363625999999998,
          "velocity": 0.7480314960629921,
          "duration": 0.5454539999999994
        },
        {
          "name": "D3",
          "midi": 50,
          "time": 10.909079999999998,
          "velocity": 0.7480314960629921,
          "duration": 0.2727269999999997
        },
        {
          "name": "D2",
          "midi": 38,
          "time": 10.909079999999998,
          "velocity": 0.7480314960629921,
          "duration": 0.2727269999999997
        },
        {
          "name": "A3",
          "midi": 57,
          "time": 11.181806999999997,
          "velocity": 0.7480314960629921,
          "duration": 0.2727269999999997
        },
        {
          "name": "A2",
          "midi": 45,
          "time": 11.181806999999997,
          "velocity": 0.7480314960629921,
          "duration": 0.2727269999999997
        },
        {
          "name": "D4",
          "midi": 62,
          "time": 11.454533999999997,
          "velocity": 0.7480314960629921,
          "duration": 0.2727269999999997
        },
        {
          "name": "D3",
          "midi": 50,
          "time": 11.454533999999997,
          "velocity": 0.7480314960629921,
          "duration": 0.2727269999999997
        },
        {
          "name": "F4",
          "midi": 65,
          "time": 11.727260999999997,
          "velocity": 0.7480314960629921,
          "duration": 0.5454539999999994
        },
        {
          "name": "F3",
          "midi": 53,
          "time": 11.727260999999997,
          "velocity": 0.7480314960629921,
          "duration": 0.5454539999999994
        },
        {
          "name": "D4",
          "midi": 62,
          "time": 12.272714999999996,
          "velocity": 0.7480314960629921,
          "duration": 0.2727269999999997
        },
        {
          "name": "D3",
          "midi": 50,
          "time": 12.272714999999996,
          "velocity": 0.7480314960629921,
          "duration": 0.2727269999999997
        },
        {
          "name": "A3",
          "midi": 57,
          "time": 12.545441999999996,
          "velocity": 0.7480314960629921,
          "duration": 0.5454539999999994
        },
        {
          "name": "A2",
          "midi": 45,
          "time": 12.545441999999996,
          "velocity": 0.7480314960629921,
          "duration": 0.5454539999999994
        },
        {
          "name": "A#2",
          "midi": 46,
          "time": 13.090895999999995,
          "velocity": 0.7480314960629921,
          "duration": 0.2727269999999997
        },
        {
          "name": "A#1",
          "midi": 34,
          "time": 13.090895999999995,
          "velocity": 0.7480314960629921,
          "duration": 0.2727269999999997
        },
        {
          "name": "F3",
          "midi": 53,
          "time": 13.363622999999995,
          "velocity": 0.7480314960629921,
          "duration": 0.2727269999999997
        },
        {
          "name": "F2",
          "midi": 41,
          "time": 13.363622999999995,
          "velocity": 0.7480314960629921,
          "duration": 0.2727269999999997
        },
        {
          "name": "A#3",
          "midi": 58,
          "time": 13.636349999999995,
          "velocity": 0.7480314960629921,
          "duration": 0.2727269999999997
        },
        {
          "name": "A#2",
          "midi": 46,
          "time": 13.636349999999995,
          "velocity": 0.7480314960629921,
          "duration": 0.2727269999999997
        },
        {
          "name": "D4",
          "midi": 62,
          "time": 13.909076999999995,
          "velocity": 0.7480314960629921,
          "duration": 0.5454539999999994
        },
        {
          "name": "D3",
          "midi": 50,
          "time": 13.909076999999995,
          "velocity": 0.7480314960629921,
          "duration": 0.5454539999999994
        },
        {
          "name": "A#3",
          "midi": 58,
          "time": 14.454530999999994,
          "velocity": 0.7480314960629921,
          "duration": 0.2727269999999997
        },
        {
          "name": "A#2",
          "midi": 46,
          "time": 14.454530999999994,
          "velocity": 0.7480314960629921,
          "duration": 0.2727269999999997
        },
        {
          "name": "F3",
          "midi": 53,
          "time": 14.727257999999994,
          "velocity": 0.7480314960629921,
          "duration": 0.5454539999999994
        },
        {
          "name": "F2",
          "midi": 41,
          "time": 14.727257999999994,
          "velocity": 0.7480314960629921,
          "duration": 0.5454539999999994
        },
        {
          "name": "F3",
          "midi": 53,
          "time": 15.272711999999993,
          "velocity": 0.7480314960629921,
          "duration": 0.2727269999999997
        },
        {
          "name": "F2",
          "midi": 41,
          "time": 15.272711999999993,
          "velocity": 0.7480314960629921,
          "duration": 0.2727269999999997
        },
        {
          "name": "C4",
          "midi": 60,
          "time": 15.545438999999993,
          "velocity": 0.7480314960629921,
          "duration": 0.2727269999999997
        },
        {
          "name": "C3",
          "midi": 48,
          "time": 15.545438999999993,
          "velocity": 0.7480314960629921,
          "duration": 0.2727269999999997
        },
        {
          "name": "F4",
          "midi": 65,
          "time": 15.818165999999993,
          "velocity": 0.7480314960629921,
          "duration": 0.2727270000000015
        },
        {
          "name": "F3",
          "midi": 53,
          "time": 15.818165999999993,
          "velocity": 0.7480314960629921,
          "duration": 0.2727270000000015
        },
        {
          "name": "A4",
          "midi": 69,
          "time": 16.090892999999994,
          "velocity": 0.7480314960629921,
          "duration": 0.5454539999999994
        },
        {
          "name": "A3",
          "midi": 57,
          "time": 16.090892999999994,
          "velocity": 0.7480314960629921,
          "duration": 0.5454539999999994
        },
        {
          "name": "F4",
          "midi": 65,
          "time": 16.636346999999994,
          "velocity": 0.7480314960629921,
          "duration": 0.2727269999999997
        },
        {
          "name": "F3",
          "midi": 53,
          "time": 16.636346999999994,
          "velocity": 0.7480314960629921,
          "duration": 0.2727269999999997
        },
        {
          "name": "C4",
          "midi": 60,
          "time": 16.909073999999993,
          "velocity": 0.7480314960629921,
          "duration": 0.5454539999999994
        },
        {
          "name": "C3",
          "midi": 48,
          "time": 16.909073999999993,
          "velocity": 0.7480314960629921,
          "duration": 0.5454539999999994
        },
        {
          "name": "C3",
          "midi": 48,
          "time": 17.454527999999993,
          "velocity": 0.7480314960629921,
          "duration": 0.2727269999999997
        },
        {
          "name": "C2",
          "midi": 36,
          "time": 17.454527999999993,
          "velocity": 0.7480314960629921,
          "duration": 0.2727269999999997
        },
        {
          "name": "G3",
          "midi": 55,
          "time": 17.727254999999992,
          "velocity": 0.7480314960629921,
          "duration": 0.2727269999999997
        },
        {
          "name": "G2",
          "midi": 43,
          "time": 17.727254999999992,
          "velocity": 0.7480314960629921,
          "duration": 0.2727269999999997
        },
        {
          "name": "C4",
          "midi": 60,
          "time": 17.999981999999992,
          "velocity": 0.7480314960629921,
          "duration": 0.2727269999999997
        },
        {
          "name": "C3",
          "midi": 48,
          "time": 17.999981999999992,
          "velocity": 0.7480314960629921,
          "duration": 0.2727269999999997
        },
        {
          "name": "E4",
          "midi": 64,
          "time": 18.272708999999992,
          "velocity": 0.7480314960629921,
          "duration": 0.5454539999999994
        },
        {
          "name": "E3",
          "midi": 52,
          "time": 18.272708999999992,
          "velocity": 0.7480314960629921,
          "duration": 0.5454539999999994
        },
        {
          "name": "C4",
          "midi": 60,
          "time": 18.81816299999999,
          "velocity": 0.7480314960629921,
          "duration": 0.2727269999999997
        },
        {
          "name": "C3",
          "midi": 48,
          "time": 18.81816299999999,
          "velocity": 0.7480314960629921,
          "duration": 0.2727269999999997
        },
        {
          "name": "G3",
          "midi": 55,
          "time": 19.09088999999999,
          "velocity": 0.7480314960629921,
          "duration": 0.5454539999999994
        },
        {
          "name": "G2",
          "midi": 43,
          "time": 19.09088999999999,
          "velocity": 0.7480314960629921,
          "duration": 0.5454539999999994
        },
        {
          "name": "D3",
          "midi": 50,
          "time": 19.63634399999999,
          "velocity": 0.7480314960629921,
          "duration": 0.2727269999999997
        },
        {
          "name": "A3",
          "midi": 57,
          "time": 19.90907099999999,
          "velocity": 0.7480314960629921,
          "duration": 0.2727269999999997
        },
        {
          "name": "D4",
          "midi": 62,
          "time": 20.18179799999999,
          "velocity": 0.7480314960629921,
          "duration": 0.2727269999999997
        },
        {
          "name": "F4",
          "midi": 65,
          "time": 20.45452499999999,
          "velocity": 0.7480314960629921,
          "duration": 0.5454539999999994
        },
        {
          "name": "D4",
          "midi": 62,
          "time": 20.99997899999999,
          "velocity": 0.7480314960629921,
          "duration": 0.2727269999999997
        },
        {
          "name": "A3",
          "midi": 57,
          "time": 21.27270599999999,
          "velocity": 0.7480314960629921,
          "duration": 0.5454539999999994
        },
        {
          "name": "A#2",
          "midi": 46,
          "time": 21.81815999999999,
          "velocity": 0.7480314960629921,
          "duration": 0.2727269999999997
        },
        {
          "name": "F3",
          "midi": 53,
          "time": 22.090886999999988,
          "velocity": 0.7480314960629921,
          "duration": 0.2727269999999997
        },
        {
          "name": "A#3",
          "midi": 58,
          "time": 22.363613999999988,
          "velocity": 0.7480314960629921,
          "duration": 0.2727269999999997
        },
        {
          "name": "D4",
          "midi": 62,
          "time": 22.636340999999987,
          "velocity": 0.7480314960629921,
          "duration": 0.5454539999999994
        },
        {
          "name": "A#3",
          "midi": 58,
          "time": 23.181794999999987,
          "velocity": 0.7480314960629921,
          "duration": 0.2727269999999997
        },
        {
          "name": "F3",
          "midi": 53,
          "time": 23.454521999999987,
          "velocity": 0.7480314960629921,
          "duration": 0.5454539999999994
        },
        {
          "name": "F2",
          "midi": 41,
          "time": 23.999975999999986,
          "velocity": 0.7480314960629921,
          "duration": 0.2727269999999997
        },
        {
          "name": "C3",
          "midi": 48,
          "time": 24.272702999999986,
          "velocity": 0.7480314960629921,
          "duration": 0.2727269999999997
        },
        {
          "name": "F3",
          "midi": 53,
          "time": 24.545429999999985,
          "velocity": 0.7480314960629921,
          "duration": 0.2727269999999997
        },
        {
          "name": "A3",
          "midi": 57,
          "time": 24.818156999999985,
          "velocity": 0.7480314960629921,
          "duration": 0.5454539999999994
        },
        {
          "name": "F3",
          "midi": 53,
          "time": 25.363610999999985,
          "velocity": 0.7480314960629921,
          "duration": 0.2727269999999997
        },
        {
          "name": "C3",
          "midi": 48,
          "time": 25.636337999999984,
          "velocity": 0.7480314960629921,
          "duration": 0.5454539999999994
        },
        {
          "name": "C3",
          "midi": 48,
          "time": 26.181791999999984,
          "velocity": 0.7480314960629921,
          "duration": 0.2727269999999997
        },
        {
          "name": "G3",
          "midi": 55,
          "time": 26.454518999999983,
          "velocity": 0.7480314960629921,
          "duration": 0.2727269999999997
        },
        {
          "name": "C4",
          "midi": 60,
          "time": 26.727245999999983,
          "velocity": 0.7480314960629921,
          "duration": 0.2727269999999997
        },
        {
          "name": "E4",
          "midi": 64,
          "time": 26.999972999999983,
          "velocity": 0.7480314960629921,
          "duration": 0.5454539999999994
        },
        {
          "name": "C4",
          "midi": 60,
          "time": 27.545426999999982,
          "velocity": 0.7480314960629921,
          "duration": 0.2727269999999997
        },
        {
          "name": "G3",
          "midi": 55,
          "time": 27.818153999999982,
          "velocity": 0.7480314960629921,
          "duration": 0.5454539999999994
        },
        {
          "name": "D3",
          "midi": 50,
          "time": 28.36360799999998,
          "velocity": 0.7480314960629921,
          "duration": 0.2727269999999997
        },
        {
          "name": "A3",
          "midi": 57,
          "time": 28.63633499999998,
          "velocity": 0.7480314960629921,
          "duration": 0.2727269999999997
        },
        {
          "name": "D4",
          "midi": 62,
          "time": 28.90906199999998,
          "velocity": 0.7480314960629921,
          "duration": 0.2727269999999997
        },
        {
          "name": "F4",
          "midi": 65,
          "time": 29.18178899999998,
          "velocity": 0.7480314960629921,
          "duration": 0.5454539999999994
        },
        {
          "name": "D4",
          "midi": 62,
          "time": 29.72724299999998,
          "velocity": 0.7480314960629921,
          "duration": 0.2727269999999997
        },
        {
          "name": "A3",
          "midi": 57,
          "time": 29.99996999999998,
          "velocity": 0.7480314960629921,
          "duration": 0.5454539999999994
        },
        {
          "name": "A#2",
          "midi": 46,
          "time": 30.54542399999998,
          "velocity": 0.7480314960629921,
          "duration": 0.2727269999999997
        },
        {
          "name": "F3",
          "midi": 53,
          "time": 30.81815099999998,
          "velocity": 0.7480314960629921,
          "duration": 0.2727269999999997
        },
        {
          "name": "A#3",
          "midi": 58,
          "time": 31.09087799999998,
          "velocity": 0.7480314960629921,
          "duration": 0.2727269999999997
        },
        {
          "name": "D4",
          "midi": 62,
          "time": 31.36360499999998,
          "velocity": 0.7480314960629921,
          "duration": 0.5454539999999994
        },
        {
          "name": "A#3",
          "midi": 58,
          "time": 31.909058999999978,
          "velocity": 0.7480314960629921,
          "duration": 0.2727270000000033
        },
        {
          "name": "F3",
          "midi": 53,
          "time": 32.18178599999998,
          "velocity": 0.7480314960629921,
          "duration": 0.5454539999999994
        },
        {
          "name": "F2",
          "midi": 41,
          "time": 32.72723999999998,
          "velocity": 0.7480314960629921,
          "duration": 0.2727270000000033
        },
        {
          "name": "C3",
          "midi": 48,
          "time": 32.999966999999984,
          "velocity": 0.7480314960629921,
          "duration": 0.2727270000000033
        },
        {
          "name": "F3",
          "midi": 53,
          "time": 33.27269399999999,
          "velocity": 0.7480314960629921,
          "duration": 0.2727270000000033
        },
        {
          "name": "A3",
          "midi": 57,
          "time": 33.54542099999999,
          "velocity": 0.7480314960629921,
          "duration": 0.5454539999999994
        },
        {
          "name": "F3",
          "midi": 53,
          "time": 34.09087499999999,
          "velocity": 0.7480314960629921,
          "duration": 0.2727270000000033
        },
        {
          "name": "C3",
          "midi": 48,
          "time": 34.36360199999999,
          "velocity": 0.7480314960629921,
          "duration": 0.5454539999999994
        },
        {
          "name": "C3",
          "midi": 48,
          "time": 34.90905599999999,
          "velocity": 0.7480314960629921,
          "duration": 0.2727270000000033
        },
        {
          "name": "G3",
          "midi": 55,
          "time": 35.181782999999996,
          "velocity": 0.7480314960629921,
          "duration": 0.2727270000000033
        },
        {
          "name": "C4",
          "midi": 60,
          "time": 35.45451,
          "velocity": 0.7480314960629921,
          "duration": 0.2727270000000033
        },
        {
          "name": "E4",
          "midi": 64,
          "time": 35.727237,
          "velocity": 0.7480314960629921,
          "duration": 0.5454539999999994
        },
        {
          "name": "C4",
          "midi": 60,
          "time": 36.272691,
          "velocity": 0.7480314960629921,
          "duration": 0.2727270000000033
        },
        {
          "name": "G3",
          "midi": 55,
          "time": 36.545418000000005,
          "velocity": 0.7480314960629921,
          "duration": 0.5454539999999994
        },
        {
          "name": "A#2",
          "midi": 46,
          "time": 37.090872000000005,
          "velocity": 0.7480314960629921,
          "duration": 0.2727270000000033
        },
        {
          "name": "F3",
          "midi": 53,
          "time": 37.36359900000001,
          "velocity": 0.7480314960629921,
          "duration": 0.2727270000000033
        },
        {
          "name": "A#3",
          "midi": 58,
          "time": 37.63632600000001,
          "velocity": 0.7480314960629921,
          "duration": 0.2727270000000033
        },
        {
          "name": "D4",
          "midi": 62,
          "time": 37.909053000000014,
          "velocity": 0.7480314960629921,
          "duration": 0.5454539999999994
        },
        {
          "name": "A#3",
          "midi": 58,
          "time": 38.454507000000014,
          "velocity": 0.7480314960629921,
          "duration": 0.2727270000000033
        },
        {
          "name": "F3",
          "midi": 53,
          "time": 38.72723400000002,
          "velocity": 0.7480314960629921,
          "duration": 0.5454539999999994
        },
        {
          "name": "C3",
          "midi": 48,
          "time": 39.27268800000002,
          "velocity": 0.7480314960629921,
          "duration": 0.2727270000000033
        },
        {
          "name": "G3",
          "midi": 55,
          "time": 39.54541500000002,
          "velocity": 0.7480314960629921,
          "duration": 0.2727270000000033
        },
        {
          "name": "C4",
          "midi": 60,
          "time": 39.81814200000002,
          "velocity": 0.7480314960629921,
          "duration": 0.2727270000000033
        },
        {
          "name": "E4",
          "midi": 64,
          "time": 40.090869000000026,
          "velocity": 0.7480314960629921,
          "duration": 0.5454539999999994
        },
        {
          "name": "C4",
          "midi": 60,
          "time": 40.636323000000026,
          "velocity": 0.7480314960629921,
          "duration": 0.2727270000000033
        },
        {
          "name": "G3",
          "midi": 55,
          "time": 40.90905000000003,
          "velocity": 0.7480314960629921,
          "duration": 0.5454539999999994
        },
        {
          "name": "D3",
          "midi": 50,
          "time": 41.45450400000003,
          "velocity": 0.7480314960629921,
          "duration": 0.2727270000000033
        },
        {
          "name": "A3",
          "midi": 57,
          "time": 41.72723100000003,
          "velocity": 0.7480314960629921,
          "duration": 0.2727270000000033
        },
        {
          "name": "D4",
          "midi": 62,
          "time": 41.999958000000035,
          "velocity": 0.7480314960629921,
          "duration": 0.2727270000000033
        },
        {
          "name": "F4",
          "midi": 65,
          "time": 42.27268500000004,
          "velocity": 0.7480314960629921,
          "duration": 0.5454539999999994
        },
        {
          "name": "D4",
          "midi": 62,
          "time": 42.81813900000004,
          "velocity": 0.7480314960629921,
          "duration": 0.2727270000000033
        },
        {
          "name": "A3",
          "midi": 57,
          "time": 43.09086600000004,
          "velocity": 0.7480314960629921,
          "duration": 0.5454539999999994
        },
        {
          "name": "F2",
          "midi": 41,
          "time": 43.63632000000004,
          "velocity": 0.7480314960629921,
          "duration": 0.2727270000000033
        },
        {
          "name": "C3",
          "midi": 48,
          "time": 43.909047000000044,
          "velocity": 0.7480314960629921,
          "duration": 0.2727270000000033
        },
        {
          "name": "F3",
          "midi": 53,
          "time": 44.18177400000005,
          "velocity": 0.7480314960629921,
          "duration": 0.2727270000000033
        },
        {
          "name": "A3",
          "midi": 57,
          "time": 44.45450100000005,
          "velocity": 0.7480314960629921,
          "duration": 0.5454539999999994
        },
        {
          "name": "F3",
          "midi": 53,
          "time": 44.99995500000005,
          "velocity": 0.7480314960629921,
          "duration": 0.2727270000000033
        },
        {
          "name": "C3",
          "midi": 48,
          "time": 45.27268200000005,
          "velocity": 0.7480314960629921,
          "duration": 0.5454539999999994
        },
        {
          "name": "A#2",
          "midi": 46,
          "time": 45.81813600000005,
          "velocity": 0.7480314960629921,
          "duration": 0.2727270000000033
        },
        {
          "name": "F3",
          "midi": 53,
          "time": 46.090863000000056,
          "velocity": 0.7480314960629921,
          "duration": 0.2727270000000033
        },
        {
          "name": "A#3",
          "midi": 58,
          "time": 46.36359000000006,
          "velocity": 0.7480314960629921,
          "duration": 0.2727270000000033
        },
        {
          "name": "D4",
          "midi": 62,
          "time": 46.63631700000006,
          "velocity": 0.7480314960629921,
          "duration": 0.5454539999999994
        },
        {
          "name": "A#3",
          "midi": 58,
          "time": 47.18177100000006,
          "velocity": 0.7480314960629921,
          "duration": 0.2727270000000033
        },
        {
          "name": "F3",
          "midi": 53,
          "time": 47.454498000000065,
          "velocity": 0.7480314960629921,
          "duration": 0.5454539999999994
        },
        {
          "name": "C3",
          "midi": 48,
          "time": 47.999952000000064,
          "velocity": 0.7480314960629921,
          "duration": 0.2727270000000033
        },
        {
          "name": "G3",
          "midi": 55,
          "time": 48.27267900000007,
          "velocity": 0.7480314960629921,
          "duration": 0.2727270000000033
        },
        {
          "name": "C4",
          "midi": 60,
          "time": 48.54540600000007,
          "velocity": 0.7480314960629921,
          "duration": 0.2727270000000033
        },
        {
          "name": "E4",
          "midi": 64,
          "time": 48.818133000000074,
          "velocity": 0.7480314960629921,
          "duration": 0.5454539999999994
        },
        {
          "name": "C4",
          "midi": 60,
          "time": 49.363587000000074,
          "velocity": 0.7480314960629921,
          "duration": 0.2727270000000033
        },
        {
          "name": "G3",
          "midi": 55,
          "time": 49.63631400000008,
          "velocity": 0.7480314960629921,
          "duration": 0.5454539999999994
        },
        {
          "name": "D3",
          "midi": 50,
          "time": 50.181768000000076,
          "velocity": 0.7480314960629921,
          "duration": 0.2727270000000033
        },
        {
          "name": "D2",
          "midi": 38,
          "time": 50.181768000000076,
          "velocity": 0.7480314960629921,
          "duration": 0.2727270000000033
        },
        {
          "name": "A3",
          "midi": 57,
          "time": 50.45449500000008,
          "velocity": 0.7480314960629921,
          "duration": 0.2727270000000033
        },
        {
          "name": "A2",
          "midi": 45,
          "time": 50.45449500000008,
          "velocity": 0.7480314960629921,
          "duration": 0.2727270000000033
        },
        {
          "name": "D4",
          "midi": 62,
          "time": 50.72722200000008,
          "velocity": 0.7480314960629921,
          "duration": 0.2727270000000033
        },
        {
          "name": "D3",
          "midi": 50,
          "time": 50.72722200000008,
          "velocity": 0.7480314960629921,
          "duration": 0.2727270000000033
        },
        {
          "name": "F4",
          "midi": 65,
          "time": 50.999949000000086,
          "velocity": 0.7480314960629921,
          "duration": 0.5454539999999994
        },
        {
          "name": "F3",
          "midi": 53,
          "time": 50.999949000000086,
          "velocity": 0.7480314960629921,
          "duration": 0.5454539999999994
        },
        {
          "name": "D4",
          "midi": 62,
          "time": 51.545403000000086,
          "velocity": 0.7480314960629921,
          "duration": 0.2727270000000033
        },
        {
          "name": "D3",
          "midi": 50,
          "time": 51.545403000000086,
          "velocity": 0.7480314960629921,
          "duration": 0.2727270000000033
        },
        {
          "name": "A3",
          "midi": 57,
          "time": 51.81813000000009,
          "velocity": 0.7480314960629921,
          "duration": 0.5454539999999994
        },
        {
          "name": "A2",
          "midi": 45,
          "time": 51.81813000000009,
          "velocity": 0.7480314960629921,
          "duration": 0.5454539999999994
        },
        {
          "name": "A#2",
          "midi": 46,
          "time": 52.36358400000009,
          "velocity": 0.7480314960629921,
          "duration": 0.2727270000000033
        },
        {
          "name": "A#1",
          "midi": 34,
          "time": 52.36358400000009,
          "velocity": 0.7480314960629921,
          "duration": 0.2727270000000033
        },
        {
          "name": "F3",
          "midi": 53,
          "time": 52.63631100000009,
          "velocity": 0.7480314960629921,
          "duration": 0.2727270000000033
        },
        {
          "name": "F2",
          "midi": 41,
          "time": 52.63631100000009,
          "velocity": 0.7480314960629921,
          "duration": 0.2727270000000033
        },
        {
          "name": "A#3",
          "midi": 58,
          "time": 52.909038000000095,
          "velocity": 0.7480314960629921,
          "duration": 0.2727270000000033
        },
        {
          "name": "A#2",
          "midi": 46,
          "time": 52.909038000000095,
          "velocity": 0.7480314960629921,
          "duration": 0.2727270000000033
        },
        {
          "name": "D4",
          "midi": 62,
          "time": 53.1817650000001,
          "velocity": 0.7480314960629921,
          "duration": 0.5454539999999994
        },
        {
          "name": "D3",
          "midi": 50,
          "time": 53.1817650000001,
          "velocity": 0.7480314960629921,
          "duration": 0.5454539999999994
        },
        {
          "name": "A#3",
          "midi": 58,
          "time": 53.7272190000001,
          "velocity": 0.7480314960629921,
          "duration": 0.2727270000000033
        },
        {
          "name": "A#2",
          "midi": 46,
          "time": 53.7272190000001,
          "velocity": 0.7480314960629921,
          "duration": 0.2727270000000033
        },
        {
          "name": "F3",
          "midi": 53,
          "time": 53.9999460000001,
          "velocity": 0.7480314960629921,
          "duration": 0.5454539999999994
        },
        {
          "name": "F2",
          "midi": 41,
          "time": 53.9999460000001,
          "velocity": 0.7480314960629921,
          "duration": 0.5454539999999994
        },
        {
          "name": "F3",
          "midi": 53,
          "time": 54.5454000000001,
          "velocity": 0.7480314960629921,
          "duration": 0.2727270000000033
        },
        {
          "name": "F2",
          "midi": 41,
          "time": 54.5454000000001,
          "velocity": 0.7480314960629921,
          "duration": 0.2727270000000033
        },
        {
          "name": "C4",
          "midi": 60,
          "time": 54.8181270000001,
          "velocity": 0.7480314960629921,
          "duration": 0.2727270000000033
        },
        {
          "name": "C3",
          "midi": 48,
          "time": 54.8181270000001,
          "velocity": 0.7480314960629921,
          "duration": 0.2727270000000033
        },
        {
          "name": "F4",
          "midi": 65,
          "time": 55.09085400000011,
          "velocity": 0.7480314960629921,
          "duration": 0.2727270000000033
        },
        {
          "name": "F3",
          "midi": 53,
          "time": 55.09085400000011,
          "velocity": 0.7480314960629921,
          "duration": 0.2727270000000033
        },
        {
          "name": "A4",
          "midi": 69,
          "time": 55.36358100000011,
          "velocity": 0.7480314960629921,
          "duration": 0.5454539999999994
        },
        {
          "name": "A3",
          "midi": 57,
          "time": 55.36358100000011,
          "velocity": 0.7480314960629921,
          "duration": 0.5454539999999994
        },
        {
          "name": "F4",
          "midi": 65,
          "time": 55.90903500000011,
          "velocity": 0.7480314960629921,
          "duration": 0.2727270000000033
        },
        {
          "name": "F3",
          "midi": 53,
          "time": 55.90903500000011,
          "velocity": 0.7480314960629921,
          "duration": 0.2727270000000033
        },
        {
          "name": "C4",
          "midi": 60,
          "time": 56.18176200000011,
          "velocity": 0.7480314960629921,
          "duration": 0.5454539999999994
        },
        {
          "name": "C3",
          "midi": 48,
          "time": 56.18176200000011,
          "velocity": 0.7480314960629921,
          "duration": 0.5454539999999994
        },
        {
          "name": "C3",
          "midi": 48,
          "time": 56.72721600000011,
          "velocity": 0.7480314960629921,
          "duration": 0.2727270000000033
        },
        {
          "name": "C2",
          "midi": 36,
          "time": 56.72721600000011,
          "velocity": 0.7480314960629921,
          "duration": 0.2727270000000033
        },
        {
          "name": "G3",
          "midi": 55,
          "time": 56.999943000000115,
          "velocity": 0.7480314960629921,
          "duration": 0.2727270000000033
        },
        {
          "name": "G2",
          "midi": 43,
          "time": 56.999943000000115,
          "velocity": 0.7480314960629921,
          "duration": 0.2727270000000033
        },
        {
          "name": "C4",
          "midi": 60,
          "time": 57.27267000000012,
          "velocity": 0.7480314960629921,
          "duration": 0.2727270000000033
        },
        {
          "name": "C3",
          "midi": 48,
          "time": 57.27267000000012,
          "velocity": 0.7480314960629921,
          "duration": 0.2727270000000033
        },
        {
          "name": "E4",
          "midi": 64,
          "time": 57.54539700000012,
          "velocity": 0.7480314960629921,
          "duration": 0.5454539999999994
        },
        {
          "name": "E3",
          "midi": 52,
          "time": 57.54539700000012,
          "velocity": 0.7480314960629921,
          "duration": 0.5454539999999994
        },
        {
          "name": "C4",
          "midi": 60,
          "time": 58.09085100000012,
          "velocity": 0.7480314960629921,
          "duration": 0.2727270000000033
        },
        {
          "name": "C3",
          "midi": 48,
          "time": 58.09085100000012,
          "velocity": 0.7480314960629921,
          "duration": 0.2727270000000033
        },
        {
          "name": "G3",
          "midi": 55,
          "time": 58.363578000000125,
          "velocity": 0.7480314960629921,
          "duration": 0.5454539999999994
        },
        {
          "name": "G2",
          "midi": 43,
          "time": 58.363578000000125,
          "velocity": 0.7480314960629921,
          "duration": 0.5454539999999994
        },
        {
          "name": "D3",
          "midi": 50,
          "time": 58.909032000000124,
          "velocity": 0.7480314960629921,
          "duration": 0.2727270000000033
        },
        {
          "name": "D2",
          "midi": 38,
          "time": 58.909032000000124,
          "velocity": 0.7480314960629921,
          "duration": 0.2727270000000033
        },
        {
          "name": "A3",
          "midi": 57,
          "time": 59.18175900000013,
          "velocity": 0.7480314960629921,
          "duration": 0.2727270000000033
        },
        {
          "name": "A2",
          "midi": 45,
          "time": 59.18175900000013,
          "velocity": 0.7480314960629921,
          "duration": 0.2727270000000033
        },
        {
          "name": "D4",
          "midi": 62,
          "time": 59.45448600000013,
          "velocity": 0.7480314960629921,
          "duration": 0.2727270000000033
        },
        {
          "name": "D3",
          "midi": 50,
          "time": 59.45448600000013,
          "velocity": 0.7480314960629921,
          "duration": 0.2727270000000033
        },
        {
          "name": "F4",
          "midi": 65,
          "time": 59.727213000000134,
          "velocity": 0.7480314960629921,
          "duration": 0.5454539999999994
        },
        {
          "name": "F3",
          "midi": 53,
          "time": 59.727213000000134,
          "velocity": 0.7480314960629921,
          "duration": 0.5454539999999994
        },
        {
          "name": "D4",
          "midi": 62,
          "time": 60.27266700000013,
          "velocity": 0.7480314960629921,
          "duration": 0.2727270000000033
        },
        {
          "name": "D3",
          "midi": 50,
          "time": 60.27266700000013,
          "velocity": 0.7480314960629921,
          "duration": 0.2727270000000033
        },
        {
          "name": "A3",
          "midi": 57,
          "time": 60.54539400000014,
          "velocity": 0.7480314960629921,
          "duration": 0.5454539999999994
        },
        {
          "name": "A2",
          "midi": 45,
          "time": 60.54539400000014,
          "velocity": 0.7480314960629921,
          "duration": 0.5454539999999994
        },
        {
          "name": "A#2",
          "midi": 46,
          "time": 61.090848000000136,
          "velocity": 0.7480314960629921,
          "duration": 0.2727270000000033
        },
        {
          "name": "A#1",
          "midi": 34,
          "time": 61.090848000000136,
          "velocity": 0.7480314960629921,
          "duration": 0.2727270000000033
        },
        {
          "name": "F3",
          "midi": 53,
          "time": 61.36357500000014,
          "velocity": 0.7480314960629921,
          "duration": 0.2727270000000033
        },
        {
          "name": "F2",
          "midi": 41,
          "time": 61.36357500000014,
          "velocity": 0.7480314960629921,
          "duration": 0.2727270000000033
        },
        {
          "name": "A#3",
          "midi": 58,
          "time": 61.63630200000014,
          "velocity": 0.7480314960629921,
          "duration": 0.2727270000000033
        },
        {
          "name": "A#2",
          "midi": 46,
          "time": 61.63630200000014,
          "velocity": 0.7480314960629921,
          "duration": 0.2727270000000033
        },
        {
          "name": "D4",
          "midi": 62,
          "time": 61.909029000000146,
          "velocity": 0.7480314960629921,
          "duration": 0.5454539999999994
        },
        {
          "name": "D3",
          "midi": 50,
          "time": 61.909029000000146,
          "velocity": 0.7480314960629921,
          "duration": 0.5454539999999994
        },
        {
          "name": "A#3",
          "midi": 58,
          "time": 62.454483000000145,
          "velocity": 0.7480314960629921,
          "duration": 0.2727270000000033
        },
        {
          "name": "A#2",
          "midi": 46,
          "time": 62.454483000000145,
          "velocity": 0.7480314960629921,
          "duration": 0.2727270000000033
        },
        {
          "name": "F3",
          "midi": 53,
          "time": 62.72721000000015,
          "velocity": 0.7480314960629921,
          "duration": 0.5454539999999994
        },
        {
          "name": "F2",
          "midi": 41,
          "time": 62.72721000000015,
          "velocity": 0.7480314960629921,
          "duration": 0.5454539999999994
        },
        {
          "name": "F3",
          "midi": 53,
          "time": 63.27266400000015,
          "velocity": 0.7480314960629921,
          "duration": 0.2727270000000033
        },
        {
          "name": "F2",
          "midi": 41,
          "time": 63.27266400000015,
          "velocity": 0.7480314960629921,
          "duration": 0.2727270000000033
        },
        {
          "name": "C4",
          "midi": 60,
          "time": 63.54539100000015,
          "velocity": 0.7480314960629921,
          "duration": 0.2727270000000033
        },
        {
          "name": "C3",
          "midi": 48,
          "time": 63.54539100000015,
          "velocity": 0.7480314960629921,
          "duration": 0.2727270000000033
        },
        {
          "name": "F4",
          "midi": 65,
          "time": 63.818118000000155,
          "velocity": 0.7480314960629921,
          "duration": 0.2727270000000033
        },
        {
          "name": "F3",
          "midi": 53,
          "time": 63.818118000000155,
          "velocity": 0.7480314960629921,
          "duration": 0.2727270000000033
        },
        {
          "name": "A4",
          "midi": 69,
          "time": 64.09084500000016,
          "velocity": 0.7480314960629921,
          "duration": 0.5454540000000065
        },
        {
          "name": "A3",
          "midi": 57,
          "time": 64.09084500000016,
          "velocity": 0.7480314960629921,
          "duration": 0.5454540000000065
        },
        {
          "name": "F4",
          "midi": 65,
          "time": 64.63629900000016,
          "velocity": 0.7480314960629921,
          "duration": 0.2727270000000033
        },
        {
          "name": "F3",
          "midi": 53,
          "time": 64.63629900000016,
          "velocity": 0.7480314960629921,
          "duration": 0.2727270000000033
        },
        {
          "name": "C4",
          "midi": 60,
          "time": 64.90902600000017,
          "velocity": 0.7480314960629921,
          "duration": 0.5454540000000065
        },
        {
          "name": "C3",
          "midi": 48,
          "time": 64.90902600000017,
          "velocity": 0.7480314960629921,
          "duration": 0.5454540000000065
        },
        {
          "name": "C3",
          "midi": 48,
          "time": 65.45448000000017,
          "velocity": 0.7480314960629921,
          "duration": 0.2727270000000033
        },
        {
          "name": "C2",
          "midi": 36,
          "time": 65.45448000000017,
          "velocity": 0.7480314960629921,
          "duration": 0.2727270000000033
        },
        {
          "name": "G3",
          "midi": 55,
          "time": 65.72720700000018,
          "velocity": 0.7480314960629921,
          "duration": 0.2727270000000033
        },
        {
          "name": "G2",
          "midi": 43,
          "time": 65.72720700000018,
          "velocity": 0.7480314960629921,
          "duration": 0.2727270000000033
        },
        {
          "name": "C4",
          "midi": 60,
          "time": 65.99993400000018,
          "velocity": 0.7480314960629921,
          "duration": 0.2727270000000033
        },
        {
          "name": "C3",
          "midi": 48,
          "time": 65.99993400000018,
          "velocity": 0.7480314960629921,
          "duration": 0.2727270000000033
        },
        {
          "name": "E4",
          "midi": 64,
          "time": 66.27266100000018,
          "velocity": 0.7480314960629921,
          "duration": 0.5454540000000065
        },
        {
          "name": "E3",
          "midi": 52,
          "time": 66.27266100000018,
          "velocity": 0.7480314960629921,
          "duration": 0.5454540000000065
        },
        {
          "name": "C4",
          "midi": 60,
          "time": 66.81811500000019,
          "velocity": 0.7480314960629921,
          "duration": 0.2727270000000033
        },
        {
          "name": "C3",
          "midi": 48,
          "time": 66.81811500000019,
          "velocity": 0.7480314960629921,
          "duration": 0.2727270000000033
        },
        {
          "name": "G3",
          "midi": 55,
          "time": 67.0908420000002,
          "velocity": 0.7480314960629921,
          "duration": 0.5454540000000065
        },
        {
          "name": "G2",
          "midi": 43,
          "time": 67.0908420000002,
          "velocity": 0.7480314960629921,
          "duration": 0.5454540000000065
        },
        {
          "name": "D3",
          "midi": 50,
          "time": 67.6362960000002,
          "velocity": 0.7480314960629921,
          "duration": 0.2727270000000033
        },
        {
          "name": "A3",
          "midi": 57,
          "time": 67.9090230000002,
          "velocity": 0.7480314960629921,
          "duration": 0.2727270000000033
        },
        {
          "name": "D4",
          "midi": 62,
          "time": 68.1817500000002,
          "velocity": 0.7480314960629921,
          "duration": 0.2727270000000033
        },
        {
          "name": "F4",
          "midi": 65,
          "time": 68.45447700000021,
          "velocity": 0.7480314960629921,
          "duration": 0.5454540000000065
        },
        {
          "name": "D4",
          "midi": 62,
          "time": 68.99993100000022,
          "velocity": 0.7480314960629921,
          "duration": 0.2727270000000033
        },
        {
          "name": "A3",
          "midi": 57,
          "time": 69.27265800000022,
          "velocity": 0.7480314960629921,
          "duration": 0.5454540000000065
        },
        {
          "name": "A#2",
          "midi": 46,
          "time": 69.81811200000023,
          "velocity": 0.7480314960629921,
          "duration": 0.2727270000000033
        },
        {
          "name": "F3",
          "midi": 53,
          "time": 70.09083900000023,
          "velocity": 0.7480314960629921,
          "duration": 0.2727270000000033
        },
        {
          "name": "A#3",
          "midi": 58,
          "time": 70.36356600000023,
          "velocity": 0.7480314960629921,
          "duration": 0.2727270000000033
        },
        {
          "name": "D4",
          "midi": 62,
          "time": 70.63629300000024,
          "velocity": 0.7480314960629921,
          "duration": 0.5454540000000065
        },
        {
          "name": "A#3",
          "midi": 58,
          "time": 71.18174700000024,
          "velocity": 0.7480314960629921,
          "duration": 0.2727270000000033
        },
        {
          "name": "F3",
          "midi": 53,
          "time": 71.45447400000025,
          "velocity": 0.7480314960629921,
          "duration": 0.5454540000000065
        },
        {
          "name": "F2",
          "midi": 41,
          "time": 71.99992800000025,
          "velocity": 0.7480314960629921,
          "duration": 0.2727270000000033
        },
        {
          "name": "C3",
          "midi": 48,
          "time": 72.27265500000026,
          "velocity": 0.7480314960629921,
          "duration": 0.2727270000000033
        },
        {
          "name": "F3",
          "midi": 53,
          "time": 72.54538200000026,
          "velocity": 0.7480314960629921,
          "duration": 0.2727270000000033
        },
        {
          "name": "A3",
          "midi": 57,
          "time": 72.81810900000026,
          "velocity": 0.7480314960629921,
          "duration": 0.5454540000000065
        },
        {
          "name": "F3",
          "midi": 53,
          "time": 73.36356300000027,
          "velocity": 0.7480314960629921,
          "duration": 0.2727270000000033
        },
        {
          "name": "C3",
          "midi": 48,
          "time": 73.63629000000027,
          "velocity": 0.7480314960629921,
          "duration": 0.5454540000000065
        },
        {
          "name": "C3",
          "midi": 48,
          "time": 74.18174400000028,
          "velocity": 0.7480314960629921,
          "duration": 0.2727270000000033
        },
        {
          "name": "G3",
          "midi": 55,
          "time": 74.45447100000028,
          "velocity": 0.7480314960629921,
          "duration": 0.2727270000000033
        },
        {
          "name": "C4",
          "midi": 60,
          "time": 74.72719800000029,
          "velocity": 0.7480314960629921,
          "duration": 0.2727270000000033
        },
        {
          "name": "E4",
          "midi": 64,
          "time": 74.99992500000029,
          "velocity": 0.7480314960629921,
          "duration": 0.5454540000000065
        },
        {
          "name": "C4",
          "midi": 60,
          "time": 75.5453790000003,
          "velocity": 0.7480314960629921,
          "duration": 0.2727270000000033
        },
        {
          "name": "G3",
          "midi": 55,
          "time": 75.8181060000003,
          "velocity": 0.7480314960629921,
          "duration": 0.5454540000000065
        },
        {
          "name": "D3",
          "midi": 50,
          "time": 76.3635600000003,
          "velocity": 0.7480314960629921,
          "duration": 0.2727270000000033
        },
        {
          "name": "A3",
          "midi": 57,
          "time": 76.63628700000031,
          "velocity": 0.7480314960629921,
          "duration": 0.2727270000000033
        },
        {
          "name": "D4",
          "midi": 62,
          "time": 76.90901400000031,
          "velocity": 0.7480314960629921,
          "duration": 0.2727270000000033
        },
        {
          "name": "F4",
          "midi": 65,
          "time": 77.18174100000032,
          "velocity": 0.7480314960629921,
          "duration": 0.5454540000000065
        },
        {
          "name": "D4",
          "midi": 62,
          "time": 77.72719500000032,
          "velocity": 0.7480314960629921,
          "duration": 0.2727270000000033
        },
        {
          "name": "A3",
          "midi": 57,
          "time": 77.99992200000032,
          "velocity": 0.7480314960629921,
          "duration": 0.5454540000000065
        },
        {
          "name": "A#2",
          "midi": 46,
          "time": 78.54537600000033,
          "velocity": 0.7480314960629921,
          "duration": 0.2727270000000033
        },
        {
          "name": "F3",
          "midi": 53,
          "time": 78.81810300000033,
          "velocity": 0.7480314960629921,
          "duration": 0.2727270000000033
        },
        {
          "name": "A#3",
          "midi": 58,
          "time": 79.09083000000034,
          "velocity": 0.7480314960629921,
          "duration": 0.2727270000000033
        },
        {
          "name": "D4",
          "midi": 62,
          "time": 79.36355700000034,
          "velocity": 0.7480314960629921,
          "duration": 0.5454540000000065
        },
        {
          "name": "A#3",
          "midi": 58,
          "time": 79.90901100000035,
          "velocity": 0.7480314960629921,
          "duration": 0.2727270000000033
        },
        {
          "name": "F3",
          "midi": 53,
          "time": 80.18173800000035,
          "velocity": 0.7480314960629921,
          "duration": 0.5454540000000065
        },
        {
          "name": "F2",
          "midi": 41,
          "time": 80.72719200000036,
          "velocity": 0.7480314960629921,
          "duration": 0.2727270000000033
        },
        {
          "name": "C3",
          "midi": 48,
          "time": 80.99991900000036,
          "velocity": 0.7480314960629921,
          "duration": 0.2727270000000033
        },
        {
          "name": "F3",
          "midi": 53,
          "time": 81.27264600000036,
          "velocity": 0.7480314960629921,
          "duration": 0.2727270000000033
        },
        {
          "name": "A3",
          "midi": 57,
          "time": 81.54537300000037,
          "velocity": 0.7480314960629921,
          "duration": 0.5454540000000065
        },
        {
          "name": "F3",
          "midi": 53,
          "time": 82.09082700000037,
          "velocity": 0.7480314960629921,
          "duration": 0.2727270000000033
        },
        {
          "name": "C3",
          "midi": 48,
          "time": 82.36355400000038,
          "velocity": 0.7480314960629921,
          "duration": 0.5454540000000065
        },
        {
          "name": "C3",
          "midi": 48,
          "time": 82.90900800000038,
          "velocity": 0.7480314960629921,
          "duration": 0.2727270000000033
        },
        {
          "name": "G3",
          "midi": 55,
          "time": 83.18173500000039,
          "velocity": 0.7480314960629921,
          "duration": 0.2727270000000033
        },
        {
          "name": "C4",
          "midi": 60,
          "time": 83.45446200000039,
          "velocity": 0.7480314960629921,
          "duration": 0.2727270000000033
        },
        {
          "name": "E4",
          "midi": 64,
          "time": 83.7271890000004,
          "velocity": 0.7480314960629921,
          "duration": 0.5454540000000065
        },
        {
          "name": "C4",
          "midi": 60,
          "time": 84.2726430000004,
          "velocity": 0.7480314960629921,
          "duration": 0.2727270000000033
        },
        {
          "name": "G3",
          "midi": 55,
          "time": 84.5453700000004,
          "velocity": 0.7480314960629921,
          "duration": 0.5454540000000065
        },
        {
          "name": "A#2",
          "midi": 46,
          "time": 85.09082400000041,
          "velocity": 0.7480314960629921,
          "duration": 0.2727270000000033
        },
        {
          "name": "F3",
          "midi": 53,
          "time": 85.36355100000041,
          "velocity": 0.7480314960629921,
          "duration": 0.2727270000000033
        },
        {
          "name": "A#3",
          "midi": 58,
          "time": 85.63627800000042,
          "velocity": 0.7480314960629921,
          "duration": 0.2727270000000033
        },
        {
          "name": "D4",
          "midi": 62,
          "time": 85.90900500000042,
          "velocity": 0.7480314960629921,
          "duration": 0.5454540000000065
        },
        {
          "name": "A#3",
          "midi": 58,
          "time": 86.45445900000043,
          "velocity": 0.7480314960629921,
          "duration": 0.2727270000000033
        },
        {
          "name": "F3",
          "midi": 53,
          "time": 86.72718600000043,
          "velocity": 0.7480314960629921,
          "duration": 0.5454540000000065
        },
        {
          "name": "C3",
          "midi": 48,
          "time": 87.27264000000044,
          "velocity": 0.7480314960629921,
          "duration": 0.2727270000000033
        },
        {
          "name": "G3",
          "midi": 55,
          "time": 87.54536700000044,
          "velocity": 0.7480314960629921,
          "duration": 0.2727270000000033
        },
        {
          "name": "C4",
          "midi": 60,
          "time": 87.81809400000044,
          "velocity": 0.7480314960629921,
          "duration": 0.2727270000000033
        },
        {
          "name": "E4",
          "midi": 64,
          "time": 88.09082100000045,
          "velocity": 0.7480314960629921,
          "duration": 0.5454540000000065
        },
        {
          "name": "C4",
          "midi": 60,
          "time": 88.63627500000045,
          "velocity": 0.7480314960629921,
          "duration": 0.2727270000000033
        },
        {
          "name": "G3",
          "midi": 55,
          "time": 88.90900200000046,
          "velocity": 0.7480314960629921,
          "duration": 0.5454540000000065
        },
        {
          "name": "D3",
          "midi": 50,
          "time": 89.45445600000046,
          "velocity": 0.7480314960629921,
          "duration": 0.2727270000000033
        },
        {
          "name": "A3",
          "midi": 57,
          "time": 89.72718300000047,
          "velocity": 0.7480314960629921,
          "duration": 0.2727270000000033
        },
        {
          "name": "D4",
          "midi": 62,
          "time": 89.99991000000047,
          "velocity": 0.7480314960629921,
          "duration": 0.2727270000000033
        },
        {
          "name": "F4",
          "midi": 65,
          "time": 90.27263700000047,
          "velocity": 0.7480314960629921,
          "duration": 0.5454540000000065
        },
        {
          "name": "D4",
          "midi": 62,
          "time": 90.81809100000048,
          "velocity": 0.7480314960629921,
          "duration": 0.2727270000000033
        },
        {
          "name": "A3",
          "midi": 57,
          "time": 91.09081800000048,
          "velocity": 0.7480314960629921,
          "duration": 0.5454540000000065
        },
        {
          "name": "F2",
          "midi": 41,
          "time": 91.63627200000049,
          "velocity": 0.7480314960629921,
          "duration": 0.2727270000000033
        },
        {
          "name": "C3",
          "midi": 48,
          "time": 91.90899900000049,
          "velocity": 0.7480314960629921,
          "duration": 0.2727270000000033
        },
        {
          "name": "F3",
          "midi": 53,
          "time": 92.1817260000005,
          "velocity": 0.7480314960629921,
          "duration": 0.2727270000000033
        },
        {
          "name": "A3",
          "midi": 57,
          "time": 92.4544530000005,
          "velocity": 0.7480314960629921,
          "duration": 0.5454540000000065
        },
        {
          "name": "F3",
          "midi": 53,
          "time": 92.9999070000005,
          "velocity": 0.7480314960629921,
          "duration": 0.2727270000000033
        },
        {
          "name": "C3",
          "midi": 48,
          "time": 93.27263400000051,
          "velocity": 0.7480314960629921,
          "duration": 0.5454540000000065
        },
        {
          "name": "A#2",
          "midi": 46,
          "time": 93.81808800000051,
          "velocity": 0.7480314960629921,
          "duration": 0.2727270000000033
        },
        {
          "name": "F3",
          "midi": 53,
          "time": 94.09081500000052,
          "velocity": 0.7480314960629921,
          "duration": 0.2727270000000033
        },
        {
          "name": "A#3",
          "midi": 58,
          "time": 94.36354200000052,
          "velocity": 0.7480314960629921,
          "duration": 0.2727270000000033
        },
        {
          "name": "D4",
          "midi": 62,
          "time": 94.63626900000052,
          "velocity": 0.7480314960629921,
          "duration": 0.5454540000000065
        },
        {
          "name": "A#3",
          "midi": 58,
          "time": 95.18172300000053,
          "velocity": 0.7480314960629921,
          "duration": 0.2727270000000033
        },
        {
          "name": "F3",
          "midi": 53,
          "time": 95.45445000000053,
          "velocity": 0.7480314960629921,
          "duration": 0.5454540000000065
        },
        {
          "name": "C3",
          "midi": 48,
          "time": 95.99990400000054,
          "velocity": 0.7480314960629921,
          "duration": 0.2727270000000033
        },
        {
          "name": "G3",
          "midi": 55,
          "time": 96.27263100000054,
          "velocity": 0.7480314960629921,
          "duration": 0.2727270000000033
        },
        {
          "name": "C4",
          "midi": 60,
          "time": 96.54535800000055,
          "velocity": 0.7480314960629921,
          "duration": 0.2727270000000033
        },
        {
          "name": "E4",
          "midi": 64,
          "time": 96.81808500000055,
          "velocity": 0.7480314960629921,
          "duration": 0.5454540000000065
        },
        {
          "name": "C4",
          "midi": 60,
          "time": 97.36353900000056,
          "velocity": 0.7480314960629921,
          "duration": 0.2727270000000033
        },
        {
          "name": "G3",
          "midi": 55,
          "time": 97.63626600000056,
          "velocity": 0.7480314960629921,
          "duration": 0.5454540000000065
        },
        {
          "name": "D3",
          "midi": 50,
          "time": 98.18172000000057,
          "velocity": 0.7480314960629921,
          "duration": 0.2727270000000033
        },
        {
          "name": "A3",
          "midi": 57,
          "time": 98.45444700000057,
          "velocity": 0.7480314960629921,
          "duration": 0.2727270000000033
        },
        {
          "name": "D4",
          "midi": 62,
          "time": 98.72717400000057,
          "velocity": 0.7480314960629921,
          "duration": 0.2727270000000033
        },
        {
          "name": "F4",
          "midi": 65,
          "time": 98.99990100000058,
          "velocity": 0.7480314960629921,
          "duration": 0.5454540000000065
        },
        {
          "name": "D4",
          "midi": 62,
          "time": 99.54535500000058,
          "velocity": 0.7480314960629921,
          "duration": 0.2727270000000033
        },
        {
          "name": "A3",
          "midi": 57,
          "time": 99.81808200000059,
          "velocity": 0.7480314960629921,
          "duration": 0.5454540000000065
        },
        {
          "name": "F3",
          "midi": 53,
          "time": 100.3635360000006,
          "velocity": 0.7480314960629921,
          "duration": 0.2727270000000033
        },
        {
          "name": "F2",
          "midi": 41,
          "time": 100.3635360000006,
          "velocity": 0.7480314960629921,
          "duration": 0.2727270000000033
        },
        {
          "name": "C4",
          "midi": 60,
          "time": 100.6362630000006,
          "velocity": 0.7480314960629921,
          "duration": 0.2727270000000033
        },
        {
          "name": "C3",
          "midi": 48,
          "time": 100.6362630000006,
          "velocity": 0.7480314960629921,
          "duration": 0.2727270000000033
        },
        {
          "name": "F4",
          "midi": 65,
          "time": 100.9089900000006,
          "velocity": 0.7480314960629921,
          "duration": 0.2727270000000033
        },
        {
          "name": "F3",
          "midi": 53,
          "time": 100.9089900000006,
          "velocity": 0.7480314960629921,
          "duration": 0.2727270000000033
        },
        {
          "name": "A4",
          "midi": 69,
          "time": 101.1817170000006,
          "velocity": 0.7480314960629921,
          "duration": 0.5454540000000065
        },
        {
          "name": "A3",
          "midi": 57,
          "time": 101.1817170000006,
          "velocity": 0.7480314960629921,
          "duration": 0.5454540000000065
        },
        {
          "name": "F4",
          "midi": 65,
          "time": 101.72717100000061,
          "velocity": 0.7480314960629921,
          "duration": 0.2727270000000033
        },
        {
          "name": "F3",
          "midi": 53,
          "time": 101.72717100000061,
          "velocity": 0.7480314960629921,
          "duration": 0.2727270000000033
        },
        {
          "name": "C4",
          "midi": 60,
          "time": 101.99989800000061,
          "velocity": 0.7480314960629921,
          "duration": 0.5454540000000065
        },
        {
          "name": "C3",
          "midi": 48,
          "time": 101.99989800000061,
          "velocity": 0.7480314960629921,
          "duration": 0.5454540000000065
        },
        {
          "name": "D3",
          "midi": 50,
          "time": 102.54535200000062,
          "velocity": 0.7480314960629921,
          "duration": 0.2727270000000033
        },
        {
          "name": "D2",
          "midi": 38,
          "time": 102.54535200000062,
          "velocity": 0.7480314960629921,
          "duration": 0.2727270000000033
        },
        {
          "name": "A3",
          "midi": 57,
          "time": 102.81807900000062,
          "velocity": 0.7480314960629921,
          "duration": 0.2727270000000033
        },
        {
          "name": "A2",
          "midi": 45,
          "time": 102.81807900000062,
          "velocity": 0.7480314960629921,
          "duration": 0.2727270000000033
        },
        {
          "name": "D4",
          "midi": 62,
          "time": 103.09080600000063,
          "velocity": 0.7480314960629921,
          "duration": 0.2727270000000033
        },
        {
          "name": "D3",
          "midi": 50,
          "time": 103.09080600000063,
          "velocity": 0.7480314960629921,
          "duration": 0.2727270000000033
        },
        {
          "name": "F4",
          "midi": 65,
          "time": 103.36353300000063,
          "velocity": 0.7480314960629921,
          "duration": 0.5454540000000065
        },
        {
          "name": "F3",
          "midi": 53,
          "time": 103.36353300000063,
          "velocity": 0.7480314960629921,
          "duration": 0.5454540000000065
        },
        {
          "name": "D4",
          "midi": 62,
          "time": 103.90898700000064,
          "velocity": 0.7480314960629921,
          "duration": 0.2727270000000033
        },
        {
          "name": "D3",
          "midi": 50,
          "time": 103.90898700000064,
          "velocity": 0.7480314960629921,
          "duration": 0.2727270000000033
        },
        {
          "name": "A3",
          "midi": 57,
          "time": 104.18171400000064,
          "velocity": 0.7480314960629921,
          "duration": 0.5454540000000065
        },
        {
          "name": "A2",
          "midi": 45,
          "time": 104.18171400000064,
          "velocity": 0.7480314960629921,
          "duration": 0.5454540000000065
        },
        {
          "name": "A#2",
          "midi": 46,
          "time": 104.72716800000065,
          "velocity": 0.7480314960629921,
          "duration": 0.2727270000000033
        },
        {
          "name": "A#1",
          "midi": 34,
          "time": 104.72716800000065,
          "velocity": 0.7480314960629921,
          "duration": 0.2727270000000033
        },
        {
          "name": "F3",
          "midi": 53,
          "time": 104.99989500000065,
          "velocity": 0.7480314960629921,
          "duration": 0.2727270000000033
        },
        {
          "name": "F2",
          "midi": 41,
          "time": 104.99989500000065,
          "velocity": 0.7480314960629921,
          "duration": 0.2727270000000033
        },
        {
          "name": "A#3",
          "midi": 58,
          "time": 105.27262200000065,
          "velocity": 0.7480314960629921,
          "duration": 0.2727270000000033
        },
        {
          "name": "A#2",
          "midi": 46,
          "time": 105.27262200000065,
          "velocity": 0.7480314960629921,
          "duration": 0.2727270000000033
        },
        {
          "name": "D4",
          "midi": 62,
          "time": 105.54534900000066,
          "velocity": 0.7480314960629921,
          "duration": 0.5454540000000065
        },
        {
          "name": "D3",
          "midi": 50,
          "time": 105.54534900000066,
          "velocity": 0.7480314960629921,
          "duration": 0.5454540000000065
        },
        {
          "name": "A#3",
          "midi": 58,
          "time": 106.09080300000066,
          "velocity": 0.7480314960629921,
          "duration": 0.2727270000000033
        },
        {
          "name": "A#2",
          "midi": 46,
          "time": 106.09080300000066,
          "velocity": 0.7480314960629921,
          "duration": 0.2727270000000033
        },
        {
          "name": "F3",
          "midi": 53,
          "time": 106.36353000000067,
          "velocity": 0.7480314960629921,
          "duration": 0.5454540000000065
        },
        {
          "name": "F2",
          "midi": 41,
          "time": 106.36353000000067,
          "velocity": 0.7480314960629921,
          "duration": 0.5454540000000065
        },
        {
          "name": "F3",
          "midi": 53,
          "time": 106.90898400000067,
          "velocity": 0.7480314960629921,
          "duration": 0.2727270000000033
        },
        {
          "name": "F2",
          "midi": 41,
          "time": 106.90898400000067,
          "velocity": 0.7480314960629921,
          "duration": 0.2727270000000033
        },
        {
          "name": "C4",
          "midi": 60,
          "time": 107.18171100000067,
          "velocity": 0.7480314960629921,
          "duration": 0.2727270000000033
        },
        {
          "name": "C3",
          "midi": 48,
          "time": 107.18171100000067,
          "velocity": 0.7480314960629921,
          "duration": 0.2727270000000033
        },
        {
          "name": "F4",
          "midi": 65,
          "time": 107.45443800000068,
          "velocity": 0.7480314960629921,
          "duration": 0.2727270000000033
        },
        {
          "name": "F3",
          "midi": 53,
          "time": 107.45443800000068,
          "velocity": 0.7480314960629921,
          "duration": 0.2727270000000033
        },
        {
          "name": "A4",
          "midi": 69,
          "time": 107.72716500000068,
          "velocity": 0.7480314960629921,
          "duration": 0.5454540000000065
        },
        {
          "name": "A3",
          "midi": 57,
          "time": 107.72716500000068,
          "velocity": 0.7480314960629921,
          "duration": 0.5454540000000065
        },
        {
          "name": "F4",
          "midi": 65,
          "time": 108.27261900000069,
          "velocity": 0.7480314960629921,
          "duration": 0.2727270000000033
        },
        {
          "name": "F3",
          "midi": 53,
          "time": 108.27261900000069,
          "velocity": 0.7480314960629921,
          "duration": 0.2727270000000033
        },
        {
          "name": "C4",
          "midi": 60,
          "time": 108.54534600000069,
          "velocity": 0.7480314960629921,
          "duration": 0.5454540000000065
        },
        {
          "name": "C3",
          "midi": 48,
          "time": 108.54534600000069,
          "velocity": 0.7480314960629921,
          "duration": 0.5454540000000065
        },
        {
          "name": "C3",
          "midi": 48,
          "time": 109.0908000000007,
          "velocity": 0.7480314960629921,
          "duration": 0.2727270000000033
        },
        {
          "name": "C2",
          "midi": 36,
          "time": 109.0908000000007,
          "velocity": 0.7480314960629921,
          "duration": 0.2727270000000033
        },
        {
          "name": "G3",
          "midi": 55,
          "time": 109.3635270000007,
          "velocity": 0.7480314960629921,
          "duration": 0.2727270000000033
        },
        {
          "name": "G2",
          "midi": 43,
          "time": 109.3635270000007,
          "velocity": 0.7480314960629921,
          "duration": 0.2727270000000033
        },
        {
          "name": "C4",
          "midi": 60,
          "time": 109.6362540000007,
          "velocity": 0.7480314960629921,
          "duration": 0.2727270000000033
        },
        {
          "name": "C3",
          "midi": 48,
          "time": 109.6362540000007,
          "velocity": 0.7480314960629921,
          "duration": 0.2727270000000033
        },
        {
          "name": "E4",
          "midi": 64,
          "time": 109.90898100000071,
          "velocity": 0.7480314960629921,
          "duration": 0.5454540000000065
        },
        {
          "name": "E3",
          "midi": 52,
          "time": 109.90898100000071,
          "velocity": 0.7480314960629921,
          "duration": 0.5454540000000065
        },
        {
          "name": "C4",
          "midi": 60,
          "time": 110.45443500000071,
          "velocity": 0.7480314960629921,
          "duration": 0.2727270000000033
        },
        {
          "name": "C3",
          "midi": 48,
          "time": 110.45443500000071,
          "velocity": 0.7480314960629921,
          "duration": 0.2727270000000033
        },
        {
          "name": "G3",
          "midi": 55,
          "time": 110.72716200000072,
          "velocity": 0.7480314960629921,
          "duration": 0.5454540000000065
        },
        {
          "name": "G2",
          "midi": 43,
          "time": 110.72716200000072,
          "velocity": 0.7480314960629921,
          "duration": 0.5454540000000065
        },
        {
          "name": "D3",
          "midi": 50,
          "time": 111.27261600000072,
          "velocity": 0.7480314960629921,
          "duration": 0.2727270000000033
        },
        {
          "name": "D2",
          "midi": 38,
          "time": 111.27261600000072,
          "velocity": 0.7480314960629921,
          "duration": 0.2727270000000033
        },
        {
          "name": "A3",
          "midi": 57,
          "time": 111.54534300000073,
          "velocity": 0.7480314960629921,
          "duration": 0.2727270000000033
        },
        {
          "name": "A2",
          "midi": 45,
          "time": 111.54534300000073,
          "velocity": 0.7480314960629921,
          "duration": 0.2727270000000033
        },
        {
          "name": "D4",
          "midi": 62,
          "time": 111.81807000000073,
          "velocity": 0.7480314960629921,
          "duration": 0.2727270000000033
        },
        {
          "name": "D3",
          "midi": 50,
          "time": 111.81807000000073,
          "velocity": 0.7480314960629921,
          "duration": 0.2727270000000033
        },
        {
          "name": "F4",
          "midi": 65,
          "time": 112.09079700000073,
          "velocity": 0.7480314960629921,
          "duration": 0.5454540000000065
        },
        {
          "name": "F3",
          "midi": 53,
          "time": 112.09079700000073,
          "velocity": 0.7480314960629921,
          "duration": 0.5454540000000065
        },
        {
          "name": "D4",
          "midi": 62,
          "time": 112.63625100000074,
          "velocity": 0.7480314960629921,
          "duration": 0.2727270000000033
        },
        {
          "name": "D3",
          "midi": 50,
          "time": 112.63625100000074,
          "velocity": 0.7480314960629921,
          "duration": 0.2727270000000033
        },
        {
          "name": "A3",
          "midi": 57,
          "time": 112.90897800000074,
          "velocity": 0.7480314960629921,
          "duration": 0.5454540000000065
        },
        {
          "name": "A2",
          "midi": 45,
          "time": 112.90897800000074,
          "velocity": 0.7480314960629921,
          "duration": 0.5454540000000065
        },
        {
          "name": "A#2",
          "midi": 46,
          "time": 113.45443200000075,
          "velocity": 0.7480314960629921,
          "duration": 0.2727270000000033
        },
        {
          "name": "A#1",
          "midi": 34,
          "time": 113.45443200000075,
          "velocity": 0.7480314960629921,
          "duration": 0.2727270000000033
        },
        {
          "name": "F3",
          "midi": 53,
          "time": 113.72715900000075,
          "velocity": 0.7480314960629921,
          "duration": 0.2727270000000033
        },
        {
          "name": "F2",
          "midi": 41,
          "time": 113.72715900000075,
          "velocity": 0.7480314960629921,
          "duration": 0.2727270000000033
        },
        {
          "name": "A#3",
          "midi": 58,
          "time": 113.99988600000076,
          "velocity": 0.7480314960629921,
          "duration": 0.2727270000000033
        },
        {
          "name": "A#2",
          "midi": 46,
          "time": 113.99988600000076,
          "velocity": 0.7480314960629921,
          "duration": 0.2727270000000033
        },
        {
          "name": "D4",
          "midi": 62,
          "time": 114.27261300000076,
          "velocity": 0.7480314960629921,
          "duration": 0.5454540000000065
        },
        {
          "name": "D3",
          "midi": 50,
          "time": 114.27261300000076,
          "velocity": 0.7480314960629921,
          "duration": 0.5454540000000065
        },
        {
          "name": "A#3",
          "midi": 58,
          "time": 114.81806700000077,
          "velocity": 0.7480314960629921,
          "duration": 0.2727270000000033
        },
        {
          "name": "A#2",
          "midi": 46,
          "time": 114.81806700000077,
          "velocity": 0.7480314960629921,
          "duration": 0.2727270000000033
        },
        {
          "name": "F3",
          "midi": 53,
          "time": 115.09079400000077,
          "velocity": 0.7480314960629921,
          "duration": 0.5454540000000065
        },
        {
          "name": "F2",
          "midi": 41,
          "time": 115.09079400000077,
          "velocity": 0.7480314960629921,
          "duration": 0.5454540000000065
        },
        {
          "name": "F3",
          "midi": 53,
          "time": 115.63624800000078,
          "velocity": 0.7480314960629921,
          "duration": 0.2727270000000033
        },
        {
          "name": "F2",
          "midi": 41,
          "time": 115.63624800000078,
          "velocity": 0.7480314960629921,
          "duration": 0.2727270000000033
        },
        {
          "name": "C4",
          "midi": 60,
          "time": 115.90897500000078,
          "velocity": 0.7480314960629921,
          "duration": 0.2727270000000033
        },
        {
          "name": "C3",
          "midi": 48,
          "time": 115.90897500000078,
          "velocity": 0.7480314960629921,
          "duration": 0.2727270000000033
        },
        {
          "name": "F4",
          "midi": 65,
          "time": 116.18170200000078,
          "velocity": 0.7480314960629921,
          "duration": 0.2727270000000033
        },
        {
          "name": "F3",
          "midi": 53,
          "time": 116.18170200000078,
          "velocity": 0.7480314960629921,
          "duration": 0.2727270000000033
        },
        {
          "name": "A4",
          "midi": 69,
          "time": 116.45442900000079,
          "velocity": 0.7480314960629921,
          "duration": 0.5454540000000065
        },
        {
          "name": "A3",
          "midi": 57,
          "time": 116.45442900000079,
          "velocity": 0.7480314960629921,
          "duration": 0.5454540000000065
        },
        {
          "name": "F4",
          "midi": 65,
          "time": 116.99988300000079,
          "velocity": 0.7480314960629921,
          "duration": 0.2727270000000033
        },
        {
          "name": "F3",
          "midi": 53,
          "time": 116.99988300000079,
          "velocity": 0.7480314960629921,
          "duration": 0.2727270000000033
        },
        {
          "name": "C4",
          "midi": 60,
          "time": 117.2726100000008,
          "velocity": 0.7480314960629921,
          "duration": 0.5454540000000065
        },
        {
          "name": "C3",
          "midi": 48,
          "time": 117.2726100000008,
          "velocity": 0.7480314960629921,
          "duration": 0.5454540000000065
        },
        {
          "name": "C3",
          "midi": 48,
          "time": 117.8180640000008,
          "velocity": 0.7480314960629921,
          "duration": 0.2727270000000033
        },
        {
          "name": "C2",
          "midi": 36,
          "time": 117.8180640000008,
          "velocity": 0.7480314960629921,
          "duration": 0.2727270000000033
        },
        {
          "name": "G3",
          "midi": 55,
          "time": 118.0907910000008,
          "velocity": 0.7480314960629921,
          "duration": 0.2727270000000033
        },
        {
          "name": "G2",
          "midi": 43,
          "time": 118.0907910000008,
          "velocity": 0.7480314960629921,
          "duration": 0.2727270000000033
        },
        {
          "name": "C4",
          "midi": 60,
          "time": 118.36351800000081,
          "velocity": 0.7480314960629921,
          "duration": 0.2727270000000033
        },
        {
          "name": "C3",
          "midi": 48,
          "time": 118.36351800000081,
          "velocity": 0.7480314960629921,
          "duration": 0.2727270000000033
        },
        {
          "name": "E4",
          "midi": 64,
          "time": 118.63624500000081,
          "velocity": 0.7480314960629921,
          "duration": 0.5454540000000065
        },
        {
          "name": "E3",
          "midi": 52,
          "time": 118.63624500000081,
          "velocity": 0.7480314960629921,
          "duration": 0.5454540000000065
        },
        {
          "name": "C4",
          "midi": 60,
          "time": 119.18169900000082,
          "velocity": 0.7480314960629921,
          "duration": 0.2727270000000033
        },
        {
          "name": "C3",
          "midi": 48,
          "time": 119.18169900000082,
          "velocity": 0.7480314960629921,
          "duration": 0.2727270000000033
        },
        {
          "name": "G3",
          "midi": 55,
          "time": 119.45442600000082,
          "velocity": 0.7480314960629921,
          "duration": 0.5454540000000065
        },
        {
          "name": "G2",
          "midi": 43,
          "time": 119.45442600000082,
          "velocity": 0.7480314960629921,
          "duration": 0.5454540000000065
        },
        {
          "name": "A#2",
          "midi": 46,
          "time": 119.99988000000083,
          "velocity": 0.7480314960629921,
          "duration": 0.2727270000000033
        },
        {
          "name": "F3",
          "midi": 53,
          "time": 120.27260700000083,
          "velocity": 0.7480314960629921,
          "duration": 0.2727270000000033
        },
        {
          "name": "A#3",
          "midi": 58,
          "time": 120.54533400000084,
          "velocity": 0.7480314960629921,
          "duration": 0.2727270000000033
        },
        {
          "name": "D4",
          "midi": 62,
          "time": 120.81806100000084,
          "velocity": 0.7480314960629921,
          "duration": 0.5454540000000065
        },
        {
          "name": "A#3",
          "midi": 58,
          "time": 121.36351500000085,
          "velocity": 0.7480314960629921,
          "duration": 0.2727270000000033
        },
        {
          "name": "F3",
          "midi": 53,
          "time": 121.63624200000085,
          "velocity": 0.7480314960629921,
          "duration": 0.5454540000000065
        },
        {
          "name": "C3",
          "midi": 48,
          "time": 122.18169600000085,
          "velocity": 0.7480314960629921,
          "duration": 0.2727270000000033
        },
        {
          "name": "G3",
          "midi": 55,
          "time": 122.45442300000086,
          "velocity": 0.7480314960629921,
          "duration": 0.2727270000000033
        },
        {
          "name": "C4",
          "midi": 60,
          "time": 122.72715000000086,
          "velocity": 0.7480314960629921,
          "duration": 0.2727270000000033
        },
        {
          "name": "E4",
          "midi": 64,
          "time": 122.99987700000086,
          "velocity": 0.7480314960629921,
          "duration": 0.5454540000000065
        },
        {
          "name": "C4",
          "midi": 60,
          "time": 123.54533100000087,
          "velocity": 0.7480314960629921,
          "duration": 0.2727270000000033
        },
        {
          "name": "G3",
          "midi": 55,
          "time": 123.81805800000087,
          "velocity": 0.7480314960629921,
          "duration": 0.5454540000000065
        },
        {
          "name": "D3",
          "midi": 50,
          "time": 124.36351200000088,
          "velocity": 0.7480314960629921,
          "duration": 0.2727270000000033
        },
        {
          "name": "A3",
          "midi": 57,
          "time": 124.63623900000088,
          "velocity": 0.7480314960629921,
          "duration": 0.2727270000000033
        },
        {
          "name": "D4",
          "midi": 62,
          "time": 124.90896600000089,
          "velocity": 0.7480314960629921,
          "duration": 0.2727270000000033
        },
        {
          "name": "A3",
          "midi": 57,
          "time": 125.18169300000089,
          "velocity": 0.7480314960629921,
          "duration": 0.2727270000000033
        },
        {
          "name": "E3",
          "midi": 52,
          "time": 125.4544200000009,
          "velocity": 0.7480314960629921,
          "duration": 0.2727270000000033
        },
        {
          "name": "C4",
          "midi": 60,
          "time": 125.7271470000009,
          "velocity": 0.7480314960629921,
          "duration": 0.2727270000000033
        },
        {
          "name": "F4",
          "midi": 65,
          "time": 125.9998740000009,
          "velocity": 0.7480314960629921,
          "duration": 0.2727270000000033
        },
        {
          "name": "C4",
          "midi": 60,
          "time": 126.2726010000009,
          "velocity": 0.7480314960629921,
          "duration": 0.2727270000000033
        },
        {
          "name": "F3",
          "midi": 53,
          "time": 126.54532800000091,
          "velocity": 0.7480314960629921,
          "duration": 0.2727270000000033
        },
        {
          "name": "C4",
          "midi": 60,
          "time": 126.81805500000091,
          "velocity": 0.7480314960629921,
          "duration": 0.2727270000000033
        },
        {
          "name": "F4",
          "midi": 65,
          "time": 127.09078200000091,
          "velocity": 0.7480314960629921,
          "duration": 0.2727270000000033
        },
        {
          "name": "C4",
          "midi": 60,
          "time": 127.36350900000092,
          "velocity": 0.7480314960629921,
          "duration": 0.2727270000000033
        },
        {
          "name": "C3",
          "midi": 48,
          "time": 127.63623600000092,
          "velocity": 0.7480314960629921,
          "duration": 0.2727270000000033
        },
        {
          "name": "G3",
          "midi": 55,
          "time": 127.90896300000092,
          "velocity": 0.7480314960629921,
          "duration": 0.27272699999998906
        },
        {
          "name": "C4",
          "midi": 60,
          "time": 128.1816900000009,
          "velocity": 0.7480314960629921,
          "duration": 0.2727270000000033
        },
        {
          "name": "G3",
          "midi": 55,
          "time": 128.45441700000092,
          "velocity": 0.7480314960629921,
          "duration": 0.2727270000000033
        },
        {
          "name": "A#2",
          "midi": 46,
          "time": 128.72714400000092,
          "velocity": 0.7480314960629921,
          "duration": 0.2727270000000033
        },
        {
          "name": "F3",
          "midi": 53,
          "time": 128.99987100000092,
          "velocity": 0.7480314960629921,
          "duration": 0.2727270000000033
        },
        {
          "name": "A#3",
          "midi": 58,
          "time": 129.27259800000093,
          "velocity": 0.7480314960629921,
          "duration": 0.2727270000000033
        },
        {
          "name": "D4",
          "midi": 62,
          "time": 129.54532500000093,
          "velocity": 0.7480314960629921,
          "duration": 0.5454540000000065
        },
        {
          "name": "A#3",
          "midi": 58,
          "time": 130.09077900000094,
          "velocity": 0.7480314960629921,
          "duration": 0.2727270000000033
        },
        {
          "name": "F3",
          "midi": 53,
          "time": 130.36350600000094,
          "velocity": 0.7480314960629921,
          "duration": 0.5454540000000065
        },
        {
          "name": "C3",
          "midi": 48,
          "time": 130.90896000000095,
          "velocity": 0.7480314960629921,
          "duration": 0.2727270000000033
        },
        {
          "name": "G3",
          "midi": 55,
          "time": 131.18168700000095,
          "velocity": 0.7480314960629921,
          "duration": 0.2727270000000033
        },
        {
          "name": "C4",
          "midi": 60,
          "time": 131.45441400000095,
          "velocity": 0.7480314960629921,
          "duration": 0.2727270000000033
        },
        {
          "name": "E4",
          "midi": 64,
          "time": 131.72714100000096,
          "velocity": 0.7480314960629921,
          "duration": 0.5454540000000065
        },
        {
          "name": "C4",
          "midi": 60,
          "time": 132.27259500000096,
          "velocity": 0.7480314960629921,
          "duration": 0.2727270000000033
        },
        {
          "name": "G3",
          "midi": 55,
          "time": 132.54532200000097,
          "velocity": 0.7480314960629921,
          "duration": 0.5454540000000065
        },
        {
          "name": "A2",
          "midi": 45,
          "time": 133.09077600000097,
          "velocity": 0.7480314960629921,
          "duration": 0.2727270000000033
        },
        {
          "name": "E3",
          "midi": 52,
          "time": 133.36350300000097,
          "velocity": 0.7480314960629921,
          "duration": 0.2727270000000033
        },
        {
          "name": "A3",
          "midi": 57,
          "time": 133.63623000000098,
          "velocity": 0.7480314960629921,
          "duration": 0.8181810000000098
        },
        {
          "name": "E3",
          "midi": 52,
          "time": 134.454411000001,
          "velocity": 0.7480314960629921,
          "duration": 0.2727270000000033
        },
        {
          "name": "A3",
          "midi": 57,
          "time": 134.727138000001,
          "velocity": 0.7480314960629921,
          "duration": 0.2727270000000033
        },
        {
          "name": "E3",
          "midi": 52,
          "time": 134.999865000001,
          "velocity": 0.7480314960629921,
          "duration": 0.2727270000000033
        },
        {
          "name": "A2",
          "midi": 45,
          "time": 135.272592000001,
          "velocity": 0.7480314960629921,
          "duration": 0.2727270000000033
        },
        {
          "name": "E3",
          "midi": 52,
          "time": 135.545319000001,
          "velocity": 0.7480314960629921,
          "duration": 0.2727270000000033
        },
        {
          "name": "A3",
          "midi": 57,
          "time": 135.818046000001,
          "velocity": 0.7480314960629921,
          "duration": 0.8181810000000098
        },
        {
          "name": "E3",
          "midi": 52,
          "time": 136.636227000001,
          "velocity": 0.7480314960629921,
          "duration": 0.2727270000000033
        },
        {
          "name": "A3",
          "midi": 57,
          "time": 136.90895400000102,
          "velocity": 0.7480314960629921,
          "duration": 0.2727270000000033
        },
        {
          "name": "E3",
          "midi": 52,
          "time": 137.18168100000102,
          "velocity": 0.7480314960629921,
          "duration": 0.2727270000000033
        },
        {
          "name": "A2",
          "midi": 45,
          "time": 137.45440800000102,
          "velocity": 0.7480314960629921,
          "duration": 0.2727270000000033
        },
        {
          "name": "E3",
          "midi": 52,
          "time": 137.72713500000103,
          "velocity": 0.7480314960629921,
          "duration": 0.2727270000000033
        },
        {
          "name": "A3",
          "midi": 57,
          "time": 137.99986200000103,
          "velocity": 0.7480314960629921,
          "duration": 0.8181810000000098
        },
        {
          "name": "E3",
          "midi": 52,
          "time": 138.81804300000104,
          "velocity": 0.7480314960629921,
          "duration": 0.2727270000000033
        },
        {
          "name": "A3",
          "midi": 57,
          "time": 139.09077000000104,
          "velocity": 0.7480314960629921,
          "duration": 0.2727270000000033
        },
        {
          "name": "E3",
          "midi": 52,
          "time": 139.36349700000105,
          "velocity": 0.7480314960629921,
          "duration": 0.2727270000000033
        },
        {
          "name": "D3",
          "midi": 50,
          "time": 139.63622400000105,
          "velocity": 0.7480314960629921,
          "duration": 0.2727270000000033
        },
        {
          "name": "D2",
          "midi": 38,
          "time": 139.63622400000105,
          "velocity": 0.7480314960629921,
          "duration": 0.2727270000000033
        },
        {
          "name": "A3",
          "midi": 57,
          "time": 139.90895100000105,
          "velocity": 0.7480314960629921,
          "duration": 0.2727270000000033
        },
        {
          "name": "A2",
          "midi": 45,
          "time": 139.90895100000105,
          "velocity": 0.7480314960629921,
          "duration": 0.2727270000000033
        },
        {
          "name": "D4",
          "midi": 62,
          "time": 140.18167800000106,
          "velocity": 0.7480314960629921,
          "duration": 0.2727270000000033
        },
        {
          "name": "D3",
          "midi": 50,
          "time": 140.18167800000106,
          "velocity": 0.7480314960629921,
          "duration": 0.2727270000000033
        },
        {
          "name": "F4",
          "midi": 65,
          "time": 140.45440500000106,
          "velocity": 0.7480314960629921,
          "duration": 0.5454540000000065
        },
        {
          "name": "F3",
          "midi": 53,
          "time": 140.45440500000106,
          "velocity": 0.7480314960629921,
          "duration": 0.5454540000000065
        },
        {
          "name": "D4",
          "midi": 62,
          "time": 140.99985900000107,
          "velocity": 0.7480314960629921,
          "duration": 0.2727270000000033
        },
        {
          "name": "D3",
          "midi": 50,
          "time": 140.99985900000107,
          "velocity": 0.7480314960629921,
          "duration": 0.2727270000000033
        },
        {
          "name": "A3",
          "midi": 57,
          "time": 141.27258600000107,
          "velocity": 0.7480314960629921,
          "duration": 0.5454540000000065
        },
        {
          "name": "A2",
          "midi": 45,
          "time": 141.27258600000107,
          "velocity": 0.7480314960629921,
          "duration": 0.5454540000000065
        },
        {
          "name": "A#2",
          "midi": 46,
          "time": 141.81804000000108,
          "velocity": 0.7480314960629921,
          "duration": 0.2727270000000033
        },
        {
          "name": "A#1",
          "midi": 34,
          "time": 141.81804000000108,
          "velocity": 0.7480314960629921,
          "duration": 0.2727270000000033
        },
        {
          "name": "F3",
          "midi": 53,
          "time": 142.09076700000108,
          "velocity": 0.7480314960629921,
          "duration": 0.2727270000000033
        },
        {
          "name": "F2",
          "midi": 41,
          "time": 142.09076700000108,
          "velocity": 0.7480314960629921,
          "duration": 0.2727270000000033
        },
        {
          "name": "A#3",
          "midi": 58,
          "time": 142.36349400000108,
          "velocity": 0.7480314960629921,
          "duration": 0.2727270000000033
        },
        {
          "name": "A#2",
          "midi": 46,
          "time": 142.36349400000108,
          "velocity": 0.7480314960629921,
          "duration": 0.2727270000000033
        },
        {
          "name": "D4",
          "midi": 62,
          "time": 142.6362210000011,
          "velocity": 0.7480314960629921,
          "duration": 0.5454540000000065
        },
        {
          "name": "D3",
          "midi": 50,
          "time": 142.6362210000011,
          "velocity": 0.7480314960629921,
          "duration": 0.5454540000000065
        },
        {
          "name": "A#3",
          "midi": 58,
          "time": 143.1816750000011,
          "velocity": 0.7480314960629921,
          "duration": 0.2727270000000033
        },
        {
          "name": "A#2",
          "midi": 46,
          "time": 143.1816750000011,
          "velocity": 0.7480314960629921,
          "duration": 0.2727270000000033
        },
        {
          "name": "F3",
          "midi": 53,
          "time": 143.4544020000011,
          "velocity": 0.7480314960629921,
          "duration": 0.5454540000000065
        },
        {
          "name": "F2",
          "midi": 41,
          "time": 143.4544020000011,
          "velocity": 0.7480314960629921,
          "duration": 0.5454540000000065
        },
        {
          "name": "F3",
          "midi": 53,
          "time": 143.9998560000011,
          "velocity": 0.7480314960629921,
          "duration": 0.2727270000000033
        },
        {
          "name": "F2",
          "midi": 41,
          "time": 143.9998560000011,
          "velocity": 0.7480314960629921,
          "duration": 0.2727270000000033
        },
        {
          "name": "C4",
          "midi": 60,
          "time": 144.2725830000011,
          "velocity": 0.7480314960629921,
          "duration": 0.2727270000000033
        },
        {
          "name": "C3",
          "midi": 48,
          "time": 144.2725830000011,
          "velocity": 0.7480314960629921,
          "duration": 0.2727270000000033
        },
        {
          "name": "F4",
          "midi": 65,
          "time": 144.5453100000011,
          "velocity": 0.7480314960629921,
          "duration": 0.2727270000000033
        },
        {
          "name": "F3",
          "midi": 53,
          "time": 144.5453100000011,
          "velocity": 0.7480314960629921,
          "duration": 0.2727270000000033
        },
        {
          "name": "A4",
          "midi": 69,
          "time": 144.8180370000011,
          "velocity": 0.7480314960629921,
          "duration": 0.5454540000000065
        },
        {
          "name": "A3",
          "midi": 57,
          "time": 144.8180370000011,
          "velocity": 0.7480314960629921,
          "duration": 0.5454540000000065
        },
        {
          "name": "F4",
          "midi": 65,
          "time": 145.36349100000112,
          "velocity": 0.7480314960629921,
          "duration": 0.2727270000000033
        },
        {
          "name": "F3",
          "midi": 53,
          "time": 145.36349100000112,
          "velocity": 0.7480314960629921,
          "duration": 0.2727270000000033
        },
        {
          "name": "C4",
          "midi": 60,
          "time": 145.63621800000112,
          "velocity": 0.7480314960629921,
          "duration": 0.5454540000000065
        },
        {
          "name": "C3",
          "midi": 48,
          "time": 145.63621800000112,
          "velocity": 0.7480314960629921,
          "duration": 0.5454540000000065
        },
        {
          "name": "C3",
          "midi": 48,
          "time": 146.18167200000113,
          "velocity": 0.7480314960629921,
          "duration": 0.2727270000000033
        },
        {
          "name": "C2",
          "midi": 36,
          "time": 146.18167200000113,
          "velocity": 0.7480314960629921,
          "duration": 0.2727270000000033
        },
        {
          "name": "G3",
          "midi": 55,
          "time": 146.45439900000113,
          "velocity": 0.7480314960629921,
          "duration": 0.2727270000000033
        },
        {
          "name": "G2",
          "midi": 43,
          "time": 146.45439900000113,
          "velocity": 0.7480314960629921,
          "duration": 0.2727270000000033
        },
        {
          "name": "C4",
          "midi": 60,
          "time": 146.72712600000114,
          "velocity": 0.7480314960629921,
          "duration": 0.2727270000000033
        },
        {
          "name": "C3",
          "midi": 48,
          "time": 146.72712600000114,
          "velocity": 0.7480314960629921,
          "duration": 0.2727270000000033
        },
        {
          "name": "E4",
          "midi": 64,
          "time": 146.99985300000114,
          "velocity": 0.7480314960629921,
          "duration": 0.5454540000000065
        },
        {
          "name": "E3",
          "midi": 52,
          "time": 146.99985300000114,
          "velocity": 0.7480314960629921,
          "duration": 0.5454540000000065
        },
        {
          "name": "C4",
          "midi": 60,
          "time": 147.54530700000115,
          "velocity": 0.7480314960629921,
          "duration": 0.2727270000000033
        },
        {
          "name": "C3",
          "midi": 48,
          "time": 147.54530700000115,
          "velocity": 0.7480314960629921,
          "duration": 0.2727270000000033
        },
        {
          "name": "G3",
          "midi": 55,
          "time": 147.81803400000115,
          "velocity": 0.7480314960629921,
          "duration": 0.5454540000000065
        },
        {
          "name": "G2",
          "midi": 43,
          "time": 147.81803400000115,
          "velocity": 0.7480314960629921,
          "duration": 0.5454540000000065
        },
        {
          "name": "D3",
          "midi": 50,
          "time": 148.36348800000115,
          "velocity": 0.7480314960629921,
          "duration": 0.2727270000000033
        },
        {
          "name": "D2",
          "midi": 38,
          "time": 148.36348800000115,
          "velocity": 0.7480314960629921,
          "duration": 0.2727270000000033
        },
        {
          "name": "A3",
          "midi": 57,
          "time": 148.63621500000116,
          "velocity": 0.7480314960629921,
          "duration": 0.2727270000000033
        },
        {
          "name": "A2",
          "midi": 45,
          "time": 148.63621500000116,
          "velocity": 0.7480314960629921,
          "duration": 0.2727270000000033
        },
        {
          "name": "D4",
          "midi": 62,
          "time": 148.90894200000116,
          "velocity": 0.7480314960629921,
          "duration": 0.2727270000000033
        },
        {
          "name": "D3",
          "midi": 50,
          "time": 148.90894200000116,
          "velocity": 0.7480314960629921,
          "duration": 0.2727270000000033
        },
        {
          "name": "F4",
          "midi": 65,
          "time": 149.18166900000116,
          "velocity": 0.7480314960629921,
          "duration": 0.5454540000000065
        },
        {
          "name": "F3",
          "midi": 53,
          "time": 149.18166900000116,
          "velocity": 0.7480314960629921,
          "duration": 0.5454540000000065
        },
        {
          "name": "D4",
          "midi": 62,
          "time": 149.72712300000117,
          "velocity": 0.7480314960629921,
          "duration": 0.2727270000000033
        },
        {
          "name": "D3",
          "midi": 50,
          "time": 149.72712300000117,
          "velocity": 0.7480314960629921,
          "duration": 0.2727270000000033
        },
        {
          "name": "A3",
          "midi": 57,
          "time": 149.99985000000117,
          "velocity": 0.7480314960629921,
          "duration": 0.5454540000000065
        },
        {
          "name": "A2",
          "midi": 45,
          "time": 149.99985000000117,
          "velocity": 0.7480314960629921,
          "duration": 0.5454540000000065
        },
        {
          "name": "A#2",
          "midi": 46,
          "time": 150.54530400000118,
          "velocity": 0.7480314960629921,
          "duration": 0.2727270000000033
        },
        {
          "name": "A#1",
          "midi": 34,
          "time": 150.54530400000118,
          "velocity": 0.7480314960629921,
          "duration": 0.2727270000000033
        },
        {
          "name": "F3",
          "midi": 53,
          "time": 150.81803100000118,
          "velocity": 0.7480314960629921,
          "duration": 0.2727270000000033
        },
        {
          "name": "F2",
          "midi": 41,
          "time": 150.81803100000118,
          "velocity": 0.7480314960629921,
          "duration": 0.2727270000000033
        },
        {
          "name": "A#3",
          "midi": 58,
          "time": 151.0907580000012,
          "velocity": 0.7480314960629921,
          "duration": 0.2727270000000033
        },
        {
          "name": "A#2",
          "midi": 46,
          "time": 151.0907580000012,
          "velocity": 0.7480314960629921,
          "duration": 0.2727270000000033
        },
        {
          "name": "D4",
          "midi": 62,
          "time": 151.3634850000012,
          "velocity": 0.7480314960629921,
          "duration": 0.5454540000000065
        },
        {
          "name": "D3",
          "midi": 50,
          "time": 151.3634850000012,
          "velocity": 0.7480314960629921,
          "duration": 0.5454540000000065
        },
        {
          "name": "A#3",
          "midi": 58,
          "time": 151.9089390000012,
          "velocity": 0.7480314960629921,
          "duration": 0.2727270000000033
        },
        {
          "name": "A#2",
          "midi": 46,
          "time": 151.9089390000012,
          "velocity": 0.7480314960629921,
          "duration": 0.2727270000000033
        },
        {
          "name": "F3",
          "midi": 53,
          "time": 152.1816660000012,
          "velocity": 0.7480314960629921,
          "duration": 0.5454540000000065
        },
        {
          "name": "F2",
          "midi": 41,
          "time": 152.1816660000012,
          "velocity": 0.7480314960629921,
          "duration": 0.5454540000000065
        },
        {
          "name": "F3",
          "midi": 53,
          "time": 152.7271200000012,
          "velocity": 0.7480314960629921,
          "duration": 0.2727270000000033
        },
        {
          "name": "F2",
          "midi": 41,
          "time": 152.7271200000012,
          "velocity": 0.7480314960629921,
          "duration": 0.2727270000000033
        },
        {
          "name": "C4",
          "midi": 60,
          "time": 152.9998470000012,
          "velocity": 0.7480314960629921,
          "duration": 0.2727270000000033
        },
        {
          "name": "C3",
          "midi": 48,
          "time": 152.9998470000012,
          "velocity": 0.7480314960629921,
          "duration": 0.2727270000000033
        },
        {
          "name": "F4",
          "midi": 65,
          "time": 153.2725740000012,
          "velocity": 0.7480314960629921,
          "duration": 0.2727270000000033
        },
        {
          "name": "F3",
          "midi": 53,
          "time": 153.2725740000012,
          "velocity": 0.7480314960629921,
          "duration": 0.2727270000000033
        },
        {
          "name": "A4",
          "midi": 69,
          "time": 153.54530100000122,
          "velocity": 0.7480314960629921,
          "duration": 0.5454540000000065
        },
        {
          "name": "A3",
          "midi": 57,
          "time": 153.54530100000122,
          "velocity": 0.7480314960629921,
          "duration": 0.5454540000000065
        },
        {
          "name": "F4",
          "midi": 65,
          "time": 154.09075500000122,
          "velocity": 0.7480314960629921,
          "duration": 0.2727270000000033
        },
        {
          "name": "F3",
          "midi": 53,
          "time": 154.09075500000122,
          "velocity": 0.7480314960629921,
          "duration": 0.2727270000000033
        },
        {
          "name": "C4",
          "midi": 60,
          "time": 154.36348200000123,
          "velocity": 0.7480314960629921,
          "duration": 0.5454540000000065
        },
        {
          "name": "C3",
          "midi": 48,
          "time": 154.36348200000123,
          "velocity": 0.7480314960629921,
          "duration": 0.5454540000000065
        },
        {
          "name": "C3",
          "midi": 48,
          "time": 154.90893600000123,
          "velocity": 0.7480314960629921,
          "duration": 0.2727270000000033
        },
        {
          "name": "C2",
          "midi": 36,
          "time": 154.90893600000123,
          "velocity": 0.7480314960629921,
          "duration": 0.2727270000000033
        },
        {
          "name": "G3",
          "midi": 55,
          "time": 155.18166300000124,
          "velocity": 0.7480314960629921,
          "duration": 0.2727270000000033
        },
        {
          "name": "G2",
          "midi": 43,
          "time": 155.18166300000124,
          "velocity": 0.7480314960629921,
          "duration": 0.2727270000000033
        },
        {
          "name": "C4",
          "midi": 60,
          "time": 155.45439000000124,
          "velocity": 0.7480314960629921,
          "duration": 0.2727270000000033
        },
        {
          "name": "C3",
          "midi": 48,
          "time": 155.45439000000124,
          "velocity": 0.7480314960629921,
          "duration": 0.2727270000000033
        },
        {
          "name": "E4",
          "midi": 64,
          "time": 155.72711700000124,
          "velocity": 0.7480314960629921,
          "duration": 0.5454540000000065
        },
        {
          "name": "E3",
          "midi": 52,
          "time": 155.72711700000124,
          "velocity": 0.7480314960629921,
          "duration": 0.5454540000000065
        },
        {
          "name": "C4",
          "midi": 60,
          "time": 156.27257100000125,
          "velocity": 0.7480314960629921,
          "duration": 0.2727270000000033
        },
        {
          "name": "C3",
          "midi": 48,
          "time": 156.27257100000125,
          "velocity": 0.7480314960629921,
          "duration": 0.2727270000000033
        },
        {
          "name": "G3",
          "midi": 55,
          "time": 156.54529800000125,
          "velocity": 0.7480314960629921,
          "duration": 0.5454540000000065
        },
        {
          "name": "G2",
          "midi": 43,
          "time": 156.54529800000125,
          "velocity": 0.7480314960629921,
          "duration": 0.5454540000000065
        },
        {
          "name": "D3",
          "midi": 50,
          "time": 157.09075200000126,
          "velocity": 0.7480314960629921,
          "duration": 0.2727270000000033
        },
        {
          "name": "D2",
          "midi": 38,
          "time": 157.09075200000126,
          "velocity": 0.7480314960629921,
          "duration": 0.2727270000000033
        },
        {
          "name": "A3",
          "midi": 57,
          "time": 157.36347900000126,
          "velocity": 0.7480314960629921,
          "duration": 0.2727270000000033
        },
        {
          "name": "A2",
          "midi": 45,
          "time": 157.36347900000126,
          "velocity": 0.7480314960629921,
          "duration": 0.2727270000000033
        },
        {
          "name": "D4",
          "midi": 62,
          "time": 157.63620600000127,
          "velocity": 0.7480314960629921,
          "duration": 0.2727270000000033
        },
        {
          "name": "D3",
          "midi": 50,
          "time": 157.63620600000127,
          "velocity": 0.7480314960629921,
          "duration": 0.2727270000000033
        },
        {
          "name": "F4",
          "midi": 65,
          "time": 157.90893300000127,
          "velocity": 0.7480314960629921,
          "duration": 0.5454540000000065
        },
        {
          "name": "F3",
          "midi": 53,
          "time": 157.90893300000127,
          "velocity": 0.7480314960629921,
          "duration": 0.5454540000000065
        },
        {
          "name": "D4",
          "midi": 62,
          "time": 158.45438700000128,
          "velocity": 0.7480314960629921,
          "duration": 0.2727270000000033
        },
        {
          "name": "D3",
          "midi": 50,
          "time": 158.45438700000128,
          "velocity": 0.7480314960629921,
          "duration": 0.2727270000000033
        },
        {
          "name": "A3",
          "midi": 57,
          "time": 158.72711400000128,
          "velocity": 0.7480314960629921,
          "duration": 0.5454540000000065
        },
        {
          "name": "A2",
          "midi": 45,
          "time": 158.72711400000128,
          "velocity": 0.7480314960629921,
          "duration": 0.5454540000000065
        },
        {
          "name": "A#2",
          "midi": 46,
          "time": 159.27256800000129,
          "velocity": 0.7480314960629921,
          "duration": 0.2727270000000033
        },
        {
          "name": "A#1",
          "midi": 34,
          "time": 159.27256800000129,
          "velocity": 0.7480314960629921,
          "duration": 0.2727270000000033
        },
        {
          "name": "F3",
          "midi": 53,
          "time": 159.5452950000013,
          "velocity": 0.7480314960629921,
          "duration": 0.2727270000000033
        },
        {
          "name": "F2",
          "midi": 41,
          "time": 159.5452950000013,
          "velocity": 0.7480314960629921,
          "duration": 0.2727270000000033
        },
        {
          "name": "A#3",
          "midi": 58,
          "time": 159.8180220000013,
          "velocity": 0.7480314960629921,
          "duration": 0.2727270000000033
        },
        {
          "name": "A#2",
          "midi": 46,
          "time": 159.8180220000013,
          "velocity": 0.7480314960629921,
          "duration": 0.2727270000000033
        },
        {
          "name": "D4",
          "midi": 62,
          "time": 160.0907490000013,
          "velocity": 0.7480314960629921,
          "duration": 0.5454540000000065
        },
        {
          "name": "D3",
          "midi": 50,
          "time": 160.0907490000013,
          "velocity": 0.7480314960629921,
          "duration": 0.5454540000000065
        },
        {
          "name": "A#3",
          "midi": 58,
          "time": 160.6362030000013,
          "velocity": 0.7480314960629921,
          "duration": 0.2727270000000033
        },
        {
          "name": "A#2",
          "midi": 46,
          "time": 160.6362030000013,
          "velocity": 0.7480314960629921,
          "duration": 0.2727270000000033
        },
        {
          "name": "F3",
          "midi": 53,
          "time": 160.9089300000013,
          "velocity": 0.7480314960629921,
          "duration": 0.5454540000000065
        },
        {
          "name": "F2",
          "midi": 41,
          "time": 160.9089300000013,
          "velocity": 0.7480314960629921,
          "duration": 0.5454540000000065
        },
        {
          "name": "F3",
          "midi": 53,
          "time": 161.4543840000013,
          "velocity": 0.7480314960629921,
          "duration": 0.2727270000000033
        },
        {
          "name": "F2",
          "midi": 41,
          "time": 161.4543840000013,
          "velocity": 0.7480314960629921,
          "duration": 0.2727270000000033
        },
        {
          "name": "C4",
          "midi": 60,
          "time": 161.72711100000132,
          "velocity": 0.7480314960629921,
          "duration": 0.2727270000000033
        },
        {
          "name": "C3",
          "midi": 48,
          "time": 161.72711100000132,
          "velocity": 0.7480314960629921,
          "duration": 0.2727270000000033
        },
        {
          "name": "F4",
          "midi": 65,
          "time": 161.99983800000132,
          "velocity": 0.7480314960629921,
          "duration": 0.2727270000000033
        },
        {
          "name": "F3",
          "midi": 53,
          "time": 161.99983800000132,
          "velocity": 0.7480314960629921,
          "duration": 0.2727270000000033
        },
        {
          "name": "A4",
          "midi": 69,
          "time": 162.27256500000132,
          "velocity": 0.7480314960629921,
          "duration": 0.5454540000000065
        },
        {
          "name": "A3",
          "midi": 57,
          "time": 162.27256500000132,
          "velocity": 0.7480314960629921,
          "duration": 0.5454540000000065
        },
        {
          "name": "F4",
          "midi": 65,
          "time": 162.81801900000133,
          "velocity": 0.7480314960629921,
          "duration": 0.2727270000000033
        },
        {
          "name": "F3",
          "midi": 53,
          "time": 162.81801900000133,
          "velocity": 0.7480314960629921,
          "duration": 0.2727270000000033
        },
        {
          "name": "C4",
          "midi": 60,
          "time": 163.09074600000133,
          "velocity": 0.7480314960629921,
          "duration": 0.5454540000000065
        },
        {
          "name": "C3",
          "midi": 48,
          "time": 163.09074600000133,
          "velocity": 0.7480314960629921,
          "duration": 0.5454540000000065
        },
        {
          "name": "C3",
          "midi": 48,
          "time": 163.63620000000134,
          "velocity": 0.7480314960629921,
          "duration": 0.2727270000000033
        },
        {
          "name": "C2",
          "midi": 36,
          "time": 163.63620000000134,
          "velocity": 0.7480314960629921,
          "duration": 0.2727270000000033
        },
        {
          "name": "G3",
          "midi": 55,
          "time": 163.90892700000134,
          "velocity": 0.7480314960629921,
          "duration": 0.2727270000000033
        },
        {
          "name": "G2",
          "midi": 43,
          "time": 163.90892700000134,
          "velocity": 0.7480314960629921,
          "duration": 0.2727270000000033
        },
        {
          "name": "C4",
          "midi": 60,
          "time": 164.18165400000134,
          "velocity": 0.7480314960629921,
          "duration": 0.2727270000000033
        },
        {
          "name": "C3",
          "midi": 48,
          "time": 164.18165400000134,
          "velocity": 0.7480314960629921,
          "duration": 0.2727270000000033
        },
        {
          "name": "E4",
          "midi": 64,
          "time": 164.45438100000135,
          "velocity": 0.7480314960629921,
          "duration": 0.5454540000000065
        },
        {
          "name": "E3",
          "midi": 52,
          "time": 164.45438100000135,
          "velocity": 0.7480314960629921,
          "duration": 0.5454540000000065
        },
        {
          "name": "C4",
          "midi": 60,
          "time": 164.99983500000135,
          "velocity": 0.7480314960629921,
          "duration": 0.2727270000000033
        },
        {
          "name": "C3",
          "midi": 48,
          "time": 164.99983500000135,
          "velocity": 0.7480314960629921,
          "duration": 0.2727270000000033
        },
        {
          "name": "G3",
          "midi": 55,
          "time": 165.27256200000136,
          "velocity": 0.7480314960629921,
          "duration": 0.5454540000000065
        },
        {
          "name": "G2",
          "midi": 43,
          "time": 165.27256200000136,
          "velocity": 0.7480314960629921,
          "duration": 0.5454540000000065
        },
        {
          "name": "D3",
          "midi": 50,
          "time": 165.81801600000136,
          "velocity": 0.7480314960629921,
          "duration": 0.2727270000000033
        },
        {
          "name": "D2",
          "midi": 38,
          "time": 165.81801600000136,
          "velocity": 0.7480314960629921,
          "duration": 0.2727270000000033
        },
        {
          "name": "A3",
          "midi": 57,
          "time": 166.09074300000137,
          "velocity": 0.7480314960629921,
          "duration": 0.2727270000000033
        },
        {
          "name": "A2",
          "midi": 45,
          "time": 166.09074300000137,
          "velocity": 0.7480314960629921,
          "duration": 0.2727270000000033
        },
        {
          "name": "D4",
          "midi": 62,
          "time": 166.36347000000137,
          "velocity": 0.7480314960629921,
          "duration": 0.2727270000000033
        },
        {
          "name": "D3",
          "midi": 50,
          "time": 166.36347000000137,
          "velocity": 0.7480314960629921,
          "duration": 0.2727270000000033
        },
        {
          "name": "F4",
          "midi": 65,
          "time": 166.63619700000137,
          "velocity": 0.7480314960629921,
          "duration": 0.5454540000000065
        },
        {
          "name": "F3",
          "midi": 53,
          "time": 166.63619700000137,
          "velocity": 0.7480314960629921,
          "duration": 0.5454540000000065
        },
        {
          "name": "D4",
          "midi": 62,
          "time": 167.18165100000138,
          "velocity": 0.7480314960629921,
          "duration": 0.2727270000000033
        },
        {
          "name": "D3",
          "midi": 50,
          "time": 167.18165100000138,
          "velocity": 0.7480314960629921,
          "duration": 0.2727270000000033
        },
        {
          "name": "A3",
          "midi": 57,
          "time": 167.45437800000138,
          "velocity": 0.7480314960629921,
          "duration": 0.5454540000000065
        },
        {
          "name": "A2",
          "midi": 45,
          "time": 167.45437800000138,
          "velocity": 0.7480314960629921,
          "duration": 0.5454540000000065
        },
        {
          "name": "A#2",
          "midi": 46,
          "time": 167.9998320000014,
          "velocity": 0.7480314960629921,
          "duration": 0.2727270000000033
        },
        {
          "name": "A#1",
          "midi": 34,
          "time": 167.9998320000014,
          "velocity": 0.7480314960629921,
          "duration": 0.2727270000000033
        },
        {
          "name": "F3",
          "midi": 53,
          "time": 168.2725590000014,
          "velocity": 0.7480314960629921,
          "duration": 0.2727270000000033
        },
        {
          "name": "F2",
          "midi": 41,
          "time": 168.2725590000014,
          "velocity": 0.7480314960629921,
          "duration": 0.2727270000000033
        },
        {
          "name": "A#3",
          "midi": 58,
          "time": 168.5452860000014,
          "velocity": 0.7480314960629921,
          "duration": 0.2727270000000033
        },
        {
          "name": "A#2",
          "midi": 46,
          "time": 168.5452860000014,
          "velocity": 0.7480314960629921,
          "duration": 0.2727270000000033
        },
        {
          "name": "D4",
          "midi": 62,
          "time": 168.8180130000014,
          "velocity": 0.7480314960629921,
          "duration": 0.5454540000000065
        },
        {
          "name": "D3",
          "midi": 50,
          "time": 168.8180130000014,
          "velocity": 0.7480314960629921,
          "duration": 0.5454540000000065
        },
        {
          "name": "A#3",
          "midi": 58,
          "time": 169.3634670000014,
          "velocity": 0.7480314960629921,
          "duration": 0.2727270000000033
        },
        {
          "name": "A#2",
          "midi": 46,
          "time": 169.3634670000014,
          "velocity": 0.7480314960629921,
          "duration": 0.2727270000000033
        },
        {
          "name": "F3",
          "midi": 53,
          "time": 169.6361940000014,
          "velocity": 0.7480314960629921,
          "duration": 0.5454540000000065
        },
        {
          "name": "F2",
          "midi": 41,
          "time": 169.6361940000014,
          "velocity": 0.7480314960629921,
          "duration": 0.5454540000000065
        },
        {
          "name": "F3",
          "midi": 53,
          "time": 170.18164800000142,
          "velocity": 0.7480314960629921,
          "duration": 0.2727270000000033
        },
        {
          "name": "F2",
          "midi": 41,
          "time": 170.18164800000142,
          "velocity": 0.7480314960629921,
          "duration": 0.2727270000000033
        },
        {
          "name": "C4",
          "midi": 60,
          "time": 170.45437500000142,
          "velocity": 0.7480314960629921,
          "duration": 0.2727270000000033
        },
        {
          "name": "C3",
          "midi": 48,
          "time": 170.45437500000142,
          "velocity": 0.7480314960629921,
          "duration": 0.2727270000000033
        },
        {
          "name": "F4",
          "midi": 65,
          "time": 170.72710200000142,
          "velocity": 0.7480314960629921,
          "duration": 0.2727270000000033
        },
        {
          "name": "F3",
          "midi": 53,
          "time": 170.72710200000142,
          "velocity": 0.7480314960629921,
          "duration": 0.2727270000000033
        },
        {
          "name": "A4",
          "midi": 69,
          "time": 170.99982900000143,
          "velocity": 0.7480314960629921,
          "duration": 0.5454540000000065
        },
        {
          "name": "A3",
          "midi": 57,
          "time": 170.99982900000143,
          "velocity": 0.7480314960629921,
          "duration": 0.5454540000000065
        },
        {
          "name": "F4",
          "midi": 65,
          "time": 171.54528300000143,
          "velocity": 0.7480314960629921,
          "duration": 0.2727270000000033
        },
        {
          "name": "F3",
          "midi": 53,
          "time": 171.54528300000143,
          "velocity": 0.7480314960629921,
          "duration": 0.2727270000000033
        },
        {
          "name": "C4",
          "midi": 60,
          "time": 171.81801000000144,
          "velocity": 0.7480314960629921,
          "duration": 0.5454540000000065
        },
        {
          "name": "C3",
          "midi": 48,
          "time": 171.81801000000144,
          "velocity": 0.7480314960629921,
          "duration": 0.5454540000000065
        },
        {
          "name": "C3",
          "midi": 48,
          "time": 172.36346400000144,
          "velocity": 0.7480314960629921,
          "duration": 0.2727270000000033
        },
        {
          "name": "C2",
          "midi": 36,
          "time": 172.36346400000144,
          "velocity": 0.7480314960629921,
          "duration": 0.2727270000000033
        },
        {
          "name": "G3",
          "midi": 55,
          "time": 172.63619100000145,
          "velocity": 0.7480314960629921,
          "duration": 0.2727270000000033
        },
        {
          "name": "G2",
          "midi": 43,
          "time": 172.63619100000145,
          "velocity": 0.7480314960629921,
          "duration": 0.2727270000000033
        },
        {
          "name": "C4",
          "midi": 60,
          "time": 172.90891800000145,
          "velocity": 0.7480314960629921,
          "duration": 0.2727270000000033
        },
        {
          "name": "C3",
          "midi": 48,
          "time": 172.90891800000145,
          "velocity": 0.7480314960629921,
          "duration": 0.2727270000000033
        },
        {
          "name": "E4",
          "midi": 64,
          "time": 173.18164500000145,
          "velocity": 0.7480314960629921,
          "duration": 0.5454540000000065
        },
        {
          "name": "E3",
          "midi": 52,
          "time": 173.18164500000145,
          "velocity": 0.7480314960629921,
          "duration": 0.5454540000000065
        },
        {
          "name": "C4",
          "midi": 60,
          "time": 173.72709900000146,
          "velocity": 0.3700787401574803,
          "duration": 0.2727270000000033
        },
        {
          "name": "C3",
          "midi": 48,
          "time": 173.72709900000146,
          "velocity": 0.3700787401574803,
          "duration": 0.2727270000000033
        },
        {
          "name": "G3",
          "midi": 55,
          "time": 173.99982600000146,
          "velocity": 0.7480314960629921,
          "duration": 0.5454540000000065
        },
        {
          "name": "G2",
          "midi": 43,
          "time": 173.99982600000146,
          "velocity": 0.7480314960629921,
          "duration": 0.5454540000000065
        },
        {
          "name": "D3",
          "midi": 50,
          "time": 174.54528000000147,
          "velocity": 0.7480314960629921,
          "duration": 2.1818159999999978
        },
        {
          "name": "D2",
          "midi": 38,
          "time": 174.54528000000147,
          "velocity": 0.7480314960629921,
          "duration": 2.1818159999999978
        }
      ],
      "controlChanges": {
        "7": [
          {
            "number": 7,
            "time": 0,
            "value": 0.49606299212598426
          },
          {
            "number": 7,
            "time": 0,
            "value": 0.49606299212598426
          }
        ],
        "10": [
          {
            "number": 10,
            "time": 0,
            "value": 0.2440944881889764
          },
          {
            "number": 10,
            "time": 0,
            "value": 0.2440944881889764
          }
        ],
        "11": [
          {
            "number": 11,
            "time": 0,
            "value": 1
          },
          {
            "number": 11,
            "time": 0,
            "value": 1
          }
        ],
        "91": [
          {
            "number": 91,
            "time": 0,
            "value": 0
          },
          {
            "number": 91,
            "time": 0,
            "value": 0
          }
        ],
        "92": [
          {
            "number": 92,
            "time": 0,
            "value": 0
          },
          {
            "number": 92,
            "time": 0,
            "value": 0
          }
        ],
        "93": [
          {
            "number": 93,
            "time": 0,
            "value": 0
          },
          {
            "number": 93,
            "time": 0,
            "value": 0
          }
        ],
        "95": [
          {
            "number": 95,
            "time": 0,
            "value": 0
          },
          {
            "number": 95,
            "time": 0,
            "value": 0
          }
        ]
      },
      "id": 2,
      "instrumentNumber": 1,
      "instrument": "bright acoustic piano",
      "instrumentFamily": "piano",
      "channelNumber": 3,
      "isPercussion": false
    }
  ]
}